<svg version="1.2" xmlns="http://www.w3.org/2000/svg" xmlns:xlink="http://www.w3.org/1999/xlink" overflow="visible" preserveAspectRatio="none" viewBox="0 0 100.00000222269382 100.00000264229084" width="100.00000222269382" height="100.00000264229084"><g transform="translate(0, 0)"><g transform="translate(-0.00000723204997926663, -0.000024924484740203442) rotate(0)"><path style="stroke-width: 0; stroke-linecap: butt; stroke-linejoin: miter; fill: rgb(255, 255, 255);" d="M49.76464,0.01252c2.30539,-0.10556 4.39535,0.46818 6.39492,1.32507c2.4193,1.03572 4.93764,1.39462 7.53523,1.40083c3.83943,0.00993 7.19722,1.26174 9.90996,4.02365c2.1791,2.21798 4.72469,3.82247 7.57485,5.02584c3.25132,1.37351 5.60004,3.72933 7.00036,6.98427c1.16755,2.71348 2.58644,5.23572 4.74078,7.31957c2.78454,2.69361 4.33715,6.00071 4.26287,9.91259c-0.06438,3.39651 0.8964,6.52602 2.04415,9.64683c1.09079,2.96434 0.98555,5.94731 -0.06067,8.91041c-0.23277,0.66067 -0.41725,1.34619 -0.71935,1.97457c-1.30746,2.71721 -1.09574,5.66416 -1.31489,8.54157c-0.2241,2.94199 -1.32232,5.49278 -3.23151,7.71449c-0.16591,0.19373 -0.33801,0.38374 -0.52001,0.56257c-2.22863,2.19438 -3.93476,4.72531 -5.11717,7.63997c-1.50061,3.69828 -4.29134,6.10254 -7.92772,7.59154c-2.2311,0.91402 -4.25296,2.13726 -5.93557,3.90071c-2.9876,3.13199 -6.60168,4.85943 -10.9797,4.72407c-3.06684,-0.09438 -5.87986,0.85689 -8.6904,1.90627c-3.1337,1.16984 -6.2872,1.17729 -9.43699,0.01987c-0.74659,-0.27445 -1.52785,-0.47067 -2.24225,-0.80846c-2.38958,-1.1301 -4.96364,-1.04069 -7.49437,-1.15245c-3.36027,-0.14778 -6.30701,-1.26298 -8.71517,-3.6039c-2.35491,-2.29001 -4.94631,-4.15902 -8.00077,-5.41206c-3.37761,-1.38593 -5.69414,-3.89077 -7.13779,-7.23016c-1.07965,-2.49864 -2.33387,-4.87185 -4.35449,-6.77688c-3.11512,-2.93578 -4.66649,-6.5906 -4.57611,-10.86635c0.06067,-2.87865 -0.67849,-5.53997 -1.72223,-8.1628c-1.34584,-3.38285 -1.44737,-6.81041 -0.02105,-10.16593c1.33841,-3.14689 1.76804,-6.41798 1.85347,-9.78965c0.07553,-2.98048 1.09203,-5.68403 3.13617,-7.82998c2.60502,-2.73335 4.67269,-5.74737 6.16834,-9.22957c1.21212,-2.82525 3.42466,-4.80106 6.20301,-6.11869c1.35079,-0.6408 2.70159,-1.28285 4.04248,-1.94352c1.3706,-0.67558 2.36111,-1.83548 3.44818,-2.85257c2.13453,-1.99692 4.44982,-3.62998 7.38913,-4.14411c0.9385,-0.16393 1.89805,-0.29681 2.84645,-0.2906c2.86874,0.01739 5.6149,-0.47936 8.26573,-1.60201c1.73833,-0.73643 3.55218,-1.23442 5.37842,-1.14004zM20.03849,13.75998c-0.33801,-0.29805 -0.60049,0.01242 -0.85678,0.13661c-2.56663,1.24311 -4.40649,3.18291 -5.50223,5.82685c-0.00619,0.07451 -0.01362,0.14902 -0.01981,0.22354c0.06438,-0.03229 0.12753,-0.06458 0.19191,-0.09687c1.33098,-0.4893 2.65949,-1.0233 4.08458,-1.12637c0.63021,-0.04595 0.77259,-0.31047 0.82954,-0.85068c0.15477,-1.45299 0.50516,-2.85506 1.27527,-4.12052c-0.01733,-0.03477 -0.03467,-0.06954 -0.052,-0.10308c0.0161,0.03726 0.03219,0.07327 0.04829,0.11053zM86.50849,80.12046c-0.08048,-0.03726 -0.182,-0.12667 -0.23772,-0.10308c-1.47461,0.60106 -2.96407,1.145 -4.57611,1.23318c-0.24391,0.01366 -0.31944,0.15151 -0.34296,0.36635c-0.17705,1.63678 -0.6364,3.20029 -1.39289,4.82963c1.27527,-0.52407 2.26948,-1.12762 3.19684,-1.85784c1.51299,-1.19219 2.44282,-2.81407 3.3318,-4.46576c-0.02724,-0.05092 -0.05324,-0.10183 -0.08295,-0.15151c0,0 -0.03219,0.01739 -0.04953,0.02608c0.05076,0.04098 0.10276,0.08196 0.15353,0.12294zM71.27707,49.95175c-0.3541,-11.88965 -9.20422,-21.1664 -21.36385,-21.13536c-11.91077,0.0298 -21.13356,9.24198 -21.09271,21.23347c0.04086,11.89337 9.19184,21.07947 21.14223,21.08692c12.17449,0.00745 20.98994,-9.31029 21.31433,-21.18379zM58.52066,95.42524c0.10153,-0.01118 0.47544,0.02484 0.78869,-0.09562c2.43663,-0.9314 4.29134,-2.55577 5.60995,-4.80727c0.1882,-0.32289 0.10276,-0.46198 -0.19067,-0.6495c-2.49606,-1.59828 -4.77297,-3.4971 -7.14027,-5.27297c-0.55839,-0.41851 -0.76764,-0.4508 -1.17127,0.20739c-1.55261,2.53714 -2.76597,5.28912 -4.72716,7.56795c-0.29715,0.34524 -0.28105,0.56132 0.11143,0.80473c1.99091,1.23566 4.06477,2.2217 6.71931,2.2453zM65.03444,9.66802c-0.09038,-0.15648 -0.182,-0.32413 -0.28105,-0.48681c-1.24308,-2.06026 -2.99007,-3.53436 -5.1927,-4.47445c-0.3541,-0.15151 -0.72183,-0.21981 -1.11431,-0.21236c-2.43415,0.0534 -4.5724,0.96617 -6.59549,2.23412c-0.41725,0.26203 -0.49773,0.534 -0.1201,0.89787c0.87783,0.84199 1.42013,1.91993 2.03053,2.94695c0.89393,1.50514 1.80395,3.00284 2.64464,4.53779c0.34296,0.6259 0.56582,0.71656 1.17127,0.25582c2.35491,-1.79326 4.64792,-3.67469 7.13779,-5.28539c0.15353,-0.09935 0.35534,-0.15275 0.31944,-0.41478zM28.91832,10.41811c-1.70242,0.0385 -3.47913,0.13536 -4.81136,1.2369c-1.98472,1.64299 -2.97893,3.93176 -3.35656,6.47883c-0.04581,0.3055 -0.06562,0.50544 0.36772,0.58368c3.00617,0.54642 5.93062,1.43808 8.88355,2.20556c0.60916,0.15896 0.67602,-0.07948 0.74164,-0.56257c0.33677,-2.46511 0.74783,-4.92028 1.01774,-7.39284c0.07553,-0.69917 0.85431,-1.55606 0.13248,-2.07019c-0.58563,-0.41851 -1.52289,-0.34772 -2.30663,-0.47439c-0.21791,-0.03601 -0.44573,-0.00497 -0.66859,-0.00497zM71.17802,10.41811c-0.99793,-0.05092 -1.96367,0.14281 -2.92445,0.3825c-0.33801,0.08445 -0.4482,0.19497 -0.35906,0.59237c0.66611,2.92708 0.91374,5.92123 1.35575,8.88433c0.11019,0.7414 0.35658,0.74388 0.96079,0.58119c2.54682,-0.688 5.09984,-1.35736 7.66523,-1.9696c1.51299,-0.36138 1.61328,-0.33282 1.17746,-1.8094c-0.85802,-2.90721 -1.97605,-5.65174 -5.42051,-6.37451c-0.81097,-0.17014 -1.62194,-0.33158 -2.45644,-0.28439zM89.60504,28.78907c-0.11019,-1.56848 -0.15848,-3.34187 -1.23193,-4.64459c-1.63309,-1.98202 -3.89762,-3.01898 -6.45063,-3.3754c-0.36153,-0.05092 -0.59801,-0.00497 -0.67106,0.43341c-0.49277,2.96186 -1.41518,5.8194 -2.13453,8.72537c-0.13496,0.54394 -0.09038,0.75754 0.55716,0.85192c2.95912,0.42844 5.943,0.70662 8.86993,1.34246c0.42963,0.09314 0.57201,-0.0385 0.66116,-0.3974c0.23153,-0.93264 0.36401,-1.8777 0.39991,-2.93453zM28.87127,89.54127c0.96698,0.00869 1.90919,-0.12419 2.83531,-0.38995c0.27486,-0.07824 0.54354,-0.08569 0.4383,-0.53897c-0.67354,-2.89604 -0.9385,-5.85789 -1.3347,-8.7974c-0.11019,-0.81963 -0.38382,-0.90408 -1.11927,-0.70911c-2.76721,0.73519 -5.51213,1.57345 -8.33382,2.07268c-0.65621,0.11549 -0.69954,0.35642 -0.56954,0.8631c0.05572,0.21609 0.07057,0.44211 0.12629,0.65819c0.76764,2.9631 2.35863,6.31738 6.14977,6.69119c0.60173,0.05961 1.2047,0.10059 1.80766,0.15027zM41.4172,95.45132c2.67311,-0.1304 4.77297,-0.8631 6.62397,-2.28504c0.21296,-0.16393 0.49154,-0.26203 0.21543,-0.6495c-1.77795,-2.4974 -3.17208,-5.23075 -4.75316,-7.84985c-0.29344,-0.48557 -0.47544,-0.51662 -0.91497,-0.17759c-1.91786,1.48155 -3.88771,2.89604 -5.78452,4.40367c-0.59554,0.47439 -1.7309,0.64329 -1.69995,1.44802c0.02972,0.79604 0.80478,1.49397 1.39908,2.11366c1.44984,1.51135 3.05569,2.78054 4.91164,2.99663zM41.58063,4.51551c-0.19067,0 -0.39868,-0.05092 -0.56954,0.00745c-2.60873,0.89663 -4.56497,2.58433 -5.93681,4.9712c-0.17458,0.30426 -0.03838,0.43093 0.21543,0.58989c2.53444,1.60201 4.82002,3.54429 7.2257,5.32389c0.50763,0.37504 0.69335,0.37132 1.03507,-0.19746c1.53775,-2.5657 2.90093,-5.23944 4.64297,-7.67723c0.33182,-0.46322 0.04581,-0.59361 -0.23153,-0.80597c-1.88319,-1.44429 -4.03257,-2.12235 -6.38006,-2.21177zM71.08268,89.4978c1.6628,0.08321 3.38751,-0.09438 4.66897,-1.07918c2.1271,-1.63306 3.14484,-4.03359 3.52494,-6.68498c0.04086,-0.28936 -0.02724,-0.45577 -0.37763,-0.51413c-3.01731,-0.50296 -5.92938,-1.44678 -8.88974,-2.18569c-0.6203,-0.15523 -0.65249,0.03229 -0.72059,0.53773c-0.33677,2.4974 -0.75649,4.98486 -1.05364,7.48598c-0.07924,0.66564 -0.74783,1.48031 -0.12629,1.9783c0.54973,0.43962 1.4387,0.44459 2.21005,0.46198c0.25505,0.00621 0.51011,0 0.76392,0zM10.41701,28.66364c0.03219,1.00964 0.13743,2.08386 0.42344,3.13448c0.08172,0.29805 0.18448,0.43093 0.58192,0.34151c2.88855,-0.65198 5.83776,-0.9314 8.76593,-1.33004c0.88402,-0.12046 0.82707,-0.44831 0.66364,-1.07422c-0.67602,-2.58557 -1.35575,-5.1699 -1.98595,-7.76789c-0.32067,-1.32259 -0.27486,-1.33377 -1.60461,-1.04317c-0.09286,0.01987 -0.19067,0.02608 -0.28105,0.05464c-3.04579,0.96121 -5.80928,2.22915 -6.34663,5.89887c-0.08295,0.56753 -0.13867,1.13879 -0.21667,1.78581zM10.41701,71.09952c0.14362,1.78456 0.20305,3.50828 1.28889,4.77747c1.66899,1.95222 3.92362,2.96931 6.46797,3.32945c0.43953,0.06209 0.53611,-0.13164 0.59801,-0.50047c0.48287,-2.86002 1.3347,-5.63187 2.08129,-8.42732c0.23772,-0.89166 -0.03095,-1.04317 -0.80478,-1.1537c-2.86007,-0.40982 -5.7449,-0.66192 -8.56783,-1.31141c-0.41601,-0.09562 -0.56954,0.05588 -0.66611,0.42224c-0.26001,0.99225 -0.34048,2.00562 -0.39744,2.86375zM95.42423,57.99533c-0.10648,-2.29125 -0.85059,-4.28693 -2.1791,-6.07149c-0.2142,-0.28811 -0.35287,-0.54518 -0.80602,-0.21857c-2.40568,1.72744 -5.03669,3.09349 -7.5798,4.5974c-0.64506,0.38125 -0.64754,0.59982 -0.2142,1.17729c1.77547,2.36948 3.68466,4.64335 5.25337,7.1631c0.31201,0.50171 0.56582,0.22105 0.84564,0.05464c1.94633,-1.15494 3.37389,-2.77682 4.33839,-4.82342c0.2922,-0.62093 0.47792,-1.24808 0.34048,-1.8777zM89.59637,71.09828c-0.01733,-0.96121 -0.16219,-1.90627 -0.38382,-2.84015c-0.08295,-0.35145 -0.20924,-0.54642 -0.65125,-0.44707c-2.89226,0.65695 -5.84643,0.92271 -8.77707,1.33501c-0.6723,0.09438 -0.82335,0.31047 -0.65497,0.95996c0.7404,2.86872 1.61699,5.7039 2.13329,8.6285c0.05076,0.2906 0.08543,0.55139 0.52125,0.47315c4.51792,-0.8097 7.86086,-2.83891 7.81381,-8.1094zM95.42547,41.99137c0.05572,-0.41478 0.08543,-0.83702 -0.06562,-1.23069c-0.93478,-2.44276 -2.5493,-4.30183 -4.80021,-5.62318c-0.33553,-0.19622 -0.47173,-0.12046 -0.66364,0.18504c-1.57861,2.5123 -3.48161,4.78989 -5.25708,7.15813c-0.44944,0.59982 -0.39249,0.79604 0.22905,1.16611c2.53816,1.51384 5.16546,2.88113 7.5798,4.59615c0.45811,0.32537 0.59801,0.05216 0.81097,-0.23471c1.32108,-1.78953 2.07015,-3.78521 2.16548,-6.01809zM4.58049,41.6275c0.08667,2.52844 0.84316,4.58746 2.21748,6.42294c0.17705,0.23595 0.29467,0.54518 0.72802,0.23471c2.46016,-1.76345 5.15432,-3.14689 7.74076,-4.70544c0.49525,-0.29805 0.5943,-0.46943 0.20058,-0.97362c-1.43127,-1.833 -2.76226,-3.74547 -4.22325,-5.55364c-0.53735,-0.66564 -0.6983,-1.96836 -1.64423,-1.89882c-0.87412,0.06458 -1.61575,0.94258 -2.30787,1.60822c-0.92612,0.89166 -1.66404,1.92365 -2.24225,3.07238c-0.32067,0.63584 -0.55592,1.28782 -0.46925,1.79326zM7.20408,51.45813c-0.13124,0.14033 -0.26744,0.26576 -0.3801,0.41106c-0.80973,1.03944 -1.40899,2.19562 -1.7829,3.45612c-0.38258,1.29154 -0.76269,2.67002 -0.31944,3.94914c0.82954,2.39308 2.46387,4.20372 4.65783,5.49154c0.32191,0.18876 0.52373,0.23471 0.75897,-0.1453c1.56499,-2.52099 3.47913,-4.7874 5.25089,-7.15813c0.46801,-0.62714 0.32563,-0.82087 -0.25877,-1.17108c-2.53444,-1.51881 -5.15679,-2.89107 -7.58228,-4.58995c-0.104,-0.07203 -0.20677,-0.14654 -0.3442,-0.24465zM55.18887,82.87244c-0.14115,-0.12667 -0.26867,-0.26203 -0.41725,-0.36883c-1.49194,-1.07918 -2.9975,-2.14098 -4.47459,-3.24128c-0.33182,-0.24837 -0.52497,-0.18628 -0.81345,0.03353c-1.41642,1.08663 -2.84026,2.16458 -4.28144,3.21892c-0.33058,0.24216 -0.35906,0.43217 -0.15848,0.76623c1.47213,2.46138 2.93807,4.92649 4.39163,7.39905c0.33553,0.57002 0.58935,0.61472 0.95459,0.0149c1.50308,-2.46387 3.02969,-4.91159 4.5464,-7.36676c0.08295,-0.13412 0.15353,-0.27694 0.25134,-0.45577zM49.84388,8.55158c-1.64918,2.80414 -3.23646,5.51762 -4.84726,8.21744c-0.22905,0.38498 0.01733,0.50668 0.23772,0.67309c1.42013,1.07546 2.84769,2.1385 4.26039,3.22389c0.29096,0.22354 0.48906,0.26576 0.81221,0.02608c1.44861,-1.07794 2.91455,-2.13353 4.39287,-3.16801c0.42468,-0.29681 0.46182,-0.52034 0.20181,-0.98729c-1.37184,-2.46262 -3.02474,-4.74642 -4.4622,-7.16558c-0.14362,-0.24216 -0.33182,-0.45949 -0.59554,-0.81963zM20.66126,20.7964c0.79735,3.10715 1.57366,6.09385 2.32149,9.08675c0.104,0.41354 0.27363,0.48557 0.66364,0.4272c1.72842,-0.26079 3.46056,-0.50171 5.19394,-0.72898c0.43706,-0.05713 0.64754,-0.1987 0.70697,-0.69172c0.20181,-1.67528 0.4482,-3.34684 0.7243,-5.01218c0.09905,-0.59485 -0.08667,-0.84199 -0.65621,-0.98108c-2.31158,-0.56505 -4.61573,-1.16487 -6.92112,-1.756c-0.60916,-0.15648 -1.20965,-0.35642 -2.033,-0.344zM78.75163,20.80013c-0.05448,0.01242 -0.20924,0.04595 -0.36277,0.08569c-2.71026,0.68675 -5.41804,1.38717 -8.13448,2.05032c-0.55592,0.13536 -0.5844,0.4359 -0.51382,0.89415c0.25629,1.67031 0.52249,3.34063 0.71687,5.01963c0.06314,0.54891 0.31201,0.67806 0.7763,0.73643c1.35699,0.17386 2.70902,0.38498 4.06477,0.56753c1.60832,0.21733 1.61823,0.2136 2.01319,-1.33873c0.62897,-2.47008 1.24679,-4.94139 1.85843,-7.4152c0.06562,-0.26576 0.30582,-0.67806 -0.41972,-0.59982zM20.9386,49.97907c-0.11019,-0.17138 -0.18572,-0.30923 -0.27982,-0.43465c-1.06974,-1.42939 -2.14939,-2.85133 -3.20798,-4.28941c-0.2402,-0.32661 -0.4383,-0.34897 -0.7825,-0.14157c-2.42425,1.46168 -4.85098,2.92087 -7.29875,4.34033c-0.77754,0.4508 -0.55097,0.71656 0.04581,1.06801c2.41187,1.4207 4.82002,2.84512 7.2158,4.29314c0.3863,0.23347 0.58811,0.19373 0.84935,-0.16393c1.05612,-1.43933 2.14072,-2.85878 3.2117,-4.28693c0.09162,-0.1217 0.16591,-0.25707 0.24639,-0.38498zM76.38681,69.65275c-1.82747,0.25955 -3.5299,0.49551 -5.23108,0.75009c-0.28725,0.04222 -0.61535,0.00373 -0.67602,0.48681c-0.22286,1.80568 -0.49525,3.60514 -0.7503,5.40585c-0.0421,0.30177 -0.04829,0.56629 0.33925,0.66316c2.86997,0.7178 5.73747,1.44429 8.60621,2.16458c0.59554,0.14902 0.61782,-0.11922 0.4903,-0.61224c-0.72059,-2.77806 -1.43251,-5.5586 -2.10729,-8.3466c-0.12381,-0.51289 -0.3442,-0.6259 -0.67106,-0.51165zM65.80084,88.21744c0.12257,-0.26949 0.18448,-0.35269 0.1981,-0.44211c0.44449,-2.99166 0.87164,-5.98705 1.33841,-8.97622c0.08048,-0.51786 -0.27239,-0.51538 -0.53982,-0.58616c-1.68757,-0.44831 -3.38627,-0.85565 -5.07012,-1.31638c-0.42096,-0.11549 -0.63021,-0.02484 -0.83697,0.34276c-0.52868,0.94382 -1.11431,1.85411 -1.63804,2.80041c-0.41353,0.74512 -1.29632,1.50639 -1.12546,2.21674c0.15105,0.63211 1.17374,1.06552 1.82995,1.56227c1.92281,1.45671 3.85428,2.90225 5.84395,4.39746zM76.91302,38.55512c-0.10772,0.22229 0.04333,0.39988 0.28848,0.54518c1.58975,0.93761 3.18322,1.8715 4.76554,2.82152c0.27239,0.16268 0.43211,0.15648 0.63021,-0.11053c1.747,-2.35831 3.50513,-4.70668 5.26203,-7.05754c0.3541,-0.47439 0.26744,-0.68675 -0.34915,-0.77368c-2.8675,-0.40485 -5.73004,-0.84571 -8.59507,-1.27167c-0.25629,-0.0385 -0.4903,-0.06458 -0.58068,0.30177c-0.45439,1.8243 -0.93107,3.64364 -1.42137,5.54618zM67.3584,21.29936c-0.44696,-3.06741 -0.86669,-6.00071 -1.30622,-8.93028c-0.11886,-0.78983 -0.5522,-0.38746 -0.85678,-0.1602c-2.27444,1.6877 -4.53278,3.39651 -6.80969,5.08297c-0.34668,0.25707 -0.42468,0.45701 -0.18448,0.85192c0.91002,1.49397 1.79528,3.00408 2.66445,4.52164c0.20429,0.35517 0.40858,0.51289 0.82954,0.39988c1.71852,-0.45949 3.44075,-0.90035 5.16422,-1.34246c0.29715,-0.07575 0.56582,-0.15648 0.49896,-0.42348zM88.33596,65.79302c-2.00824,-2.6725 -3.88771,-5.1612 -5.74862,-7.66357c-0.25753,-0.34524 -0.45068,-0.18876 -0.70449,-0.03726c-1.50432,0.89415 -3.00493,1.79574 -4.52782,2.65884c-0.4123,0.23347 -0.50268,0.47191 -0.37639,0.91774c0.33925,1.19592 0.63392,2.40302 0.94221,3.60763c0.50516,1.97209 0.51011,2.01431 2.5394,1.72496c2.54559,-0.36387 5.10974,-0.61969 7.87572,-1.20834zM30.29883,76.41845c-0.26991,-1.91496 -0.53735,-3.74423 -0.7763,-5.57723c-0.05572,-0.42224 -0.35287,-0.39616 -0.6203,-0.43465c-1.7309,-0.24713 -3.46551,-0.47688 -5.19517,-0.7327c-0.40487,-0.05961 -0.61906,-0.02235 -0.73668,0.45701c-0.66735,2.71969 -1.3607,5.43317 -2.08253,8.13796c-0.22039,0.82833 0.05572,1.00591 0.80478,0.81094c2.7053,-0.70166 5.41185,-1.40083 8.1221,-2.0851c0.38134,-0.09562 0.56582,-0.25955 0.48411,-0.57747zM23.09294,38.50793c-0.46058,-1.78332 -0.94964,-3.66227 -1.42632,-5.54494c-0.07924,-0.31419 -0.28105,-0.28811 -0.51011,-0.25458c-2.86131,0.42224 -5.72014,0.86434 -8.58516,1.25305c-0.77011,0.10432 -0.73916,0.36263 -0.35163,0.88048c1.72223,2.29249 3.44075,4.58746 5.14194,6.8961c0.24886,0.33655 0.4383,0.33903 0.77135,0.13785c1.52289,-0.92147 3.06188,-1.81685 4.58973,-2.73087c0.19686,-0.11798 0.52125,-0.17386 0.3702,-0.63708zM38.44693,23.08144c0.30953,0.11301 0.48906,-0.04843 0.65497,-0.33655c0.89516,-1.54488 1.79776,-3.08604 2.72016,-4.61602c0.20553,-0.34151 0.1882,-0.55139 -0.13743,-0.79355c-2.30415,-1.71129 -4.60211,-3.43128 -6.89388,-5.15996c-0.49525,-0.3738 -0.76392,-0.3353 -0.85678,0.33034c-0.39496,2.84636 -0.79735,5.69148 -1.2146,8.53536c-0.04953,0.33406 -0.02972,0.56257 0.33306,0.65446c1.78909,0.45825 3.57694,0.91774 5.39451,1.38468zM34.18283,88.246c2.57654,-1.93607 5.05898,-3.81129 7.55752,-5.66789c0.38258,-0.28439 0.21791,-0.51786 0.052,-0.79976c-0.89145,-1.50514 -1.79281,-3.00532 -2.66073,-4.52413c-0.20801,-0.36511 -0.39744,-0.48557 -0.82459,-0.36883c-1.68261,0.46322 -3.37637,0.88918 -5.06889,1.31886c-0.4222,0.1068 -0.60668,0.25831 -0.52125,0.77368c0.26496,1.60201 0.41725,3.22265 0.67973,4.82466c0.23401,1.43063 0.28229,2.89852 0.78621,4.4434zM11.83838,65.89858c3.14236,0.44831 6.22158,0.88421 9.29956,1.33377c0.45315,0.06582 0.52125,-0.20242 0.60421,-0.53525c0.41972,-1.67031 0.82583,-3.34559 1.2926,-5.00349c0.14362,-0.51165 -0.00248,-0.73519 -0.42468,-0.97611c-1.4387,-0.81839 -2.87121,-1.65168 -4.27649,-2.5272c-0.50392,-0.31419 -0.76145,-0.28936 -1.12793,0.21733c-1.38422,1.91372 -2.82912,3.78273 -4.24306,5.67658c-0.39496,0.52904 -0.84316,1.03075 -1.12546,1.81437zM83.03183,54.99994c0.08543,-0.04222 0.17581,-0.07824 0.25753,-0.12667c2.51092,-1.50142 5.0206,-3.00656 7.53399,-4.5055c0.75526,-0.44956 0.19191,-0.67806 -0.15972,-0.88918c-2.42673,-1.45671 -4.86831,-2.88983 -7.29132,-4.35523c-0.39868,-0.24092 -0.59306,-0.15523 -0.84688,0.19125c-1.03631,1.41449 -2.08624,2.82028 -3.1597,4.20621c-0.26372,0.34027 -0.26991,0.56008 -0.00495,0.90284c1.07345,1.38593 2.11224,2.79917 3.1696,4.19752c0.12753,0.16765 0.21791,0.40609 0.50144,0.37877zM77.76361,48.17836c0.09905,-0.10804 0.1882,-0.19125 0.26001,-0.28563c0.93974,-1.24559 1.86586,-2.49988 2.81921,-3.7343c0.27486,-0.35517 0.08791,-0.47564 -0.19439,-0.63956c-1.29013,-0.75133 -2.58397,-1.49645 -3.85305,-2.28131c-0.46801,-0.28936 -0.53611,-0.09066 -0.66116,0.3204c-0.65951,2.16747 -0.30912,4.15405 1.05117,5.95973c0.11515,0.15275 0.22905,0.3055 0.35163,0.45204c0.05572,0.06706 0.12877,0.11922 0.22658,0.20863zM56.28708,18.93608c-1.51794,0.96742 -2.73997,2.20804 -4.26658,3.02022c-0.37268,0.1987 -0.32191,0.44335 0.01857,0.61224c1.00783,0.49799 1.81262,1.27664 2.71397,1.92241c0.25753,0.18504 0.47915,0.23844 0.78869,0.15275c1.01031,-0.28066 2.02681,-0.5427 3.04826,-0.78486c0.37763,-0.08941 0.48411,-0.20615 0.26372,-0.57374c-0.86669,-1.44181 -1.71233,-2.89728 -2.56663,-4.34902zM56.27594,81.03447c0.86297,-1.4654 1.70118,-2.92212 2.57654,-4.35772c0.23153,-0.37877 0.10029,-0.49923 -0.24143,-0.58616c-1.04374,-0.267 -2.08748,-0.53773 -3.13246,-0.80101c-0.21915,-0.05464 -0.42963,-0.04595 -0.63144,0.10432c-1.03755,0.76872 -2.01567,1.6194 -3.27237,2.28628c1.72595,1.00219 3.12503,2.24406 4.70116,3.35429zM76.29643,58.99379c1.51051,-0.89042 2.95664,-1.74607 4.40649,-2.59426c0.25382,-0.14902 0.39372,-0.27197 0.15848,-0.57871c-0.94964,-1.23814 -1.877,-2.49367 -2.8155,-3.74051c-0.13248,-0.17635 -0.2761,-0.4123 -0.50763,-0.10556c-0.72802,0.96742 -1.44984,1.93856 -2.17291,2.9097c-0.13867,0.18504 -0.02724,0.36138 0.01981,0.5427c0.29963,1.16239 0.5943,2.32602 0.91126,3.56665zM48.19717,77.68515c-1.03507,-0.78238 -1.97605,-1.489 -2.91083,-2.20307c-0.21172,-0.16144 -0.42344,-0.27818 -0.69954,-0.20739c-1.07593,0.27569 -2.1531,0.55015 -3.23027,0.82336c-0.31201,0.07948 -0.41106,0.20242 -0.21543,0.52779c0.87659,1.45547 1.72966,2.92584 2.60997,4.42105c1.50432,-1.13879 2.92445,-2.21301 4.44611,-3.36422zM67.93413,70.85363c-1.10565,0.14902 -2.17415,0.29681 -3.24389,0.4359c-0.24763,0.03229 -0.3962,0.18007 -0.51382,0.37877c-0.54725,0.93016 -1.08707,1.86653 -1.64671,2.78924c-0.20305,0.3353 -0.15848,0.50917 0.23153,0.60727c1.47461,0.3738 2.94798,0.7563 4.42011,1.14376c0.35287,0.09314 0.52868,-0.00621 0.57944,-0.38498c0.19439,-1.48155 0.40239,-2.96186 0.61163,-4.44216c0.05324,-0.37629 0.02105,-0.65571 -0.43706,-0.52779zM74.99764,37.7802c0.43706,-1.71626 0.83573,-3.31951 1.26041,-4.91531c0.09038,-0.33903 0.10896,-0.52158 -0.31944,-0.57499c-1.51423,-0.18876 -3.02722,-0.39119 -4.53649,-0.62466c-0.44696,-0.06954 -0.56582,0.03477 -0.49154,0.47688c0.16962,1.00467 0.31077,2.01555 0.45811,3.02395c0.0421,0.28563 0.07553,0.54766 0.37268,0.7178c1.04622,0.59485 2.08129,1.20958 3.25503,1.89633zM28.73013,31.64288c-1.62442,0.22975 -3.09655,0.46943 -4.57735,0.63335c-0.5943,0.06582 -0.45439,0.38125 -0.36896,0.71283c0.3541,1.38468 0.74535,2.75943 1.06231,4.15157c0.12134,0.53276 0.24391,0.56505 0.73173,0.33903c2.05653,-0.95251 3.71933,-2.14843 3.42094,-4.78244c-0.01733,-0.15027 0.05695,-0.31171 0.08667,-0.46818c0.07924,-0.40733 0.06314,-0.72898 -0.3541,-0.5874zM43.74611,18.90628c-0.87412,1.48527 -1.72595,2.93081 -2.57406,4.37883c-0.104,0.17759 -0.32067,0.41975 0.04953,0.5191c1.16508,0.31295 2.33758,0.59485 3.50637,0.88794c0.21296,0.0534 0.3541,-0.07824 0.50639,-0.19497c0.83573,-0.63459 1.66776,-1.2754 2.51835,-1.88764c0.34544,-0.24837 0.39991,-0.40609 0.02105,-0.68427c-1.33222,-0.97611 -2.64587,-1.97954 -4.02886,-3.01898zM74.99268,62.16428c-1.2307,0.72773 -2.59387,1.17853 -3.39494,2.11366c-0.71068,0.83081 -0.43706,2.25896 -0.64878,3.41514c-0.01114,0.06209 -0.02848,0.12419 -0.04333,0.18628c-0.09657,0.39367 0.052,0.49675 0.44077,0.4359c1.6628,-0.25831 3.32808,-0.49551 5.03793,-0.74636c-0.46306,-1.79947 -0.91374,-3.5505 -1.39165,-5.40461zM32.03344,70.8437c-0.36525,-0.14281 -0.45934,0.08569 -0.39868,0.50047c0.2142,1.48155 0.42592,2.96434 0.62525,4.44837c0.05819,0.42969 0.26991,0.50544 0.65373,0.40237c1.44118,-0.38498 2.88607,-0.76127 4.33344,-1.12513c0.36896,-0.09314 0.47544,-0.22602 0.26001,-0.58119c-0.56211,-0.92395 -1.10688,-1.85784 -1.64918,-2.7942c-0.13867,-0.24092 -0.31944,-0.37753 -0.59678,-0.41354c-1.04003,-0.13536 -2.07881,-0.2819 -3.22779,-0.43838zM37.74244,25.02497c-1.70366,-0.44459 -3.33551,-0.85813 -4.95869,-1.30148c-0.35658,-0.09687 -0.46058,0.03229 -0.50392,0.33779c-0.21667,1.54861 -0.43458,3.09598 -0.65249,4.64335c-0.04457,0.31543 0.03714,0.4272 0.40487,0.40733c2.21501,-0.11798 4.30001,-0.41603 5.08993,-2.98545c0.10896,-0.35642 0.36896,-0.66564 0.61906,-1.10154zM29.11023,67.934c-0.16219,-1.10775 -0.32315,-2.20804 -0.48658,-3.30834c-0.03343,-0.22229 -0.10153,-0.40237 -0.33058,-0.53276c-0.9645,-0.54891 -1.91414,-1.12141 -2.86626,-1.68894c-0.25505,-0.15151 -0.41972,-0.2285 -0.51877,0.1838c-0.36277,1.51135 -0.75526,3.01526 -1.15393,4.51792c-0.09162,0.34524 -0.0421,0.48805 0.34791,0.54021c1.53899,0.20615 3.0755,0.44086 4.61078,0.67806c0.34296,0.0534 0.48287,-0.04719 0.39744,-0.38995zM62.31304,25.02248c1.19851,2.39018 3.07344,3.74547 5.6248,4.06588c0.12134,0.0149 0.24267,0.0298 0.49773,0.05961c-0.23896,-1.74855 -0.47296,-3.4437 -0.70326,-5.13885c-0.03838,-0.27818 -0.15972,-0.37132 -0.44944,-0.29432c-1.65042,0.44211 -3.30456,0.87179 -4.97107,1.30769zM23.72067,58.99255c0.32067,-1.24435 0.60173,-2.38687 0.91497,-3.5207c0.08419,-0.30426 0.07924,-0.54145 -0.11762,-0.79852c-0.64011,-0.83329 -1.28022,-1.66783 -1.8869,-2.52472c-0.31696,-0.44707 -0.49896,-0.30302 -0.75649,0.04843c-0.86669,1.18102 -1.74452,2.35458 -2.63968,3.51449c-0.24639,0.31916 -0.27734,0.49551 0.11515,0.71904c1.43251,0.81715 2.84893,1.66535 4.37058,2.56197zM22.27578,48.25535c0.79364,-1.05807 1.51299,-2.02176 2.23853,-2.98173c0.13991,-0.18504 0.24515,-0.36263 0.17829,-0.60976c-0.32563,-1.20585 -0.6463,-2.41419 -0.98926,-3.70077c-1.52042,0.89911 -2.93931,1.73737 -4.3582,2.57812c-0.21791,0.12915 -0.46677,0.22105 -0.20429,0.56257c1.04003,1.35488 2.06024,2.7259 3.1337,4.15157zM54.74438,96.92542c-1.68633,-0.68924 -3.21046,-1.24187 -4.46097,-2.31857c-0.19562,-0.16765 -0.36153,-0.3353 -0.63516,-0.09811c-1.23813,1.06925 -2.68178,1.79202 -4.36192,2.40302c3.21789,1.37226 6.24387,1.30024 9.45804,0.01366zM54.72828,3.0054c-3.18446,-1.24559 -6.23396,-1.37847 -9.41223,0.03726c1.62194,0.5874 3.02845,1.30148 4.25048,2.33968c0.21543,0.18255 0.38753,0.27321 0.64135,0.0385c1.26165,-1.16611 2.86997,-1.69639 4.5204,-2.41543zM95.16546,36.34708c-0.026,-3.4673 -1.13041,-6.22797 -3.59923,-8.62726c0.10896,1.7945 -0.00371,3.37167 -0.50763,4.89172c-0.15724,0.47564 0.15848,0.53525 0.42096,0.68427c1.33718,0.75754 2.52454,1.70012 3.68714,3.05127zM8.45582,72.2644c-0.10276,-1.81934 0.00619,-3.42756 0.52373,-4.98362c0.08791,-0.26328 0,-0.39988 -0.23772,-0.52655c-1.44242,-0.76375 -2.69168,-1.78084 -3.88276,-3.10715c0.00743,3.39775 1.12669,6.16215 3.59552,8.61608zM91.5489,72.28054c2.46758,-2.47008 3.60542,-5.20715 3.61161,-8.64961c-1.20841,1.34122 -2.43663,2.37694 -3.88152,3.12082c-0.36772,0.18876 -0.25258,0.41354 -0.16962,0.70911c0.41725,1.48403 0.59059,2.99787 0.43953,4.81969zM4.85535,36.32969c1.22946,-1.32507 2.40939,-2.38315 3.85181,-3.10591c0.20924,-0.10556 0.39001,-0.23223 0.28848,-0.51538c-0.56582,-1.56724 -0.60049,-3.20775 -0.57325,-4.9712c-2.43787,2.38439 -3.54475,5.15624 -3.56704,8.59249zM36.28764,4.82722c-3.45437,-0.00621 -6.17453,1.1301 -8.54926,3.55671c1.72099,-0.09811 3.22779,0.06334 4.70364,0.49054c0.32191,0.09314 0.58192,0.14157 0.78373,-0.25582c0.71564,-1.40207 1.72471,-2.58309 3.06065,-3.79142zM3.07988,45.31089c-1.28517,3.18663 -1.30994,6.1311 0.00867,9.30905c0.61287,-1.72744 1.3607,-3.14938 2.41311,-4.39125c0.14981,-0.17759 0.13496,-0.33282 -0.00867,-0.50544c-1.03879,-1.25305 -1.79281,-2.67126 -2.41311,-4.41236zM13.54823,79.91927c1.29879,3.1531 3.38132,5.2233 6.54349,6.53471c-0.78745,-1.61815 -1.24184,-3.12578 -1.38794,-4.71413c-0.026,-0.28687 -0.11143,-0.47439 -0.44449,-0.49426c-1.59347,-0.09562 -3.07427,-0.63832 -4.71231,-1.32507zM96.94465,54.61248c1.3087,-3.17049 1.31489,-6.14601 -0.01362,-9.29414c-0.56954,1.68646 -1.33718,3.10095 -2.3673,4.3602c-0.16715,0.20367 -0.19439,0.35393 -0.01238,0.57499c1.03507,1.25553 1.77795,2.68368 2.3933,4.35896zM36.23936,95.10484c-0.87164,-0.79355 -1.64918,-1.40207 -1.99833,-2.21798c-0.76269,-1.78208 -1.93271,-2.06647 -3.61409,-1.44057c-0.86421,0.32164 -1.83614,0.06085 -2.84769,0.19994c2.3512,2.31608 5.02184,3.48841 8.45887,3.4586zM86.46887,20.05998c-1.32232,-3.23879 -3.69457,-5.58717 -6.43825,-6.42419c0.66487,1.50514 1.1465,3.00532 1.2926,4.59243c0.02724,0.29308 0.13619,0.42844 0.45811,0.45825c1.58604,0.14778 3.09284,0.59982 4.6863,1.37351zM72.11157,8.35288c-1.72595,-2.25772 -6.04081,-3.99509 -8.1902,-3.3605c1.12917,1.00467 2.07757,2.14967 2.78702,3.47972c0.20553,0.38498 0.38877,0.56753 0.87783,0.41106c1.43127,-0.45577 2.91331,-0.57995 4.52411,-0.53028zM72.32824,91.55185c-1.79528,0.1068 -3.33799,-0.03105 -4.84231,-0.50296c-0.25382,-0.07948 -0.48411,-0.11549 -0.64259,0.1987c-0.71935,1.42442 -1.75319,2.61413 -3.03341,3.84855c3.4197,0.05464 6.09034,-1.14252 8.51707,-3.54429zM71.89489,38.36139c-0.08295,1.78953 0.48039,3.2152 1.82995,4.35399c0.21172,-0.82833 0.39991,-1.63306 0.62773,-2.42661c0.08295,-0.2906 0.05819,-0.47191 -0.21667,-0.62714c-0.7404,-0.41727 -1.47089,-0.85192 -2.24101,-1.30024zM42.71104,26.33017c-0.90259,-0.24837 -1.74452,-0.47936 -2.58768,-0.71035c-0.21667,-0.05961 -0.35534,0.03105 -0.4643,0.22229c-0.4383,0.76747 -0.8865,1.52874 -1.35575,2.3372c1.7342,-0.17303 3.20386,-0.78941 4.40896,-1.84914zM34.21502,69.09142c-0.5844,-1.6877 -1.67023,-2.78924 -3.29589,-3.34808c0.05613,1.90917 0.97358,2.99042 2.75235,3.24376c0.156,0.02235 0.30953,0.05837 0.54354,0.10432zM69.09302,65.72844c-1.61699,0.63087 -2.75111,1.6728 -3.27237,3.31951c2.03961,-0.22271 3.14319,-1.27705 3.31075,-3.16304c0.00248,-0.0298 -0.01486,-0.06085 -0.03838,-0.15523zM47.58554,25.3106c1.63804,0.92022 3.18817,0.71035 4.74326,0.05216c-0.6884,-0.51289 -1.35699,-0.99846 -2.00948,-1.5039c-0.24763,-0.19125 -0.44077,-0.30798 -0.74288,-0.06334c-0.63516,0.51538 -1.30127,0.99349 -1.99091,1.51508zM73.69389,57.24027c-1.32356,1.17108 -1.88319,2.59178 -1.81757,4.26706c2.60625,-1.03572 2.67435,-1.16239 1.99214,-3.75914c-0.03962,-0.15275 -0.10276,-0.30053 -0.17458,-0.50792zM28.12221,38.41106c-1.78455,0.90491 -2.40939,2.266 -1.87452,4.08326c0.02105,0.07203 0.06438,0.13785 0.09657,0.20367c1.2827,-1.145 1.87205,-2.54583 1.77671,-4.28693zM65.87389,30.95985c0.53487,1.66907 1.63556,2.68119 3.29341,3.2686c-0.13248,-0.89663 -0.26124,-1.71378 -0.3702,-2.53217c-0.03343,-0.25086 -0.104,-0.43217 -0.38134,-0.45577c-0.83945,-0.07203 -1.66156,-0.34276 -2.54187,-0.27942zM34.16178,30.90149c-0.89145,0.11549 -1.72347,0.22478 -2.55425,0.33282c-0.25877,0.03353 -0.35782,0.1751 -0.39001,0.44086c-0.10153,0.83826 -0.23524,1.6728 -0.36401,2.55701c1.64918,-0.58492 2.75854,-1.59704 3.30703,-3.33069zM74.68191,52.34483c0.5423,-0.72028 1.02393,-1.35239 1.49318,-1.99071c0.12134,-0.16517 0.33306,-0.31792 0.13372,-0.57995c-0.54478,-0.71283 -1.07841,-1.43312 -1.63185,-2.17203c-0.77011,1.63678 -0.77259,3.13199 0.00495,4.7427zM61.73236,28.19546c-0.47792,-0.81467 -0.89393,-1.52253 -1.30994,-2.22915c-0.09286,-0.15896 -0.15724,-0.40733 -0.38877,-0.35269c-0.89269,0.2136 -1.77795,0.45825 -2.76226,0.7178c1.2373,1.02992 2.72429,1.65168 4.46097,1.86529zM47.53354,74.61774c0.81345,0.5961 1.52289,1.47286 2.35615,1.61443c0.70202,0.11922 1.35203,-0.89539 2.05529,-1.36606c0.14734,-0.09935 0.29344,-0.20118 0.38134,-0.26079c-1.5328,-0.74388 -3.1176,-0.80721 -4.79278,0.01242zM28.11973,61.59675c0.08295,-1.81685 -0.49649,-3.22265 -1.82376,-4.37138c-0.21172,0.82957 -0.39991,1.62933 -0.62525,2.41668c-0.09781,0.34151 -0.00619,0.52531 0.2922,0.69172c0.68964,0.38374 1.36318,0.7948 2.15681,1.26174zM57.32835,73.68634c1.01774,0.2285 2.01691,0.7712 2.77216,0.53276c0.77259,-0.24341 0.98802,-1.45299 1.48327,-2.21674c0.026,-0.03974 -0.00248,-0.11674 -0.00619,-0.1751c-1.66652,-0.08569 -3.0656,0.45452 -4.24925,1.85908zM25.34385,47.61579c-0.55097,0.72773 -1.07593,1.42939 -1.6108,2.12359c-0.14486,0.18752 -0.11019,0.32785 0.02352,0.50047c0.53239,0.688 1.05488,1.38468 1.58356,2.08137c0.78126,-1.60201 0.76021,-3.11336 0.00495,-4.70544zM38.35779,71.85706c0.45192,0.77989 0.88155,1.50639 1.29508,2.24281c0.11515,0.20491 0.2761,0.25955 0.47173,0.20988c0.83078,-0.21236 1.65785,-0.43714 2.54559,-0.67309c-1.19851,-1.31141 -2.53816,-1.93483 -4.31363,-1.7796z" vector-effect="non-scaling-stroke"/></g><defs><path id="path-17453841958821873" d="M49.76464,0.01252c2.30539,-0.10556 4.39535,0.46818 6.39492,1.32507c2.4193,1.03572 4.93764,1.39462 7.53523,1.40083c3.83943,0.00993 7.19722,1.26174 9.90996,4.02365c2.1791,2.21798 4.72469,3.82247 7.57485,5.02584c3.25132,1.37351 5.60004,3.72933 7.00036,6.98427c1.16755,2.71348 2.58644,5.23572 4.74078,7.31957c2.78454,2.69361 4.33715,6.00071 4.26287,9.91259c-0.06438,3.39651 0.8964,6.52602 2.04415,9.64683c1.09079,2.96434 0.98555,5.94731 -0.06067,8.91041c-0.23277,0.66067 -0.41725,1.34619 -0.71935,1.97457c-1.30746,2.71721 -1.09574,5.66416 -1.31489,8.54157c-0.2241,2.94199 -1.32232,5.49278 -3.23151,7.71449c-0.16591,0.19373 -0.33801,0.38374 -0.52001,0.56257c-2.22863,2.19438 -3.93476,4.72531 -5.11717,7.63997c-1.50061,3.69828 -4.29134,6.10254 -7.92772,7.59154c-2.2311,0.91402 -4.25296,2.13726 -5.93557,3.90071c-2.9876,3.13199 -6.60168,4.85943 -10.9797,4.72407c-3.06684,-0.09438 -5.87986,0.85689 -8.6904,1.90627c-3.1337,1.16984 -6.2872,1.17729 -9.43699,0.01987c-0.74659,-0.27445 -1.52785,-0.47067 -2.24225,-0.80846c-2.38958,-1.1301 -4.96364,-1.04069 -7.49437,-1.15245c-3.36027,-0.14778 -6.30701,-1.26298 -8.71517,-3.6039c-2.35491,-2.29001 -4.94631,-4.15902 -8.00077,-5.41206c-3.37761,-1.38593 -5.69414,-3.89077 -7.13779,-7.23016c-1.07965,-2.49864 -2.33387,-4.87185 -4.35449,-6.77688c-3.11512,-2.93578 -4.66649,-6.5906 -4.57611,-10.86635c0.06067,-2.87865 -0.67849,-5.53997 -1.72223,-8.1628c-1.34584,-3.38285 -1.44737,-6.81041 -0.02105,-10.16593c1.33841,-3.14689 1.76804,-6.41798 1.85347,-9.78965c0.07553,-2.98048 1.09203,-5.68403 3.13617,-7.82998c2.60502,-2.73335 4.67269,-5.74737 6.16834,-9.22957c1.21212,-2.82525 3.42466,-4.80106 6.20301,-6.11869c1.35079,-0.6408 2.70159,-1.28285 4.04248,-1.94352c1.3706,-0.67558 2.36111,-1.83548 3.44818,-2.85257c2.13453,-1.99692 4.44982,-3.62998 7.38913,-4.14411c0.9385,-0.16393 1.89805,-0.29681 2.84645,-0.2906c2.86874,0.01739 5.6149,-0.47936 8.26573,-1.60201c1.73833,-0.73643 3.55218,-1.23442 5.37842,-1.14004zM20.03849,13.75998c-0.33801,-0.29805 -0.60049,0.01242 -0.85678,0.13661c-2.56663,1.24311 -4.40649,3.18291 -5.50223,5.82685c-0.00619,0.07451 -0.01362,0.14902 -0.01981,0.22354c0.06438,-0.03229 0.12753,-0.06458 0.19191,-0.09687c1.33098,-0.4893 2.65949,-1.0233 4.08458,-1.12637c0.63021,-0.04595 0.77259,-0.31047 0.82954,-0.85068c0.15477,-1.45299 0.50516,-2.85506 1.27527,-4.12052c-0.01733,-0.03477 -0.03467,-0.06954 -0.052,-0.10308c0.0161,0.03726 0.03219,0.07327 0.04829,0.11053zM86.50849,80.12046c-0.08048,-0.03726 -0.182,-0.12667 -0.23772,-0.10308c-1.47461,0.60106 -2.96407,1.145 -4.57611,1.23318c-0.24391,0.01366 -0.31944,0.15151 -0.34296,0.36635c-0.17705,1.63678 -0.6364,3.20029 -1.39289,4.82963c1.27527,-0.52407 2.26948,-1.12762 3.19684,-1.85784c1.51299,-1.19219 2.44282,-2.81407 3.3318,-4.46576c-0.02724,-0.05092 -0.05324,-0.10183 -0.08295,-0.15151c0,0 -0.03219,0.01739 -0.04953,0.02608c0.05076,0.04098 0.10276,0.08196 0.15353,0.12294zM71.27707,49.95175c-0.3541,-11.88965 -9.20422,-21.1664 -21.36385,-21.13536c-11.91077,0.0298 -21.13356,9.24198 -21.09271,21.23347c0.04086,11.89337 9.19184,21.07947 21.14223,21.08692c12.17449,0.00745 20.98994,-9.31029 21.31433,-21.18379zM58.52066,95.42524c0.10153,-0.01118 0.47544,0.02484 0.78869,-0.09562c2.43663,-0.9314 4.29134,-2.55577 5.60995,-4.80727c0.1882,-0.32289 0.10276,-0.46198 -0.19067,-0.6495c-2.49606,-1.59828 -4.77297,-3.4971 -7.14027,-5.27297c-0.55839,-0.41851 -0.76764,-0.4508 -1.17127,0.20739c-1.55261,2.53714 -2.76597,5.28912 -4.72716,7.56795c-0.29715,0.34524 -0.28105,0.56132 0.11143,0.80473c1.99091,1.23566 4.06477,2.2217 6.71931,2.2453zM65.03444,9.66802c-0.09038,-0.15648 -0.182,-0.32413 -0.28105,-0.48681c-1.24308,-2.06026 -2.99007,-3.53436 -5.1927,-4.47445c-0.3541,-0.15151 -0.72183,-0.21981 -1.11431,-0.21236c-2.43415,0.0534 -4.5724,0.96617 -6.59549,2.23412c-0.41725,0.26203 -0.49773,0.534 -0.1201,0.89787c0.87783,0.84199 1.42013,1.91993 2.03053,2.94695c0.89393,1.50514 1.80395,3.00284 2.64464,4.53779c0.34296,0.6259 0.56582,0.71656 1.17127,0.25582c2.35491,-1.79326 4.64792,-3.67469 7.13779,-5.28539c0.15353,-0.09935 0.35534,-0.15275 0.31944,-0.41478zM28.91832,10.41811c-1.70242,0.0385 -3.47913,0.13536 -4.81136,1.2369c-1.98472,1.64299 -2.97893,3.93176 -3.35656,6.47883c-0.04581,0.3055 -0.06562,0.50544 0.36772,0.58368c3.00617,0.54642 5.93062,1.43808 8.88355,2.20556c0.60916,0.15896 0.67602,-0.07948 0.74164,-0.56257c0.33677,-2.46511 0.74783,-4.92028 1.01774,-7.39284c0.07553,-0.69917 0.85431,-1.55606 0.13248,-2.07019c-0.58563,-0.41851 -1.52289,-0.34772 -2.30663,-0.47439c-0.21791,-0.03601 -0.44573,-0.00497 -0.66859,-0.00497zM71.17802,10.41811c-0.99793,-0.05092 -1.96367,0.14281 -2.92445,0.3825c-0.33801,0.08445 -0.4482,0.19497 -0.35906,0.59237c0.66611,2.92708 0.91374,5.92123 1.35575,8.88433c0.11019,0.7414 0.35658,0.74388 0.96079,0.58119c2.54682,-0.688 5.09984,-1.35736 7.66523,-1.9696c1.51299,-0.36138 1.61328,-0.33282 1.17746,-1.8094c-0.85802,-2.90721 -1.97605,-5.65174 -5.42051,-6.37451c-0.81097,-0.17014 -1.62194,-0.33158 -2.45644,-0.28439zM89.60504,28.78907c-0.11019,-1.56848 -0.15848,-3.34187 -1.23193,-4.64459c-1.63309,-1.98202 -3.89762,-3.01898 -6.45063,-3.3754c-0.36153,-0.05092 -0.59801,-0.00497 -0.67106,0.43341c-0.49277,2.96186 -1.41518,5.8194 -2.13453,8.72537c-0.13496,0.54394 -0.09038,0.75754 0.55716,0.85192c2.95912,0.42844 5.943,0.70662 8.86993,1.34246c0.42963,0.09314 0.57201,-0.0385 0.66116,-0.3974c0.23153,-0.93264 0.36401,-1.8777 0.39991,-2.93453zM28.87127,89.54127c0.96698,0.00869 1.90919,-0.12419 2.83531,-0.38995c0.27486,-0.07824 0.54354,-0.08569 0.4383,-0.53897c-0.67354,-2.89604 -0.9385,-5.85789 -1.3347,-8.7974c-0.11019,-0.81963 -0.38382,-0.90408 -1.11927,-0.70911c-2.76721,0.73519 -5.51213,1.57345 -8.33382,2.07268c-0.65621,0.11549 -0.69954,0.35642 -0.56954,0.8631c0.05572,0.21609 0.07057,0.44211 0.12629,0.65819c0.76764,2.9631 2.35863,6.31738 6.14977,6.69119c0.60173,0.05961 1.2047,0.10059 1.80766,0.15027zM41.4172,95.45132c2.67311,-0.1304 4.77297,-0.8631 6.62397,-2.28504c0.21296,-0.16393 0.49154,-0.26203 0.21543,-0.6495c-1.77795,-2.4974 -3.17208,-5.23075 -4.75316,-7.84985c-0.29344,-0.48557 -0.47544,-0.51662 -0.91497,-0.17759c-1.91786,1.48155 -3.88771,2.89604 -5.78452,4.40367c-0.59554,0.47439 -1.7309,0.64329 -1.69995,1.44802c0.02972,0.79604 0.80478,1.49397 1.39908,2.11366c1.44984,1.51135 3.05569,2.78054 4.91164,2.99663zM41.58063,4.51551c-0.19067,0 -0.39868,-0.05092 -0.56954,0.00745c-2.60873,0.89663 -4.56497,2.58433 -5.93681,4.9712c-0.17458,0.30426 -0.03838,0.43093 0.21543,0.58989c2.53444,1.60201 4.82002,3.54429 7.2257,5.32389c0.50763,0.37504 0.69335,0.37132 1.03507,-0.19746c1.53775,-2.5657 2.90093,-5.23944 4.64297,-7.67723c0.33182,-0.46322 0.04581,-0.59361 -0.23153,-0.80597c-1.88319,-1.44429 -4.03257,-2.12235 -6.38006,-2.21177zM71.08268,89.4978c1.6628,0.08321 3.38751,-0.09438 4.66897,-1.07918c2.1271,-1.63306 3.14484,-4.03359 3.52494,-6.68498c0.04086,-0.28936 -0.02724,-0.45577 -0.37763,-0.51413c-3.01731,-0.50296 -5.92938,-1.44678 -8.88974,-2.18569c-0.6203,-0.15523 -0.65249,0.03229 -0.72059,0.53773c-0.33677,2.4974 -0.75649,4.98486 -1.05364,7.48598c-0.07924,0.66564 -0.74783,1.48031 -0.12629,1.9783c0.54973,0.43962 1.4387,0.44459 2.21005,0.46198c0.25505,0.00621 0.51011,0 0.76392,0zM10.41701,28.66364c0.03219,1.00964 0.13743,2.08386 0.42344,3.13448c0.08172,0.29805 0.18448,0.43093 0.58192,0.34151c2.88855,-0.65198 5.83776,-0.9314 8.76593,-1.33004c0.88402,-0.12046 0.82707,-0.44831 0.66364,-1.07422c-0.67602,-2.58557 -1.35575,-5.1699 -1.98595,-7.76789c-0.32067,-1.32259 -0.27486,-1.33377 -1.60461,-1.04317c-0.09286,0.01987 -0.19067,0.02608 -0.28105,0.05464c-3.04579,0.96121 -5.80928,2.22915 -6.34663,5.89887c-0.08295,0.56753 -0.13867,1.13879 -0.21667,1.78581zM10.41701,71.09952c0.14362,1.78456 0.20305,3.50828 1.28889,4.77747c1.66899,1.95222 3.92362,2.96931 6.46797,3.32945c0.43953,0.06209 0.53611,-0.13164 0.59801,-0.50047c0.48287,-2.86002 1.3347,-5.63187 2.08129,-8.42732c0.23772,-0.89166 -0.03095,-1.04317 -0.80478,-1.1537c-2.86007,-0.40982 -5.7449,-0.66192 -8.56783,-1.31141c-0.41601,-0.09562 -0.56954,0.05588 -0.66611,0.42224c-0.26001,0.99225 -0.34048,2.00562 -0.39744,2.86375zM95.42423,57.99533c-0.10648,-2.29125 -0.85059,-4.28693 -2.1791,-6.07149c-0.2142,-0.28811 -0.35287,-0.54518 -0.80602,-0.21857c-2.40568,1.72744 -5.03669,3.09349 -7.5798,4.5974c-0.64506,0.38125 -0.64754,0.59982 -0.2142,1.17729c1.77547,2.36948 3.68466,4.64335 5.25337,7.1631c0.31201,0.50171 0.56582,0.22105 0.84564,0.05464c1.94633,-1.15494 3.37389,-2.77682 4.33839,-4.82342c0.2922,-0.62093 0.47792,-1.24808 0.34048,-1.8777zM89.59637,71.09828c-0.01733,-0.96121 -0.16219,-1.90627 -0.38382,-2.84015c-0.08295,-0.35145 -0.20924,-0.54642 -0.65125,-0.44707c-2.89226,0.65695 -5.84643,0.92271 -8.77707,1.33501c-0.6723,0.09438 -0.82335,0.31047 -0.65497,0.95996c0.7404,2.86872 1.61699,5.7039 2.13329,8.6285c0.05076,0.2906 0.08543,0.55139 0.52125,0.47315c4.51792,-0.8097 7.86086,-2.83891 7.81381,-8.1094zM95.42547,41.99137c0.05572,-0.41478 0.08543,-0.83702 -0.06562,-1.23069c-0.93478,-2.44276 -2.5493,-4.30183 -4.80021,-5.62318c-0.33553,-0.19622 -0.47173,-0.12046 -0.66364,0.18504c-1.57861,2.5123 -3.48161,4.78989 -5.25708,7.15813c-0.44944,0.59982 -0.39249,0.79604 0.22905,1.16611c2.53816,1.51384 5.16546,2.88113 7.5798,4.59615c0.45811,0.32537 0.59801,0.05216 0.81097,-0.23471c1.32108,-1.78953 2.07015,-3.78521 2.16548,-6.01809zM4.58049,41.6275c0.08667,2.52844 0.84316,4.58746 2.21748,6.42294c0.17705,0.23595 0.29467,0.54518 0.72802,0.23471c2.46016,-1.76345 5.15432,-3.14689 7.74076,-4.70544c0.49525,-0.29805 0.5943,-0.46943 0.20058,-0.97362c-1.43127,-1.833 -2.76226,-3.74547 -4.22325,-5.55364c-0.53735,-0.66564 -0.6983,-1.96836 -1.64423,-1.89882c-0.87412,0.06458 -1.61575,0.94258 -2.30787,1.60822c-0.92612,0.89166 -1.66404,1.92365 -2.24225,3.07238c-0.32067,0.63584 -0.55592,1.28782 -0.46925,1.79326zM7.20408,51.45813c-0.13124,0.14033 -0.26744,0.26576 -0.3801,0.41106c-0.80973,1.03944 -1.40899,2.19562 -1.7829,3.45612c-0.38258,1.29154 -0.76269,2.67002 -0.31944,3.94914c0.82954,2.39308 2.46387,4.20372 4.65783,5.49154c0.32191,0.18876 0.52373,0.23471 0.75897,-0.1453c1.56499,-2.52099 3.47913,-4.7874 5.25089,-7.15813c0.46801,-0.62714 0.32563,-0.82087 -0.25877,-1.17108c-2.53444,-1.51881 -5.15679,-2.89107 -7.58228,-4.58995c-0.104,-0.07203 -0.20677,-0.14654 -0.3442,-0.24465zM55.18887,82.87244c-0.14115,-0.12667 -0.26867,-0.26203 -0.41725,-0.36883c-1.49194,-1.07918 -2.9975,-2.14098 -4.47459,-3.24128c-0.33182,-0.24837 -0.52497,-0.18628 -0.81345,0.03353c-1.41642,1.08663 -2.84026,2.16458 -4.28144,3.21892c-0.33058,0.24216 -0.35906,0.43217 -0.15848,0.76623c1.47213,2.46138 2.93807,4.92649 4.39163,7.39905c0.33553,0.57002 0.58935,0.61472 0.95459,0.0149c1.50308,-2.46387 3.02969,-4.91159 4.5464,-7.36676c0.08295,-0.13412 0.15353,-0.27694 0.25134,-0.45577zM49.84388,8.55158c-1.64918,2.80414 -3.23646,5.51762 -4.84726,8.21744c-0.22905,0.38498 0.01733,0.50668 0.23772,0.67309c1.42013,1.07546 2.84769,2.1385 4.26039,3.22389c0.29096,0.22354 0.48906,0.26576 0.81221,0.02608c1.44861,-1.07794 2.91455,-2.13353 4.39287,-3.16801c0.42468,-0.29681 0.46182,-0.52034 0.20181,-0.98729c-1.37184,-2.46262 -3.02474,-4.74642 -4.4622,-7.16558c-0.14362,-0.24216 -0.33182,-0.45949 -0.59554,-0.81963zM20.66126,20.7964c0.79735,3.10715 1.57366,6.09385 2.32149,9.08675c0.104,0.41354 0.27363,0.48557 0.66364,0.4272c1.72842,-0.26079 3.46056,-0.50171 5.19394,-0.72898c0.43706,-0.05713 0.64754,-0.1987 0.70697,-0.69172c0.20181,-1.67528 0.4482,-3.34684 0.7243,-5.01218c0.09905,-0.59485 -0.08667,-0.84199 -0.65621,-0.98108c-2.31158,-0.56505 -4.61573,-1.16487 -6.92112,-1.756c-0.60916,-0.15648 -1.20965,-0.35642 -2.033,-0.344zM78.75163,20.80013c-0.05448,0.01242 -0.20924,0.04595 -0.36277,0.08569c-2.71026,0.68675 -5.41804,1.38717 -8.13448,2.05032c-0.55592,0.13536 -0.5844,0.4359 -0.51382,0.89415c0.25629,1.67031 0.52249,3.34063 0.71687,5.01963c0.06314,0.54891 0.31201,0.67806 0.7763,0.73643c1.35699,0.17386 2.70902,0.38498 4.06477,0.56753c1.60832,0.21733 1.61823,0.2136 2.01319,-1.33873c0.62897,-2.47008 1.24679,-4.94139 1.85843,-7.4152c0.06562,-0.26576 0.30582,-0.67806 -0.41972,-0.59982zM20.9386,49.97907c-0.11019,-0.17138 -0.18572,-0.30923 -0.27982,-0.43465c-1.06974,-1.42939 -2.14939,-2.85133 -3.20798,-4.28941c-0.2402,-0.32661 -0.4383,-0.34897 -0.7825,-0.14157c-2.42425,1.46168 -4.85098,2.92087 -7.29875,4.34033c-0.77754,0.4508 -0.55097,0.71656 0.04581,1.06801c2.41187,1.4207 4.82002,2.84512 7.2158,4.29314c0.3863,0.23347 0.58811,0.19373 0.84935,-0.16393c1.05612,-1.43933 2.14072,-2.85878 3.2117,-4.28693c0.09162,-0.1217 0.16591,-0.25707 0.24639,-0.38498zM76.38681,69.65275c-1.82747,0.25955 -3.5299,0.49551 -5.23108,0.75009c-0.28725,0.04222 -0.61535,0.00373 -0.67602,0.48681c-0.22286,1.80568 -0.49525,3.60514 -0.7503,5.40585c-0.0421,0.30177 -0.04829,0.56629 0.33925,0.66316c2.86997,0.7178 5.73747,1.44429 8.60621,2.16458c0.59554,0.14902 0.61782,-0.11922 0.4903,-0.61224c-0.72059,-2.77806 -1.43251,-5.5586 -2.10729,-8.3466c-0.12381,-0.51289 -0.3442,-0.6259 -0.67106,-0.51165zM65.80084,88.21744c0.12257,-0.26949 0.18448,-0.35269 0.1981,-0.44211c0.44449,-2.99166 0.87164,-5.98705 1.33841,-8.97622c0.08048,-0.51786 -0.27239,-0.51538 -0.53982,-0.58616c-1.68757,-0.44831 -3.38627,-0.85565 -5.07012,-1.31638c-0.42096,-0.11549 -0.63021,-0.02484 -0.83697,0.34276c-0.52868,0.94382 -1.11431,1.85411 -1.63804,2.80041c-0.41353,0.74512 -1.29632,1.50639 -1.12546,2.21674c0.15105,0.63211 1.17374,1.06552 1.82995,1.56227c1.92281,1.45671 3.85428,2.90225 5.84395,4.39746zM76.91302,38.55512c-0.10772,0.22229 0.04333,0.39988 0.28848,0.54518c1.58975,0.93761 3.18322,1.8715 4.76554,2.82152c0.27239,0.16268 0.43211,0.15648 0.63021,-0.11053c1.747,-2.35831 3.50513,-4.70668 5.26203,-7.05754c0.3541,-0.47439 0.26744,-0.68675 -0.34915,-0.77368c-2.8675,-0.40485 -5.73004,-0.84571 -8.59507,-1.27167c-0.25629,-0.0385 -0.4903,-0.06458 -0.58068,0.30177c-0.45439,1.8243 -0.93107,3.64364 -1.42137,5.54618zM67.3584,21.29936c-0.44696,-3.06741 -0.86669,-6.00071 -1.30622,-8.93028c-0.11886,-0.78983 -0.5522,-0.38746 -0.85678,-0.1602c-2.27444,1.6877 -4.53278,3.39651 -6.80969,5.08297c-0.34668,0.25707 -0.42468,0.45701 -0.18448,0.85192c0.91002,1.49397 1.79528,3.00408 2.66445,4.52164c0.20429,0.35517 0.40858,0.51289 0.82954,0.39988c1.71852,-0.45949 3.44075,-0.90035 5.16422,-1.34246c0.29715,-0.07575 0.56582,-0.15648 0.49896,-0.42348zM88.33596,65.79302c-2.00824,-2.6725 -3.88771,-5.1612 -5.74862,-7.66357c-0.25753,-0.34524 -0.45068,-0.18876 -0.70449,-0.03726c-1.50432,0.89415 -3.00493,1.79574 -4.52782,2.65884c-0.4123,0.23347 -0.50268,0.47191 -0.37639,0.91774c0.33925,1.19592 0.63392,2.40302 0.94221,3.60763c0.50516,1.97209 0.51011,2.01431 2.5394,1.72496c2.54559,-0.36387 5.10974,-0.61969 7.87572,-1.20834zM30.29883,76.41845c-0.26991,-1.91496 -0.53735,-3.74423 -0.7763,-5.57723c-0.05572,-0.42224 -0.35287,-0.39616 -0.6203,-0.43465c-1.7309,-0.24713 -3.46551,-0.47688 -5.19517,-0.7327c-0.40487,-0.05961 -0.61906,-0.02235 -0.73668,0.45701c-0.66735,2.71969 -1.3607,5.43317 -2.08253,8.13796c-0.22039,0.82833 0.05572,1.00591 0.80478,0.81094c2.7053,-0.70166 5.41185,-1.40083 8.1221,-2.0851c0.38134,-0.09562 0.56582,-0.25955 0.48411,-0.57747zM23.09294,38.50793c-0.46058,-1.78332 -0.94964,-3.66227 -1.42632,-5.54494c-0.07924,-0.31419 -0.28105,-0.28811 -0.51011,-0.25458c-2.86131,0.42224 -5.72014,0.86434 -8.58516,1.25305c-0.77011,0.10432 -0.73916,0.36263 -0.35163,0.88048c1.72223,2.29249 3.44075,4.58746 5.14194,6.8961c0.24886,0.33655 0.4383,0.33903 0.77135,0.13785c1.52289,-0.92147 3.06188,-1.81685 4.58973,-2.73087c0.19686,-0.11798 0.52125,-0.17386 0.3702,-0.63708zM38.44693,23.08144c0.30953,0.11301 0.48906,-0.04843 0.65497,-0.33655c0.89516,-1.54488 1.79776,-3.08604 2.72016,-4.61602c0.20553,-0.34151 0.1882,-0.55139 -0.13743,-0.79355c-2.30415,-1.71129 -4.60211,-3.43128 -6.89388,-5.15996c-0.49525,-0.3738 -0.76392,-0.3353 -0.85678,0.33034c-0.39496,2.84636 -0.79735,5.69148 -1.2146,8.53536c-0.04953,0.33406 -0.02972,0.56257 0.33306,0.65446c1.78909,0.45825 3.57694,0.91774 5.39451,1.38468zM34.18283,88.246c2.57654,-1.93607 5.05898,-3.81129 7.55752,-5.66789c0.38258,-0.28439 0.21791,-0.51786 0.052,-0.79976c-0.89145,-1.50514 -1.79281,-3.00532 -2.66073,-4.52413c-0.20801,-0.36511 -0.39744,-0.48557 -0.82459,-0.36883c-1.68261,0.46322 -3.37637,0.88918 -5.06889,1.31886c-0.4222,0.1068 -0.60668,0.25831 -0.52125,0.77368c0.26496,1.60201 0.41725,3.22265 0.67973,4.82466c0.23401,1.43063 0.28229,2.89852 0.78621,4.4434zM11.83838,65.89858c3.14236,0.44831 6.22158,0.88421 9.29956,1.33377c0.45315,0.06582 0.52125,-0.20242 0.60421,-0.53525c0.41972,-1.67031 0.82583,-3.34559 1.2926,-5.00349c0.14362,-0.51165 -0.00248,-0.73519 -0.42468,-0.97611c-1.4387,-0.81839 -2.87121,-1.65168 -4.27649,-2.5272c-0.50392,-0.31419 -0.76145,-0.28936 -1.12793,0.21733c-1.38422,1.91372 -2.82912,3.78273 -4.24306,5.67658c-0.39496,0.52904 -0.84316,1.03075 -1.12546,1.81437zM83.03183,54.99994c0.08543,-0.04222 0.17581,-0.07824 0.25753,-0.12667c2.51092,-1.50142 5.0206,-3.00656 7.53399,-4.5055c0.75526,-0.44956 0.19191,-0.67806 -0.15972,-0.88918c-2.42673,-1.45671 -4.86831,-2.88983 -7.29132,-4.35523c-0.39868,-0.24092 -0.59306,-0.15523 -0.84688,0.19125c-1.03631,1.41449 -2.08624,2.82028 -3.1597,4.20621c-0.26372,0.34027 -0.26991,0.56008 -0.00495,0.90284c1.07345,1.38593 2.11224,2.79917 3.1696,4.19752c0.12753,0.16765 0.21791,0.40609 0.50144,0.37877zM77.76361,48.17836c0.09905,-0.10804 0.1882,-0.19125 0.26001,-0.28563c0.93974,-1.24559 1.86586,-2.49988 2.81921,-3.7343c0.27486,-0.35517 0.08791,-0.47564 -0.19439,-0.63956c-1.29013,-0.75133 -2.58397,-1.49645 -3.85305,-2.28131c-0.46801,-0.28936 -0.53611,-0.09066 -0.66116,0.3204c-0.65951,2.16747 -0.30912,4.15405 1.05117,5.95973c0.11515,0.15275 0.22905,0.3055 0.35163,0.45204c0.05572,0.06706 0.12877,0.11922 0.22658,0.20863zM56.28708,18.93608c-1.51794,0.96742 -2.73997,2.20804 -4.26658,3.02022c-0.37268,0.1987 -0.32191,0.44335 0.01857,0.61224c1.00783,0.49799 1.81262,1.27664 2.71397,1.92241c0.25753,0.18504 0.47915,0.23844 0.78869,0.15275c1.01031,-0.28066 2.02681,-0.5427 3.04826,-0.78486c0.37763,-0.08941 0.48411,-0.20615 0.26372,-0.57374c-0.86669,-1.44181 -1.71233,-2.89728 -2.56663,-4.34902zM56.27594,81.03447c0.86297,-1.4654 1.70118,-2.92212 2.57654,-4.35772c0.23153,-0.37877 0.10029,-0.49923 -0.24143,-0.58616c-1.04374,-0.267 -2.08748,-0.53773 -3.13246,-0.80101c-0.21915,-0.05464 -0.42963,-0.04595 -0.63144,0.10432c-1.03755,0.76872 -2.01567,1.6194 -3.27237,2.28628c1.72595,1.00219 3.12503,2.24406 4.70116,3.35429zM76.29643,58.99379c1.51051,-0.89042 2.95664,-1.74607 4.40649,-2.59426c0.25382,-0.14902 0.39372,-0.27197 0.15848,-0.57871c-0.94964,-1.23814 -1.877,-2.49367 -2.8155,-3.74051c-0.13248,-0.17635 -0.2761,-0.4123 -0.50763,-0.10556c-0.72802,0.96742 -1.44984,1.93856 -2.17291,2.9097c-0.13867,0.18504 -0.02724,0.36138 0.01981,0.5427c0.29963,1.16239 0.5943,2.32602 0.91126,3.56665zM48.19717,77.68515c-1.03507,-0.78238 -1.97605,-1.489 -2.91083,-2.20307c-0.21172,-0.16144 -0.42344,-0.27818 -0.69954,-0.20739c-1.07593,0.27569 -2.1531,0.55015 -3.23027,0.82336c-0.31201,0.07948 -0.41106,0.20242 -0.21543,0.52779c0.87659,1.45547 1.72966,2.92584 2.60997,4.42105c1.50432,-1.13879 2.92445,-2.21301 4.44611,-3.36422zM67.93413,70.85363c-1.10565,0.14902 -2.17415,0.29681 -3.24389,0.4359c-0.24763,0.03229 -0.3962,0.18007 -0.51382,0.37877c-0.54725,0.93016 -1.08707,1.86653 -1.64671,2.78924c-0.20305,0.3353 -0.15848,0.50917 0.23153,0.60727c1.47461,0.3738 2.94798,0.7563 4.42011,1.14376c0.35287,0.09314 0.52868,-0.00621 0.57944,-0.38498c0.19439,-1.48155 0.40239,-2.96186 0.61163,-4.44216c0.05324,-0.37629 0.02105,-0.65571 -0.43706,-0.52779zM74.99764,37.7802c0.43706,-1.71626 0.83573,-3.31951 1.26041,-4.91531c0.09038,-0.33903 0.10896,-0.52158 -0.31944,-0.57499c-1.51423,-0.18876 -3.02722,-0.39119 -4.53649,-0.62466c-0.44696,-0.06954 -0.56582,0.03477 -0.49154,0.47688c0.16962,1.00467 0.31077,2.01555 0.45811,3.02395c0.0421,0.28563 0.07553,0.54766 0.37268,0.7178c1.04622,0.59485 2.08129,1.20958 3.25503,1.89633zM28.73013,31.64288c-1.62442,0.22975 -3.09655,0.46943 -4.57735,0.63335c-0.5943,0.06582 -0.45439,0.38125 -0.36896,0.71283c0.3541,1.38468 0.74535,2.75943 1.06231,4.15157c0.12134,0.53276 0.24391,0.56505 0.73173,0.33903c2.05653,-0.95251 3.71933,-2.14843 3.42094,-4.78244c-0.01733,-0.15027 0.05695,-0.31171 0.08667,-0.46818c0.07924,-0.40733 0.06314,-0.72898 -0.3541,-0.5874zM43.74611,18.90628c-0.87412,1.48527 -1.72595,2.93081 -2.57406,4.37883c-0.104,0.17759 -0.32067,0.41975 0.04953,0.5191c1.16508,0.31295 2.33758,0.59485 3.50637,0.88794c0.21296,0.0534 0.3541,-0.07824 0.50639,-0.19497c0.83573,-0.63459 1.66776,-1.2754 2.51835,-1.88764c0.34544,-0.24837 0.39991,-0.40609 0.02105,-0.68427c-1.33222,-0.97611 -2.64587,-1.97954 -4.02886,-3.01898zM74.99268,62.16428c-1.2307,0.72773 -2.59387,1.17853 -3.39494,2.11366c-0.71068,0.83081 -0.43706,2.25896 -0.64878,3.41514c-0.01114,0.06209 -0.02848,0.12419 -0.04333,0.18628c-0.09657,0.39367 0.052,0.49675 0.44077,0.4359c1.6628,-0.25831 3.32808,-0.49551 5.03793,-0.74636c-0.46306,-1.79947 -0.91374,-3.5505 -1.39165,-5.40461zM32.03344,70.8437c-0.36525,-0.14281 -0.45934,0.08569 -0.39868,0.50047c0.2142,1.48155 0.42592,2.96434 0.62525,4.44837c0.05819,0.42969 0.26991,0.50544 0.65373,0.40237c1.44118,-0.38498 2.88607,-0.76127 4.33344,-1.12513c0.36896,-0.09314 0.47544,-0.22602 0.26001,-0.58119c-0.56211,-0.92395 -1.10688,-1.85784 -1.64918,-2.7942c-0.13867,-0.24092 -0.31944,-0.37753 -0.59678,-0.41354c-1.04003,-0.13536 -2.07881,-0.2819 -3.22779,-0.43838zM37.74244,25.02497c-1.70366,-0.44459 -3.33551,-0.85813 -4.95869,-1.30148c-0.35658,-0.09687 -0.46058,0.03229 -0.50392,0.33779c-0.21667,1.54861 -0.43458,3.09598 -0.65249,4.64335c-0.04457,0.31543 0.03714,0.4272 0.40487,0.40733c2.21501,-0.11798 4.30001,-0.41603 5.08993,-2.98545c0.10896,-0.35642 0.36896,-0.66564 0.61906,-1.10154zM29.11023,67.934c-0.16219,-1.10775 -0.32315,-2.20804 -0.48658,-3.30834c-0.03343,-0.22229 -0.10153,-0.40237 -0.33058,-0.53276c-0.9645,-0.54891 -1.91414,-1.12141 -2.86626,-1.68894c-0.25505,-0.15151 -0.41972,-0.2285 -0.51877,0.1838c-0.36277,1.51135 -0.75526,3.01526 -1.15393,4.51792c-0.09162,0.34524 -0.0421,0.48805 0.34791,0.54021c1.53899,0.20615 3.0755,0.44086 4.61078,0.67806c0.34296,0.0534 0.48287,-0.04719 0.39744,-0.38995zM62.31304,25.02248c1.19851,2.39018 3.07344,3.74547 5.6248,4.06588c0.12134,0.0149 0.24267,0.0298 0.49773,0.05961c-0.23896,-1.74855 -0.47296,-3.4437 -0.70326,-5.13885c-0.03838,-0.27818 -0.15972,-0.37132 -0.44944,-0.29432c-1.65042,0.44211 -3.30456,0.87179 -4.97107,1.30769zM23.72067,58.99255c0.32067,-1.24435 0.60173,-2.38687 0.91497,-3.5207c0.08419,-0.30426 0.07924,-0.54145 -0.11762,-0.79852c-0.64011,-0.83329 -1.28022,-1.66783 -1.8869,-2.52472c-0.31696,-0.44707 -0.49896,-0.30302 -0.75649,0.04843c-0.86669,1.18102 -1.74452,2.35458 -2.63968,3.51449c-0.24639,0.31916 -0.27734,0.49551 0.11515,0.71904c1.43251,0.81715 2.84893,1.66535 4.37058,2.56197zM22.27578,48.25535c0.79364,-1.05807 1.51299,-2.02176 2.23853,-2.98173c0.13991,-0.18504 0.24515,-0.36263 0.17829,-0.60976c-0.32563,-1.20585 -0.6463,-2.41419 -0.98926,-3.70077c-1.52042,0.89911 -2.93931,1.73737 -4.3582,2.57812c-0.21791,0.12915 -0.46677,0.22105 -0.20429,0.56257c1.04003,1.35488 2.06024,2.7259 3.1337,4.15157zM54.74438,96.92542c-1.68633,-0.68924 -3.21046,-1.24187 -4.46097,-2.31857c-0.19562,-0.16765 -0.36153,-0.3353 -0.63516,-0.09811c-1.23813,1.06925 -2.68178,1.79202 -4.36192,2.40302c3.21789,1.37226 6.24387,1.30024 9.45804,0.01366zM54.72828,3.0054c-3.18446,-1.24559 -6.23396,-1.37847 -9.41223,0.03726c1.62194,0.5874 3.02845,1.30148 4.25048,2.33968c0.21543,0.18255 0.38753,0.27321 0.64135,0.0385c1.26165,-1.16611 2.86997,-1.69639 4.5204,-2.41543zM95.16546,36.34708c-0.026,-3.4673 -1.13041,-6.22797 -3.59923,-8.62726c0.10896,1.7945 -0.00371,3.37167 -0.50763,4.89172c-0.15724,0.47564 0.15848,0.53525 0.42096,0.68427c1.33718,0.75754 2.52454,1.70012 3.68714,3.05127zM8.45582,72.2644c-0.10276,-1.81934 0.00619,-3.42756 0.52373,-4.98362c0.08791,-0.26328 0,-0.39988 -0.23772,-0.52655c-1.44242,-0.76375 -2.69168,-1.78084 -3.88276,-3.10715c0.00743,3.39775 1.12669,6.16215 3.59552,8.61608zM91.5489,72.28054c2.46758,-2.47008 3.60542,-5.20715 3.61161,-8.64961c-1.20841,1.34122 -2.43663,2.37694 -3.88152,3.12082c-0.36772,0.18876 -0.25258,0.41354 -0.16962,0.70911c0.41725,1.48403 0.59059,2.99787 0.43953,4.81969zM4.85535,36.32969c1.22946,-1.32507 2.40939,-2.38315 3.85181,-3.10591c0.20924,-0.10556 0.39001,-0.23223 0.28848,-0.51538c-0.56582,-1.56724 -0.60049,-3.20775 -0.57325,-4.9712c-2.43787,2.38439 -3.54475,5.15624 -3.56704,8.59249zM36.28764,4.82722c-3.45437,-0.00621 -6.17453,1.1301 -8.54926,3.55671c1.72099,-0.09811 3.22779,0.06334 4.70364,0.49054c0.32191,0.09314 0.58192,0.14157 0.78373,-0.25582c0.71564,-1.40207 1.72471,-2.58309 3.06065,-3.79142zM3.07988,45.31089c-1.28517,3.18663 -1.30994,6.1311 0.00867,9.30905c0.61287,-1.72744 1.3607,-3.14938 2.41311,-4.39125c0.14981,-0.17759 0.13496,-0.33282 -0.00867,-0.50544c-1.03879,-1.25305 -1.79281,-2.67126 -2.41311,-4.41236zM13.54823,79.91927c1.29879,3.1531 3.38132,5.2233 6.54349,6.53471c-0.78745,-1.61815 -1.24184,-3.12578 -1.38794,-4.71413c-0.026,-0.28687 -0.11143,-0.47439 -0.44449,-0.49426c-1.59347,-0.09562 -3.07427,-0.63832 -4.71231,-1.32507zM96.94465,54.61248c1.3087,-3.17049 1.31489,-6.14601 -0.01362,-9.29414c-0.56954,1.68646 -1.33718,3.10095 -2.3673,4.3602c-0.16715,0.20367 -0.19439,0.35393 -0.01238,0.57499c1.03507,1.25553 1.77795,2.68368 2.3933,4.35896zM36.23936,95.10484c-0.87164,-0.79355 -1.64918,-1.40207 -1.99833,-2.21798c-0.76269,-1.78208 -1.93271,-2.06647 -3.61409,-1.44057c-0.86421,0.32164 -1.83614,0.06085 -2.84769,0.19994c2.3512,2.31608 5.02184,3.48841 8.45887,3.4586zM86.46887,20.05998c-1.32232,-3.23879 -3.69457,-5.58717 -6.43825,-6.42419c0.66487,1.50514 1.1465,3.00532 1.2926,4.59243c0.02724,0.29308 0.13619,0.42844 0.45811,0.45825c1.58604,0.14778 3.09284,0.59982 4.6863,1.37351zM72.11157,8.35288c-1.72595,-2.25772 -6.04081,-3.99509 -8.1902,-3.3605c1.12917,1.00467 2.07757,2.14967 2.78702,3.47972c0.20553,0.38498 0.38877,0.56753 0.87783,0.41106c1.43127,-0.45577 2.91331,-0.57995 4.52411,-0.53028zM72.32824,91.55185c-1.79528,0.1068 -3.33799,-0.03105 -4.84231,-0.50296c-0.25382,-0.07948 -0.48411,-0.11549 -0.64259,0.1987c-0.71935,1.42442 -1.75319,2.61413 -3.03341,3.84855c3.4197,0.05464 6.09034,-1.14252 8.51707,-3.54429zM71.89489,38.36139c-0.08295,1.78953 0.48039,3.2152 1.82995,4.35399c0.21172,-0.82833 0.39991,-1.63306 0.62773,-2.42661c0.08295,-0.2906 0.05819,-0.47191 -0.21667,-0.62714c-0.7404,-0.41727 -1.47089,-0.85192 -2.24101,-1.30024zM42.71104,26.33017c-0.90259,-0.24837 -1.74452,-0.47936 -2.58768,-0.71035c-0.21667,-0.05961 -0.35534,0.03105 -0.4643,0.22229c-0.4383,0.76747 -0.8865,1.52874 -1.35575,2.3372c1.7342,-0.17303 3.20386,-0.78941 4.40896,-1.84914zM34.21502,69.09142c-0.5844,-1.6877 -1.67023,-2.78924 -3.29589,-3.34808c0.05613,1.90917 0.97358,2.99042 2.75235,3.24376c0.156,0.02235 0.30953,0.05837 0.54354,0.10432zM69.09302,65.72844c-1.61699,0.63087 -2.75111,1.6728 -3.27237,3.31951c2.03961,-0.22271 3.14319,-1.27705 3.31075,-3.16304c0.00248,-0.0298 -0.01486,-0.06085 -0.03838,-0.15523zM47.58554,25.3106c1.63804,0.92022 3.18817,0.71035 4.74326,0.05216c-0.6884,-0.51289 -1.35699,-0.99846 -2.00948,-1.5039c-0.24763,-0.19125 -0.44077,-0.30798 -0.74288,-0.06334c-0.63516,0.51538 -1.30127,0.99349 -1.99091,1.51508zM73.69389,57.24027c-1.32356,1.17108 -1.88319,2.59178 -1.81757,4.26706c2.60625,-1.03572 2.67435,-1.16239 1.99214,-3.75914c-0.03962,-0.15275 -0.10276,-0.30053 -0.17458,-0.50792zM28.12221,38.41106c-1.78455,0.90491 -2.40939,2.266 -1.87452,4.08326c0.02105,0.07203 0.06438,0.13785 0.09657,0.20367c1.2827,-1.145 1.87205,-2.54583 1.77671,-4.28693zM65.87389,30.95985c0.53487,1.66907 1.63556,2.68119 3.29341,3.2686c-0.13248,-0.89663 -0.26124,-1.71378 -0.3702,-2.53217c-0.03343,-0.25086 -0.104,-0.43217 -0.38134,-0.45577c-0.83945,-0.07203 -1.66156,-0.34276 -2.54187,-0.27942zM34.16178,30.90149c-0.89145,0.11549 -1.72347,0.22478 -2.55425,0.33282c-0.25877,0.03353 -0.35782,0.1751 -0.39001,0.44086c-0.10153,0.83826 -0.23524,1.6728 -0.36401,2.55701c1.64918,-0.58492 2.75854,-1.59704 3.30703,-3.33069zM74.68191,52.34483c0.5423,-0.72028 1.02393,-1.35239 1.49318,-1.99071c0.12134,-0.16517 0.33306,-0.31792 0.13372,-0.57995c-0.54478,-0.71283 -1.07841,-1.43312 -1.63185,-2.17203c-0.77011,1.63678 -0.77259,3.13199 0.00495,4.7427zM61.73236,28.19546c-0.47792,-0.81467 -0.89393,-1.52253 -1.30994,-2.22915c-0.09286,-0.15896 -0.15724,-0.40733 -0.38877,-0.35269c-0.89269,0.2136 -1.77795,0.45825 -2.76226,0.7178c1.2373,1.02992 2.72429,1.65168 4.46097,1.86529zM47.53354,74.61774c0.81345,0.5961 1.52289,1.47286 2.35615,1.61443c0.70202,0.11922 1.35203,-0.89539 2.05529,-1.36606c0.14734,-0.09935 0.29344,-0.20118 0.38134,-0.26079c-1.5328,-0.74388 -3.1176,-0.80721 -4.79278,0.01242zM28.11973,61.59675c0.08295,-1.81685 -0.49649,-3.22265 -1.82376,-4.37138c-0.21172,0.82957 -0.39991,1.62933 -0.62525,2.41668c-0.09781,0.34151 -0.00619,0.52531 0.2922,0.69172c0.68964,0.38374 1.36318,0.7948 2.15681,1.26174zM57.32835,73.68634c1.01774,0.2285 2.01691,0.7712 2.77216,0.53276c0.77259,-0.24341 0.98802,-1.45299 1.48327,-2.21674c0.026,-0.03974 -0.00248,-0.11674 -0.00619,-0.1751c-1.66652,-0.08569 -3.0656,0.45452 -4.24925,1.85908zM25.34385,47.61579c-0.55097,0.72773 -1.07593,1.42939 -1.6108,2.12359c-0.14486,0.18752 -0.11019,0.32785 0.02352,0.50047c0.53239,0.688 1.05488,1.38468 1.58356,2.08137c0.78126,-1.60201 0.76021,-3.11336 0.00495,-4.70544zM38.35779,71.85706c0.45192,0.77989 0.88155,1.50639 1.29508,2.24281c0.11515,0.20491 0.2761,0.25955 0.47173,0.20988c0.83078,-0.21236 1.65785,-0.43714 2.54559,-0.67309c-1.19851,-1.31141 -2.53816,-1.93483 -4.31363,-1.7796z" vector-effect="non-scaling-stroke"/></defs></g></svg>