<svg version="1.2" xmlns="http://www.w3.org/2000/svg" xmlns:xlink="http://www.w3.org/1999/xlink" overflow="visible" preserveAspectRatio="none" viewBox="0 0 20.00001398423086 19.999996944983195" width="20.00001398423086" height="19.999996944983195"><g transform="translate(0, 0)"><g transform="translate(0.00000999999999669321, -0.00004000000000425885) rotate(0)"><path style="stroke-width: 0; stroke-linecap: butt; stroke-linejoin: miter; fill: rgb(154, 207, 33);" d="M4.37064,0.00419c0.70467,0.14229 1.19542,0.61939 1.68198,1.08812c0.69628,0.66961 1.38417,1.35597 2.05948,2.04651c0.89762,0.91653 0.94795,2.06325 0.13842,2.98397c-0.17617,0.20088 -0.37331,0.38503 -0.56625,0.57336c-0.31039,0.30133 -0.62917,0.5901 -0.93537,0.89561c-0.03775,0.03767 -0.04614,0.15066 -0.02097,0.1967c0.302,0.51895 0.57045,1.05883 0.92698,1.53593c1.12412,1.515 2.47054,2.79982 4.098,3.77495c0.17197,0.10463 0.35653,0.19251 0.54109,0.26785c0.05033,0.02093 0.14681,-0.01674 0.18875,-0.05859c0.42784,-0.41432 0.83889,-0.8412 1.26673,-1.25553c0.35653,-0.34736 0.76339,-0.61939 1.25834,-0.71983c0.66692,-0.13811 1.25834,0.05022 1.73651,0.51058c0.92698,0.89142 1.84557,1.79959 2.73479,2.72868c0.82212,0.86213 0.57464,2.07162 -0.0755,2.79145c-0.26425,0.29714 -0.56625,0.5608 -0.85148,0.83702c-0.16778,0.16322 -0.34814,0.31807 -0.49495,0.49803c-0.88084,1.08394 -2.03432,1.42293 -3.38074,1.2639c-1.69037,-0.20088 -3.20457,-0.88305 -4.66006,-1.70752c-3.72469,-2.1051 -6.57693,-5.05977 -8.60286,-8.81379c-0.58303,-1.07975 -1.0612,-2.20973 -1.31287,-3.4234c-0.03356,-0.16322 -0.06711,-0.33062 -0.10067,-0.49384c0,-0.45617 0,-0.91235 0,-1.37271c0.01258,-0.0293 0.02936,-0.05859 0.03775,-0.08789c0.151,-0.7868 0.50753,-1.45641 1.10315,-2.00047c0.39009,-0.35992 0.77178,-0.72402 1.14509,-1.09649c0.43622,-0.43943 0.89762,-0.83283 1.52679,-0.96675h0.54948zM1.25834,4.77518c0,0.74913 0.13003,1.41456 0.34814,2.05906c0.47398,1.42293 1.19123,2.72449 2.03851,3.95072c2.30696,3.32714 5.27245,5.85494 9.03489,7.41597c0.89762,0.37247 1.82459,0.64032 2.81449,0.60265c0.56625,-0.02093 1.07378,-0.20088 1.48065,-0.61521c0.49914,-0.51058 1.00248,-1.01279 1.51001,-1.51082c0.51173,-0.5064 0.52011,-0.97931 0.01258,-1.48989c-0.58303,-0.58173 -1.16606,-1.16345 -1.74909,-1.74518c-0.22231,-0.22181 -0.44042,-0.4478 -0.66692,-0.66124c-0.43622,-0.40595 -0.86406,-0.40177 -1.30029,0.00837c-0.04614,0.04604 -0.09228,0.09207 -0.13842,0.13811c-0.47817,0.4771 -0.95214,0.9542 -1.43031,1.42711c-0.32717,0.32225 -0.70467,0.41014 -1.05281,0.22599c-0.41106,-0.22181 -0.82212,-0.45199 -1.2164,-0.70728c-1.51001,-0.97931 -2.8061,-2.20136 -3.947,-3.58243c-0.56625,-0.68635 -1.04023,-1.43548 -1.39676,-2.25576c-0.19714,-0.45199 -0.11745,-0.89979 0.20972,-1.20949c0.50753,-0.48128 1.01087,-0.96257 1.5142,-1.44804c0.46139,-0.44362 0.48236,-0.83702 0.02936,-1.30156c-0.62917,-0.6445 -1.27092,-1.27645 -1.91687,-1.90421c-0.25167,-0.24692 -0.53689,-0.45617 -0.80534,-0.68635c-0.31039,-0.26785 -0.62498,-0.30133 -0.97312,-0.0837c-0.12583,0.07952 -0.24747,0.17159 -0.35234,0.27622c-0.42784,0.41851 -0.84309,0.85794 -1.27931,1.26808c-0.54948,0.51895 -0.80534,1.14253 -0.76339,1.82888z" vector-effect="non-scaling-stroke"/></g><defs><path id="path-1745384195595575" d="M4.37064,0.00419c0.70467,0.14229 1.19542,0.61939 1.68198,1.08812c0.69628,0.66961 1.38417,1.35597 2.05948,2.04651c0.89762,0.91653 0.94795,2.06325 0.13842,2.98397c-0.17617,0.20088 -0.37331,0.38503 -0.56625,0.57336c-0.31039,0.30133 -0.62917,0.5901 -0.93537,0.89561c-0.03775,0.03767 -0.04614,0.15066 -0.02097,0.1967c0.302,0.51895 0.57045,1.05883 0.92698,1.53593c1.12412,1.515 2.47054,2.79982 4.098,3.77495c0.17197,0.10463 0.35653,0.19251 0.54109,0.26785c0.05033,0.02093 0.14681,-0.01674 0.18875,-0.05859c0.42784,-0.41432 0.83889,-0.8412 1.26673,-1.25553c0.35653,-0.34736 0.76339,-0.61939 1.25834,-0.71983c0.66692,-0.13811 1.25834,0.05022 1.73651,0.51058c0.92698,0.89142 1.84557,1.79959 2.73479,2.72868c0.82212,0.86213 0.57464,2.07162 -0.0755,2.79145c-0.26425,0.29714 -0.56625,0.5608 -0.85148,0.83702c-0.16778,0.16322 -0.34814,0.31807 -0.49495,0.49803c-0.88084,1.08394 -2.03432,1.42293 -3.38074,1.2639c-1.69037,-0.20088 -3.20457,-0.88305 -4.66006,-1.70752c-3.72469,-2.1051 -6.57693,-5.05977 -8.60286,-8.81379c-0.58303,-1.07975 -1.0612,-2.20973 -1.31287,-3.4234c-0.03356,-0.16322 -0.06711,-0.33062 -0.10067,-0.49384c0,-0.45617 0,-0.91235 0,-1.37271c0.01258,-0.0293 0.02936,-0.05859 0.03775,-0.08789c0.151,-0.7868 0.50753,-1.45641 1.10315,-2.00047c0.39009,-0.35992 0.77178,-0.72402 1.14509,-1.09649c0.43622,-0.43943 0.89762,-0.83283 1.52679,-0.96675h0.54948zM1.25834,4.77518c0,0.74913 0.13003,1.41456 0.34814,2.05906c0.47398,1.42293 1.19123,2.72449 2.03851,3.95072c2.30696,3.32714 5.27245,5.85494 9.03489,7.41597c0.89762,0.37247 1.82459,0.64032 2.81449,0.60265c0.56625,-0.02093 1.07378,-0.20088 1.48065,-0.61521c0.49914,-0.51058 1.00248,-1.01279 1.51001,-1.51082c0.51173,-0.5064 0.52011,-0.97931 0.01258,-1.48989c-0.58303,-0.58173 -1.16606,-1.16345 -1.74909,-1.74518c-0.22231,-0.22181 -0.44042,-0.4478 -0.66692,-0.66124c-0.43622,-0.40595 -0.86406,-0.40177 -1.30029,0.00837c-0.04614,0.04604 -0.09228,0.09207 -0.13842,0.13811c-0.47817,0.4771 -0.95214,0.9542 -1.43031,1.42711c-0.32717,0.32225 -0.70467,0.41014 -1.05281,0.22599c-0.41106,-0.22181 -0.82212,-0.45199 -1.2164,-0.70728c-1.51001,-0.97931 -2.8061,-2.20136 -3.947,-3.58243c-0.56625,-0.68635 -1.04023,-1.43548 -1.39676,-2.25576c-0.19714,-0.45199 -0.11745,-0.89979 0.20972,-1.20949c0.50753,-0.48128 1.01087,-0.96257 1.5142,-1.44804c0.46139,-0.44362 0.48236,-0.83702 0.02936,-1.30156c-0.62917,-0.6445 -1.27092,-1.27645 -1.91687,-1.90421c-0.25167,-0.24692 -0.53689,-0.45617 -0.80534,-0.68635c-0.31039,-0.26785 -0.62498,-0.30133 -0.97312,-0.0837c-0.12583,0.07952 -0.24747,0.17159 -0.35234,0.27622c-0.42784,0.41851 -0.84309,0.85794 -1.27931,1.26808c-0.54948,0.51895 -0.80534,1.14253 -0.76339,1.82888z" vector-effect="non-scaling-stroke"/></defs></g></svg>