<svg version="1.2" xmlns="http://www.w3.org/2000/svg" xmlns:xlink="http://www.w3.org/1999/xlink" overflow="visible" preserveAspectRatio="none" viewBox="0 0 52.999993391643976 51.380969999999984" width="52.999993391643976" height="51.380969999999984"><g transform="translate(0, 0)"><g transform="translate(0.00002000000000265678, 0.000009999999999399378) rotate(0)"><path style="stroke-width: 0; stroke-linecap: butt; stroke-linejoin: miter; fill: rgb(84, 117, 130);" d="M52.40602,30.91667v0c-0.549,-0.63095 -1.51573,-1.02381 -2.64954,-0.83333c0.10741,-1.52381 -0.09548,-3.27381 -0.62061,-5.29762c-1.15768,-4.4881 -3.60433,-9.0119 -6.48064,-12.07143c0.34611,-0.40476 0.549,-0.91667 0.549,-1.4881c0,-0.83333 -0.45353,-1.57143 -1.12188,-1.97619c2.42278,-3.84524 3.12694,-6.61905 2.04086,-8.07143c-0.60868,-0.80952 -1.67088,-1.05952 -2.91211,-0.66667c-0.93092,0.28571 -1.52766,0.77381 -1.95732,1.13095l-0.0358,0.03571c-0.36998,0.29762 -0.52513,0.36905 -0.58481,0.38095c-0.02387,-0.02381 -0.09548,-0.07143 -0.20289,-0.22619c-0.87125,-1.2381 -1.75443,-1.83333 -2.70922,-1.83333c-0.95479,0 -1.83797,0.59524 -2.70922,1.83333c-0.10741,0.14286 -0.16709,0.20238 -0.20289,0.22619c-0.05967,-0.0119 -0.21483,-0.08333 -0.58481,-0.38095l-0.0358,-0.03571c-0.42966,-0.35714 -1.0264,-0.84524 -1.95732,-1.13095c-1.24123,-0.38095 -2.30343,-0.14286 -2.91211,0.66667c-1.08607,1.45238 -0.38192,4.2381 2.04086,8.07143c-0.66835,0.40476 -1.12188,1.13095 -1.12188,1.97619c0,0.57143 0.20289,1.08333 0.549,1.4881c-2.8763,3.05952 -5.32295,7.58333 -6.48064,12.07143c-0.42966,1.65476 -0.64448,3.10714 -0.64448,4.40476c-2.01699,-0.78571 -3.89077,-1.30952 -6.05098,-0.79762c-2.63761,0.63095 -5.43037,2.80952 -9.04663,7.0119c-0.94285,-0.42857 -2.11247,-0.2619 -2.88824,0.5119l-3.43724,3.44048c-0.15515,0.15476 -0.2387,0.36905 -0.2387,0.59524c0,0.22619 0.08354,0.42857 0.2387,0.59524l10.62204,10.59524c0.15515,0.15476 0.36998,0.2381 0.59674,0.2381c0.22676,0 0.42966,-0.08333 0.59674,-0.2381l3.43724,-3.42857c0.72803,-0.72619 0.91899,-1.7619 0.59674,-2.66667c2.17215,-0.89286 4.59493,-0.96429 7.68606,-0.78571c0.70416,0.04762 1.44412,0.09524 2.21989,0.16667c1.84991,0.15476 3.77142,0.29762 5.62132,0.2619c3.9027,-0.08333 6.25387,-1.17857 9.38081,-2.83333c3.18661,-1.69048 10.00142,-5.71429 11.27845,-7.39286c0.91899,-1.21429 0.96672,-2.60714 0.13128,-3.54762zM28.65563,2.17857v0c0.22676,-0.29762 0.82351,-0.15476 1.07414,-0.07143c0.62061,0.19048 1.01446,0.5119 1.39638,0.83333l0.0358,0.03571c0.549,0.45238 1.14575,0.84524 1.87377,0.75c0.50126,-0.07143 0.95479,-0.38095 1.33671,-0.91667c0.5132,-0.72619 0.99059,-1.13095 1.33671,-1.13095c0.34611,0 0.82351,0.40476 1.33671,1.13095c0.38192,0.53571 0.83544,0.84524 1.33671,0.91667c0.71609,0.09524 1.32477,-0.30952 1.87377,-0.75l0.0358,-0.03571c0.38192,-0.30952 0.77577,-0.64286 1.39638,-0.83333c0.25063,-0.07143 0.84738,-0.22619 1.07414,0.07143c0.39385,0.52381 0.28644,2.53571 -2.48245,6.75h-9.15405c-2.75696,-4.22619 -2.86437,-6.22619 -2.47052,-6.75zM41.52142,11.22619c0,0.35714 -0.28644,0.64286 -0.64448,0.64286h-10.3356c-0.35805,0 -0.64448,-0.28571 -0.64448,-0.64286c0,-0.35714 0.28644,-0.64286 0.64448,-0.64286h10.3356c0.35805,0 0.64448,0.29762 0.64448,0.64286zM23.91748,25.20238c1.12188,-4.33333 3.61627,-8.85714 6.40903,-11.67857c0.07161,0.0119 0.14322,0.0119 0.21483,0.0119h10.3356c0.07161,0 0.14322,0 0.21483,-0.0119c2.79276,2.82143 5.28715,7.35714 6.40903,11.67857c0.57287,2.2381 0.73996,4.11905 0.46546,5.60714c-2.2915,1.27381 -7.17286,3.63095 -10.90847,5.05952c0.11935,-0.71429 -0.01193,-1.46429 -0.40579,-2.11905c-0.59674,-1 -1.64701,-1.57143 -2.80469,-1.53571c-4.6904,0 -7.80541,-1.21429 -10.51462,-2.33333c-0.07161,-1.30952 0.11935,-2.88095 0.58481,-4.67857zM14.29798,46.52381l-2.8405,2.84524l-9.45242,-9.41667l2.85243,-2.84524c0.16709,-0.16667 0.39385,-0.2619 0.63255,-0.2619c0.2387,0 0.46546,0.09524 0.63255,0.2619l8.17539,8.15476c0.35805,0.34524 0.35805,0.91667 0,1.2619zM50.93803,33.45238v0c-0.89512,1.16667 -6.59998,4.7381 -10.72945,6.92857c-2.92404,1.54762 -5.10812,2.55952 -8.64085,2.64286c-1.76636,0.03571 -3.64014,-0.10714 -5.45424,-0.2619c-0.7877,-0.05952 -1.5396,-0.11905 -2.25569,-0.16667c-2.76889,-0.16667 -5.93163,-0.22619 -8.80793,1.07143l-7.20866,-7.19048c3.30596,-3.85714 5.90776,-5.90476 8.13958,-6.45238c2.0886,-0.5 3.97431,0.27381 6.36129,1.2619c2.79276,1.15476 6.27774,2.59524 11.51715,2.59524c0.01193,0 0.02387,0 0.0358,0c0.549,-0.02381 1.03833,0.25 1.32477,0.72619c0.28644,0.47619 0.28644,1.03571 0,1.5c-0.5132,0.86905 -2.42278,1.32143 -5.08426,1.20238c-2.51826,-0.10714 -5.03652,-0.70238 -6.02711,-1.22619c-0.40579,-0.21429 -0.91899,-0.05952 -1.12188,0.35714c-0.21483,0.40476 -0.05967,0.91667 0.35805,1.11905c1.31284,0.67857 4.57106,1.44048 7.57864,1.44048c1.46799,0 2.8763,-0.17857 3.97431,-0.64286c4.01012,-1.11905 11.51715,-4.71429 14.27411,-6.30952c0.91899,-0.52381 1.65895,-0.39286 1.96925,-0.04762c0.31031,0.35714 0.22676,0.89286 -0.20289,1.45238z" vector-effect="non-scaling-stroke"/></g><defs><path id="path-1745390474033499" d="M52.40602,30.91667v0c-0.549,-0.63095 -1.51573,-1.02381 -2.64954,-0.83333c0.10741,-1.52381 -0.09548,-3.27381 -0.62061,-5.29762c-1.15768,-4.4881 -3.60433,-9.0119 -6.48064,-12.07143c0.34611,-0.40476 0.549,-0.91667 0.549,-1.4881c0,-0.83333 -0.45353,-1.57143 -1.12188,-1.97619c2.42278,-3.84524 3.12694,-6.61905 2.04086,-8.07143c-0.60868,-0.80952 -1.67088,-1.05952 -2.91211,-0.66667c-0.93092,0.28571 -1.52766,0.77381 -1.95732,1.13095l-0.0358,0.03571c-0.36998,0.29762 -0.52513,0.36905 -0.58481,0.38095c-0.02387,-0.02381 -0.09548,-0.07143 -0.20289,-0.22619c-0.87125,-1.2381 -1.75443,-1.83333 -2.70922,-1.83333c-0.95479,0 -1.83797,0.59524 -2.70922,1.83333c-0.10741,0.14286 -0.16709,0.20238 -0.20289,0.22619c-0.05967,-0.0119 -0.21483,-0.08333 -0.58481,-0.38095l-0.0358,-0.03571c-0.42966,-0.35714 -1.0264,-0.84524 -1.95732,-1.13095c-1.24123,-0.38095 -2.30343,-0.14286 -2.91211,0.66667c-1.08607,1.45238 -0.38192,4.2381 2.04086,8.07143c-0.66835,0.40476 -1.12188,1.13095 -1.12188,1.97619c0,0.57143 0.20289,1.08333 0.549,1.4881c-2.8763,3.05952 -5.32295,7.58333 -6.48064,12.07143c-0.42966,1.65476 -0.64448,3.10714 -0.64448,4.40476c-2.01699,-0.78571 -3.89077,-1.30952 -6.05098,-0.79762c-2.63761,0.63095 -5.43037,2.80952 -9.04663,7.0119c-0.94285,-0.42857 -2.11247,-0.2619 -2.88824,0.5119l-3.43724,3.44048c-0.15515,0.15476 -0.2387,0.36905 -0.2387,0.59524c0,0.22619 0.08354,0.42857 0.2387,0.59524l10.62204,10.59524c0.15515,0.15476 0.36998,0.2381 0.59674,0.2381c0.22676,0 0.42966,-0.08333 0.59674,-0.2381l3.43724,-3.42857c0.72803,-0.72619 0.91899,-1.7619 0.59674,-2.66667c2.17215,-0.89286 4.59493,-0.96429 7.68606,-0.78571c0.70416,0.04762 1.44412,0.09524 2.21989,0.16667c1.84991,0.15476 3.77142,0.29762 5.62132,0.2619c3.9027,-0.08333 6.25387,-1.17857 9.38081,-2.83333c3.18661,-1.69048 10.00142,-5.71429 11.27845,-7.39286c0.91899,-1.21429 0.96672,-2.60714 0.13128,-3.54762zM28.65563,2.17857v0c0.22676,-0.29762 0.82351,-0.15476 1.07414,-0.07143c0.62061,0.19048 1.01446,0.5119 1.39638,0.83333l0.0358,0.03571c0.549,0.45238 1.14575,0.84524 1.87377,0.75c0.50126,-0.07143 0.95479,-0.38095 1.33671,-0.91667c0.5132,-0.72619 0.99059,-1.13095 1.33671,-1.13095c0.34611,0 0.82351,0.40476 1.33671,1.13095c0.38192,0.53571 0.83544,0.84524 1.33671,0.91667c0.71609,0.09524 1.32477,-0.30952 1.87377,-0.75l0.0358,-0.03571c0.38192,-0.30952 0.77577,-0.64286 1.39638,-0.83333c0.25063,-0.07143 0.84738,-0.22619 1.07414,0.07143c0.39385,0.52381 0.28644,2.53571 -2.48245,6.75h-9.15405c-2.75696,-4.22619 -2.86437,-6.22619 -2.47052,-6.75zM41.52142,11.22619c0,0.35714 -0.28644,0.64286 -0.64448,0.64286h-10.3356c-0.35805,0 -0.64448,-0.28571 -0.64448,-0.64286c0,-0.35714 0.28644,-0.64286 0.64448,-0.64286h10.3356c0.35805,0 0.64448,0.29762 0.64448,0.64286zM23.91748,25.20238c1.12188,-4.33333 3.61627,-8.85714 6.40903,-11.67857c0.07161,0.0119 0.14322,0.0119 0.21483,0.0119h10.3356c0.07161,0 0.14322,0 0.21483,-0.0119c2.79276,2.82143 5.28715,7.35714 6.40903,11.67857c0.57287,2.2381 0.73996,4.11905 0.46546,5.60714c-2.2915,1.27381 -7.17286,3.63095 -10.90847,5.05952c0.11935,-0.71429 -0.01193,-1.46429 -0.40579,-2.11905c-0.59674,-1 -1.64701,-1.57143 -2.80469,-1.53571c-4.6904,0 -7.80541,-1.21429 -10.51462,-2.33333c-0.07161,-1.30952 0.11935,-2.88095 0.58481,-4.67857zM14.29798,46.52381l-2.8405,2.84524l-9.45242,-9.41667l2.85243,-2.84524c0.16709,-0.16667 0.39385,-0.2619 0.63255,-0.2619c0.2387,0 0.46546,0.09524 0.63255,0.2619l8.17539,8.15476c0.35805,0.34524 0.35805,0.91667 0,1.2619zM50.93803,33.45238v0c-0.89512,1.16667 -6.59998,4.7381 -10.72945,6.92857c-2.92404,1.54762 -5.10812,2.55952 -8.64085,2.64286c-1.76636,0.03571 -3.64014,-0.10714 -5.45424,-0.2619c-0.7877,-0.05952 -1.5396,-0.11905 -2.25569,-0.16667c-2.76889,-0.16667 -5.93163,-0.22619 -8.80793,1.07143l-7.20866,-7.19048c3.30596,-3.85714 5.90776,-5.90476 8.13958,-6.45238c2.0886,-0.5 3.97431,0.27381 6.36129,1.2619c2.79276,1.15476 6.27774,2.59524 11.51715,2.59524c0.01193,0 0.02387,0 0.0358,0c0.549,-0.02381 1.03833,0.25 1.32477,0.72619c0.28644,0.47619 0.28644,1.03571 0,1.5c-0.5132,0.86905 -2.42278,1.32143 -5.08426,1.20238c-2.51826,-0.10714 -5.03652,-0.70238 -6.02711,-1.22619c-0.40579,-0.21429 -0.91899,-0.05952 -1.12188,0.35714c-0.21483,0.40476 -0.05967,0.91667 0.35805,1.11905c1.31284,0.67857 4.57106,1.44048 7.57864,1.44048c1.46799,0 2.8763,-0.17857 3.97431,-0.64286c4.01012,-1.11905 11.51715,-4.71429 14.27411,-6.30952c0.91899,-0.52381 1.65895,-0.39286 1.96925,-0.04762c0.31031,0.35714 0.22676,0.89286 -0.20289,1.45238z" vector-effect="non-scaling-stroke"/></defs></g></svg>