<svg version="1.2" xmlns="http://www.w3.org/2000/svg" xmlns:xlink="http://www.w3.org/1999/xlink" overflow="visible" preserveAspectRatio="none" viewBox="0 0 772.9999899999999 446.00001999999995" width="772.9999899999999" height="446.00001999999995"><g transform="translate(0, 0)"><g transform="translate(-1.7763568394002505e-15, 0.000010000000003174137) rotate(0)"><path style="stroke-width: 0; stroke-linecap: butt; stroke-linejoin: miter; fill: url(&quot;#gradient-17453841961091956&quot;);" d="M707.65875,250.69684c-5.15202,19.55306 -17.47205,35.64244 -34.83211,45.81003c-11.42404,6.70391 -24.08008,10.05586 -36.96012,10.16759c-0.336,-6.59217 -1.568,-13.18435 -3.47201,-19.44133l-19.37606,-72.96085l79.74425,-9.8324c3.92001,-0.55866 7.61602,-1.45251 11.31204,-2.56983c6.72002,15.30725 8.06403,32.40222 3.58401,48.82679zM561.7223,385.66484c-12.88004,1.67598 -25.64808,0.11173 -37.29612,-4.46927c2.12801,-6.14525 3.58401,-12.62569 4.14401,-19.21787l9.52003,-72.62566l75.15223,22.12289c4.48001,1.34078 9.07203,2.1229 13.55204,2.56983c-0.448,15.41899 -5.71202,30.39104 -15.34405,42.79327c-11.87204,15.64245 -29.68009,26.25697 -49.72816,28.8268zM456.32997,428.68157l-0.112,-0.11173c-0.112,0.11173 -0.224,0.11173 -0.336,0.22346c-10.08003,1.56424 -20.49606,1.11732 -30.6881,-1.45251c-12.43204,-3.35195 -23.85607,-9.72066 -33.1521,-18.54748c4.48001,-5.02793 8.28803,-10.61452 11.42404,-16.64804l36.51211,-63.12846l60.92819,49.16198c3.92001,2.90503 7.95202,5.36313 12.09604,7.59776c-6.38402,13.85474 -17.02405,25.69831 -30.4641,33.63127c-8.17603,4.581 -17.02405,7.82122 -26.20808,9.27374zM258.08935,378.96093c3.24801,-1.89944 6.27202,-4.02234 9.29603,-6.48044l65.0722,-47.59774l39.53612,71.84353c2.46401,4.13408 5.26402,7.93296 8.28803,11.50837c-11.20004,10.39106 -25.42408,17.20669 -40.65613,19.44133c-35.84011,4.80447 -69.44022,-16.08938 -81.53625,-48.71506zM176.88909,373.04314c-0.112,-0.11173 -0.112,-0.11173 0,0l-0.112,-0.11173c-11.53604,-6.70391 -21.05607,-16.31284 -27.55209,-28.04468c-6.38402,-11.62011 -9.63203,-24.2458 -9.63203,-36.98322c6.83202,-0.3352 13.32804,-1.56424 19.82406,-3.68715l77.61624,-19.21787l9.18403,80.67034c0.448,3.46369 1.12,6.70391 2.01601,10.05586c-16.46405,7.82122 -35.50411,9.72066 -53.42417,4.80447c-6.49602,-1.78771 -12.43204,-4.35754 -17.92006,-7.48603zM61.41859,232.87191c-1.68001,-13.07262 0.112,-26.14524 5.04002,-37.98881c6.16002,2.23464 12.54404,3.68715 19.15206,4.46927l72.46423,10.50279l-23.52007,75.19549c-1.232,4.581 -2.12801,9.16201 -2.57601,13.85474c-15.12005,-1.00559 -29.79209,-6.48044 -42.00013,-15.97764c-16.24005,-12.2905 -25.98408,-30.05585 -28.56009,-50.05584zM347.68963,237.73595c8.73603,2.01117 17.69606,3.35195 26.54408,4.02234l2.12801,0.67039l-24.19208,6.03352l-15.12005,-12.17876zM432.47389,236.61863c0.672,-0.11173 1.232,-0.3352 1.90401,-0.55866l7.50402,-0.89385l-17.13605,12.62569l-17.02405,-5.02793zM229.64126,220.64099l6.38402,56.42455l-78.84825,19.44133c-5.71202,1.67598 -11.42404,2.56983 -17.24805,2.90503c0.448,-3.91061 1.232,-7.82122 2.35201,-11.73184l23.85607,-76.20107zM238.26528,221.87004l40.20813,5.81005l18.81606,34.18992l-53.08817,13.07262zM288.66544,229.13261l32.5921,4.69273l20.94407,16.8715l-36.62411,9.05027zM349.92963,257.06555l29.56809,23.9106l-44.35214,32.51395l-25.64808,-46.36869zM360.00966,254.60745l31.4721,-7.82122l24.64008,7.26257l-29.68009,21.7877zM426.31387,256.27944l38.86412,11.50837l-27.77609,48.04467l-44.12814,-35.41897zM434.8259,250.80857l24.19208,-17.65362l28.67209,-3.57542l-18.14406,31.39663zM498.5541,228.23875l39.31212,-4.80447l-7.28002,55.64243l-52.41616,-15.53072zM547.05025,222.31697l56.67218,-6.92737l19.71206,74.30163c1.68001,5.47486 2.68801,10.94971 3.13601,16.5363c-3.80801,-0.44693 -7.50402,-1.11732 -11.31204,-2.1229l-76.16024,-22.45809zM254.16933,364.43979l-9.07203,-81.45247l56.22418,-13.85474l27.21609,49.27371l-66.19221,48.49159c-2.12801,1.67598 -4.36801,3.24022 -6.72002,4.581c-0.56,-2.23464 -1.12,-4.69273 -1.456,-7.0391zM379.27373,392.48048l-39.98413,-72.51392l47.04015,-34.41339l46.81615,37.76534l-37.18412,64.46924c-2.68801,5.25139 -5.93602,10.05586 -9.74403,14.4134c-2.57601,-3.01676 -4.92802,-6.25698 -6.94402,-9.72066zM506.05812,370.80451l-61.71219,-49.49718l29.45609,-51.06142l55.66417,16.42457l-9.74403,74.41337c-0.448,5.58659 -1.68001,11.06145 -3.36001,16.31284c-3.58401,-1.89944 -7.05602,-4.02234 -10.30403,-6.59217zM29.05049,209.51997c-8.62403,-21.56423 -12.88004,-43.12847 -11.87204,-60.67036c1.232,2.90503 2.57601,5.69832 4.14401,8.49162c8.84803,15.08379 21.84007,27.03909 37.29612,34.30166c-5.48802,13.18435 -7.50402,27.59775 -5.82402,42.01115c0.896,8.26815 3.02401,16.08938 6.16002,23.46367c-11.42404,-11.84357 -22.06407,-28.71507 -29.90409,-47.59774zM78.21678,285.11023c1.90401,1.78771 3.80801,3.46369 5.82402,5.02793c13.66404,10.50279 30.01609,16.64804 47.15215,17.65362c-0.112,14.30167 3.47201,28.4916 10.75203,41.34076c2.91201,5.02793 6.16002,9.72066 9.96803,14.0782c-13.77604,-6.92737 -28.22409,-17.54189 -40.99213,-30.61451c-15.00805,-15.30725 -26.54408,-31.95529 -32.7041,-47.48601zM237.59328,415.83242c-19.37606,-7.3743 -36.17611,-17.76535 -48.16015,-28.93853c1.008,0.3352 2.01601,0.67039 3.13601,0.89385c7.28002,2.1229 14.89605,3.01676 22.51207,3.01676c12.43204,0 24.52808,-2.68156 35.50411,-7.82122c7.16802,19.21787 21.05607,34.63685 38.64012,44.02232c-15.12005,-0.11173 -32.4801,-3.79888 -51.63216,-11.17318zM331.00157,436.94973c3.13601,-0.11173 6.38402,-0.44693 9.96803,-0.78212c17.13605,-2.4581 32.9281,-10.16759 45.36014,-21.56423c10.30403,9.94413 23.07207,17.09496 37.18412,20.78211c4.92802,1.11732 9.63203,1.89944 14.44805,2.23464c-14.89605,5.36313 -33.1521,8.37988 -52.30416,8.37988c-20.38406,-0.11173 -39.53612,-3.24022 -54.65617,-9.05027zM534.95421,417.5084c-18.48006,7.3743 -37.07212,11.50837 -53.20017,11.84357c1.90401,-0.89385 3.69601,-1.89944 5.60002,-2.90503c15.00805,-8.71508 26.65608,-21.7877 33.82411,-37.20668c9.63203,3.79888 19.93606,5.69832 30.35209,5.69832c3.80801,0 7.61602,-0.44693 11.53604,-1.22905c6.38402,-0.89385 12.54404,-2.34637 18.48006,-4.581c-11.98404,10.94971 -28.22409,20.89384 -46.59215,28.37987zM662.97061,331.81012c-14.67205,14.63686 -31.2481,26.14524 -46.59215,32.62568c0.784,-1.00559 1.568,-2.01117 2.35201,-3.01676c10.64003,-13.63128 16.35205,-30.27931 17.13605,-47.15081c14.11204,-0.11173 28.22409,-4.02234 41.21613,-11.39664c5.82402,-3.24022 11.08803,-7.15083 15.79205,-11.62011c-6.72002,13.51955 -17.02405,27.70948 -29.90409,40.55864zM742.60286,213.26669c-7.50402,17.43016 -17.24805,33.07261 -28.00009,44.58098c0.56,-1.67598 1.12,-3.35195 1.568,-5.02793c4.70401,-17.98882 3.24801,-36.98322 -3.69601,-53.85472c13.88804,-5.69832 26.09608,-15.08379 35.16811,-27.70948c2.80001,-3.91061 5.37602,-8.04469 7.50402,-12.40223c-0.336,16.42457 -4.59201,35.53071 -12.54404,54.41338zM261.24848,196.25112l12.31248,22.35206l-36.15392,-5.25273l-3.69374,-33.41633zM275.23994,204.52138l23.28178,13.85828c3.35795,1.89993 6.7159,3.68809 10.07385,5.3645l-24.84883,-3.68809zM494.06632,207.31539c0.55966,-0.33528 1.00738,-0.78232 1.56704,-1.22936l8.17101,-4.58217l-10.74544,18.66397l-19.92383,2.45873zM518.69128,193.12183l24.84883,-13.97004l-4.70113,35.42802l-35.03461,4.35865zM224.64683,174.45785l4.2534,37.55147l-59.99537,-8.82907l16.34202,-52.19207zM548.12931,213.46221l5.26079,-39.78667l34.13915,-19.22277l13.87953,52.52735zM690.9541,195.91584l-80.255,9.83491l-14.88691,-55.99192l49.80959,-28.05184l47.01129,61.80346c2.79829,3.24105 5.14886,6.70562 7.27556,10.39371c-2.91022,0.89408 -5.93238,1.56464 -8.95453,2.01169zM740.31596,166.18759c-8.28294,11.17603 -19.14031,19.66982 -31.67666,24.81079c-2.4625,-4.58217 -5.37272,-8.94083 -8.73067,-12.9642l-46.22777,-60.79761l69.17376,-38.89259c4.14147,-2.57049 7.94715,-5.47626 11.64089,-8.60554c10.40964,11.06427 17.46134,25.14607 19.8119,40.45723c2.91022,19.89334 -2.1267,39.89843 -13.99146,55.99192zM21.82667,96.11387c3.35795,-12.4054 9.96192,-23.80495 18.91645,-32.85753c4.92499,4.47041 10.40964,8.49378 16.34202,11.73483l63.01752,37.43971l-49.80959,59.79177c-3.02215,3.91161 -5.70851,7.93498 -7.94715,12.18187c-13.87953,-6.59386 -25.63235,-17.21109 -33.2437,-30.84585c-10.29771,-17.54637 -12.87214,-37.88675 -7.27556,-57.4448zM76.67318,177.58714l50.9289,-60.90937l50.25731,29.84l-17.23747,55.43312l-73.65103,-10.84075c-5.70851,-0.5588 -11.41703,-1.89993 -16.78975,-3.68809c1.79091,-3.35281 4.02954,-6.70562 6.49204,-9.83491zM12.98407,0c0,3.79985 0.11193,7.71146 0.67159,11.62307c2.1267,17.09933 9.73805,32.96929 21.04315,45.48645c-10.18578,10.05843 -17.57327,22.57558 -21.49088,36.76914c-2.35056,8.49378 -3.24602,17.09933 -2.91022,25.70487c-6.49204,-15.64644 -10.29771,-36.09858 -10.29771,-57.55656c0.11193,-23.58143 4.92499,-46.04525 12.98407,-62.02698zM763.70967,120.14234c-0.11193,-3.79985 -0.33579,-7.48794 -0.89545,-11.28779c-2.4625,-17.21109 -10.40964,-32.85753 -22.16247,-45.15117c9.73805,-10.39371 16.78975,-23.02263 20.48349,-37.21619c1.23125,-5.47626 2.01477,-10.95251 2.23863,-16.42877c6.15624,15.53468 9.62612,35.42802 9.62612,56.3272c0,19.78158 -3.35795,38.66907 -9.29033,53.75671z" vector-effect="non-scaling-stroke"/></g><defs><path id="path-17453841958961903" d="M707.65875,250.69684c-5.15202,19.55306 -17.47205,35.64244 -34.83211,45.81003c-11.42404,6.70391 -24.08008,10.05586 -36.96012,10.16759c-0.336,-6.59217 -1.568,-13.18435 -3.47201,-19.44133l-19.37606,-72.96085l79.74425,-9.8324c3.92001,-0.55866 7.61602,-1.45251 11.31204,-2.56983c6.72002,15.30725 8.06403,32.40222 3.58401,48.82679zM561.7223,385.66484c-12.88004,1.67598 -25.64808,0.11173 -37.29612,-4.46927c2.12801,-6.14525 3.58401,-12.62569 4.14401,-19.21787l9.52003,-72.62566l75.15223,22.12289c4.48001,1.34078 9.07203,2.1229 13.55204,2.56983c-0.448,15.41899 -5.71202,30.39104 -15.34405,42.79327c-11.87204,15.64245 -29.68009,26.25697 -49.72816,28.8268zM456.32997,428.68157l-0.112,-0.11173c-0.112,0.11173 -0.224,0.11173 -0.336,0.22346c-10.08003,1.56424 -20.49606,1.11732 -30.6881,-1.45251c-12.43204,-3.35195 -23.85607,-9.72066 -33.1521,-18.54748c4.48001,-5.02793 8.28803,-10.61452 11.42404,-16.64804l36.51211,-63.12846l60.92819,49.16198c3.92001,2.90503 7.95202,5.36313 12.09604,7.59776c-6.38402,13.85474 -17.02405,25.69831 -30.4641,33.63127c-8.17603,4.581 -17.02405,7.82122 -26.20808,9.27374zM258.08935,378.96093c3.24801,-1.89944 6.27202,-4.02234 9.29603,-6.48044l65.0722,-47.59774l39.53612,71.84353c2.46401,4.13408 5.26402,7.93296 8.28803,11.50837c-11.20004,10.39106 -25.42408,17.20669 -40.65613,19.44133c-35.84011,4.80447 -69.44022,-16.08938 -81.53625,-48.71506zM176.88909,373.04314c-0.112,-0.11173 -0.112,-0.11173 0,0l-0.112,-0.11173c-11.53604,-6.70391 -21.05607,-16.31284 -27.55209,-28.04468c-6.38402,-11.62011 -9.63203,-24.2458 -9.63203,-36.98322c6.83202,-0.3352 13.32804,-1.56424 19.82406,-3.68715l77.61624,-19.21787l9.18403,80.67034c0.448,3.46369 1.12,6.70391 2.01601,10.05586c-16.46405,7.82122 -35.50411,9.72066 -53.42417,4.80447c-6.49602,-1.78771 -12.43204,-4.35754 -17.92006,-7.48603zM61.41859,232.87191c-1.68001,-13.07262 0.112,-26.14524 5.04002,-37.98881c6.16002,2.23464 12.54404,3.68715 19.15206,4.46927l72.46423,10.50279l-23.52007,75.19549c-1.232,4.581 -2.12801,9.16201 -2.57601,13.85474c-15.12005,-1.00559 -29.79209,-6.48044 -42.00013,-15.97764c-16.24005,-12.2905 -25.98408,-30.05585 -28.56009,-50.05584zM347.68963,237.73595c8.73603,2.01117 17.69606,3.35195 26.54408,4.02234l2.12801,0.67039l-24.19208,6.03352l-15.12005,-12.17876zM432.47389,236.61863c0.672,-0.11173 1.232,-0.3352 1.90401,-0.55866l7.50402,-0.89385l-17.13605,12.62569l-17.02405,-5.02793zM229.64126,220.64099l6.38402,56.42455l-78.84825,19.44133c-5.71202,1.67598 -11.42404,2.56983 -17.24805,2.90503c0.448,-3.91061 1.232,-7.82122 2.35201,-11.73184l23.85607,-76.20107zM238.26528,221.87004l40.20813,5.81005l18.81606,34.18992l-53.08817,13.07262zM288.66544,229.13261l32.5921,4.69273l20.94407,16.8715l-36.62411,9.05027zM349.92963,257.06555l29.56809,23.9106l-44.35214,32.51395l-25.64808,-46.36869zM360.00966,254.60745l31.4721,-7.82122l24.64008,7.26257l-29.68009,21.7877zM426.31387,256.27944l38.86412,11.50837l-27.77609,48.04467l-44.12814,-35.41897zM434.8259,250.80857l24.19208,-17.65362l28.67209,-3.57542l-18.14406,31.39663zM498.5541,228.23875l39.31212,-4.80447l-7.28002,55.64243l-52.41616,-15.53072zM547.05025,222.31697l56.67218,-6.92737l19.71206,74.30163c1.68001,5.47486 2.68801,10.94971 3.13601,16.5363c-3.80801,-0.44693 -7.50402,-1.11732 -11.31204,-2.1229l-76.16024,-22.45809zM254.16933,364.43979l-9.07203,-81.45247l56.22418,-13.85474l27.21609,49.27371l-66.19221,48.49159c-2.12801,1.67598 -4.36801,3.24022 -6.72002,4.581c-0.56,-2.23464 -1.12,-4.69273 -1.456,-7.0391zM379.27373,392.48048l-39.98413,-72.51392l47.04015,-34.41339l46.81615,37.76534l-37.18412,64.46924c-2.68801,5.25139 -5.93602,10.05586 -9.74403,14.4134c-2.57601,-3.01676 -4.92802,-6.25698 -6.94402,-9.72066zM506.05812,370.80451l-61.71219,-49.49718l29.45609,-51.06142l55.66417,16.42457l-9.74403,74.41337c-0.448,5.58659 -1.68001,11.06145 -3.36001,16.31284c-3.58401,-1.89944 -7.05602,-4.02234 -10.30403,-6.59217zM29.05049,209.51997c-8.62403,-21.56423 -12.88004,-43.12847 -11.87204,-60.67036c1.232,2.90503 2.57601,5.69832 4.14401,8.49162c8.84803,15.08379 21.84007,27.03909 37.29612,34.30166c-5.48802,13.18435 -7.50402,27.59775 -5.82402,42.01115c0.896,8.26815 3.02401,16.08938 6.16002,23.46367c-11.42404,-11.84357 -22.06407,-28.71507 -29.90409,-47.59774zM78.21678,285.11023c1.90401,1.78771 3.80801,3.46369 5.82402,5.02793c13.66404,10.50279 30.01609,16.64804 47.15215,17.65362c-0.112,14.30167 3.47201,28.4916 10.75203,41.34076c2.91201,5.02793 6.16002,9.72066 9.96803,14.0782c-13.77604,-6.92737 -28.22409,-17.54189 -40.99213,-30.61451c-15.00805,-15.30725 -26.54408,-31.95529 -32.7041,-47.48601zM237.59328,415.83242c-19.37606,-7.3743 -36.17611,-17.76535 -48.16015,-28.93853c1.008,0.3352 2.01601,0.67039 3.13601,0.89385c7.28002,2.1229 14.89605,3.01676 22.51207,3.01676c12.43204,0 24.52808,-2.68156 35.50411,-7.82122c7.16802,19.21787 21.05607,34.63685 38.64012,44.02232c-15.12005,-0.11173 -32.4801,-3.79888 -51.63216,-11.17318zM331.00157,436.94973c3.13601,-0.11173 6.38402,-0.44693 9.96803,-0.78212c17.13605,-2.4581 32.9281,-10.16759 45.36014,-21.56423c10.30403,9.94413 23.07207,17.09496 37.18412,20.78211c4.92802,1.11732 9.63203,1.89944 14.44805,2.23464c-14.89605,5.36313 -33.1521,8.37988 -52.30416,8.37988c-20.38406,-0.11173 -39.53612,-3.24022 -54.65617,-9.05027zM534.95421,417.5084c-18.48006,7.3743 -37.07212,11.50837 -53.20017,11.84357c1.90401,-0.89385 3.69601,-1.89944 5.60002,-2.90503c15.00805,-8.71508 26.65608,-21.7877 33.82411,-37.20668c9.63203,3.79888 19.93606,5.69832 30.35209,5.69832c3.80801,0 7.61602,-0.44693 11.53604,-1.22905c6.38402,-0.89385 12.54404,-2.34637 18.48006,-4.581c-11.98404,10.94971 -28.22409,20.89384 -46.59215,28.37987zM662.97061,331.81012c-14.67205,14.63686 -31.2481,26.14524 -46.59215,32.62568c0.784,-1.00559 1.568,-2.01117 2.35201,-3.01676c10.64003,-13.63128 16.35205,-30.27931 17.13605,-47.15081c14.11204,-0.11173 28.22409,-4.02234 41.21613,-11.39664c5.82402,-3.24022 11.08803,-7.15083 15.79205,-11.62011c-6.72002,13.51955 -17.02405,27.70948 -29.90409,40.55864zM742.60286,213.26669c-7.50402,17.43016 -17.24805,33.07261 -28.00009,44.58098c0.56,-1.67598 1.12,-3.35195 1.568,-5.02793c4.70401,-17.98882 3.24801,-36.98322 -3.69601,-53.85472c13.88804,-5.69832 26.09608,-15.08379 35.16811,-27.70948c2.80001,-3.91061 5.37602,-8.04469 7.50402,-12.40223c-0.336,16.42457 -4.59201,35.53071 -12.54404,54.41338zM261.24848,196.25112l12.31248,22.35206l-36.15392,-5.25273l-3.69374,-33.41633zM275.23994,204.52138l23.28178,13.85828c3.35795,1.89993 6.7159,3.68809 10.07385,5.3645l-24.84883,-3.68809zM494.06632,207.31539c0.55966,-0.33528 1.00738,-0.78232 1.56704,-1.22936l8.17101,-4.58217l-10.74544,18.66397l-19.92383,2.45873zM518.69128,193.12183l24.84883,-13.97004l-4.70113,35.42802l-35.03461,4.35865zM224.64683,174.45785l4.2534,37.55147l-59.99537,-8.82907l16.34202,-52.19207zM548.12931,213.46221l5.26079,-39.78667l34.13915,-19.22277l13.87953,52.52735zM690.9541,195.91584l-80.255,9.83491l-14.88691,-55.99192l49.80959,-28.05184l47.01129,61.80346c2.79829,3.24105 5.14886,6.70562 7.27556,10.39371c-2.91022,0.89408 -5.93238,1.56464 -8.95453,2.01169zM740.31596,166.18759c-8.28294,11.17603 -19.14031,19.66982 -31.67666,24.81079c-2.4625,-4.58217 -5.37272,-8.94083 -8.73067,-12.9642l-46.22777,-60.79761l69.17376,-38.89259c4.14147,-2.57049 7.94715,-5.47626 11.64089,-8.60554c10.40964,11.06427 17.46134,25.14607 19.8119,40.45723c2.91022,19.89334 -2.1267,39.89843 -13.99146,55.99192zM21.82667,96.11387c3.35795,-12.4054 9.96192,-23.80495 18.91645,-32.85753c4.92499,4.47041 10.40964,8.49378 16.34202,11.73483l63.01752,37.43971l-49.80959,59.79177c-3.02215,3.91161 -5.70851,7.93498 -7.94715,12.18187c-13.87953,-6.59386 -25.63235,-17.21109 -33.2437,-30.84585c-10.29771,-17.54637 -12.87214,-37.88675 -7.27556,-57.4448zM76.67318,177.58714l50.9289,-60.90937l50.25731,29.84l-17.23747,55.43312l-73.65103,-10.84075c-5.70851,-0.5588 -11.41703,-1.89993 -16.78975,-3.68809c1.79091,-3.35281 4.02954,-6.70562 6.49204,-9.83491zM12.98407,0c0,3.79985 0.11193,7.71146 0.67159,11.62307c2.1267,17.09933 9.73805,32.96929 21.04315,45.48645c-10.18578,10.05843 -17.57327,22.57558 -21.49088,36.76914c-2.35056,8.49378 -3.24602,17.09933 -2.91022,25.70487c-6.49204,-15.64644 -10.29771,-36.09858 -10.29771,-57.55656c0.11193,-23.58143 4.92499,-46.04525 12.98407,-62.02698zM763.70967,120.14234c-0.11193,-3.79985 -0.33579,-7.48794 -0.89545,-11.28779c-2.4625,-17.21109 -10.40964,-32.85753 -22.16247,-45.15117c9.73805,-10.39371 16.78975,-23.02263 20.48349,-37.21619c1.23125,-5.47626 2.01477,-10.95251 2.23863,-16.42877c6.15624,15.53468 9.62612,35.42802 9.62612,56.3272c0,19.78158 -3.35795,38.66907 -9.29033,53.75671z" vector-effect="non-scaling-stroke"/><linearGradient id="gradient-17453841961091956" x1="50%" y1="100%" x2="50%" y2="0%" vector-effect="non-scaling-stroke"><stop offset="0%" stop-color="rgba(235,235,235,0)" stop-opacity="0" vector-effect="non-scaling-stroke"/><stop offset="100%" stop-color="rgb(235,235,235)" stop-opacity="1" vector-effect="non-scaling-stroke"/></linearGradient></defs></g></svg>