<svg version="1.2" xmlns="http://www.w3.org/2000/svg" xmlns:xlink="http://www.w3.org/1999/xlink" overflow="visible" preserveAspectRatio="none" viewBox="0 0 1440 829" width="1440" height="829"><g transform="translate(0, 0)"><g transform="translate(0, 0) rotate(0)"><path style="stroke-width: 0; stroke-linecap: butt; stroke-linejoin: miter; fill: rgb(255, 255, 255);" d="M0,0h1440v829h-1440zM408.82274,512.82825c5.59009,-2.01008 11.40379,-3.46181 17.5529,-4.24351l74.34825,-7.25863l-18.78272,-67.78447c-2.01243,-6.36526 -3.24225,-12.8422 -3.68946,-19.4308c-32.86975,0.89337 -62.83266,23.56264 -71.106,56.84068c-3.57766,13.95891 -2.79505,28.47618 1.67703,41.87673zM501.5065,363.07707c-9.16775,12.39551 -14.19884,27.24779 -14.86965,42.21174c4.80748,0.33501 9.61496,1.11671 14.42244,2.3451l75.35447,21.44089l8.72055,-71.9163c0.55901,-6.81195 1.90063,-13.40055 4.02487,-19.65414c-8.60875,-3.23847 -17.6647,-4.91354 -26.94425,-4.91354c-3.80126,0 -7.26712,0.44669 -11.06839,0.89337c-20.01254,3.01512 -37.45363,13.6239 -49.64004,29.59289zM630.07867,299.2011c-13.52803,8.04033 -23.9256,19.98916 -30.07471,34.05974c4.24847,2.23343 8.27334,4.69019 12.18641,7.59365l61.49104,48.57701l35.7766,-63.87597c3.13045,-6.03025 6.81992,-11.50214 11.18019,-16.52735c-14.19884,-13.17721 -32.98156,-20.43584 -51.87607,-20.43584c-13.19262,0 -26.83245,3.35014 -38.68345,10.60877zM784.36527,288.03397c-3.91307,0 -7.71433,0.44669 -11.51559,0.89337c-15.42866,2.45677 -29.6275,9.60373 -40.69589,20.2125c3.01865,3.57348 5.9255,7.48198 8.38514,11.61381l39.46607,69.90622l59.4786,-46.00857c4.47208,-3.79682 9.27956,-7.14696 14.31064,-9.82707c-5.14289,-12.61885 -13.75163,-23.56264 -24.93182,-31.82631c-10.17397,-7.59365 -21.57776,-12.28384 -33.65237,-14.07058l-0.33541,0.44669c-0.33541,-0.22334 -0.67081,-0.44669 -1.00622,-0.67003c-3.24225,-0.33501 -6.37271,-0.55836 -9.50316,-0.67003zM912.04303,336.4993c-6.37271,-2.12175 -12.74541,-3.01512 -18.67091,-3.01512c-9.83857,0 -19.67713,1.89841 -28.95669,5.69524c1.22982,3.79682 2.12424,7.70532 2.68325,11.72548l9.83857,79.73329l72.55942,-19.87749c6.26091,-2.01008 12.74541,-3.23847 19.34173,-3.68515c-0.33541,-12.73053 -3.91307,-25.12604 -10.50938,-36.18149c-10.17397,-17.42072 -26.72065,-29.70456 -46.28598,-34.39475zM977.22352,415.11588c-0.33541,4.91354 -1.11802,9.82707 -2.34784,14.74061l-21.35416,74.93143l71.88861,8.59869c6.70811,0.55836 13.30442,1.89841 19.56533,4.02017c8.72055,-22.78094 5.9255,-48.35366 -7.37892,-68.45449c-0.2236,-0.11167 -0.44721,-0.33501 -0.67081,-0.44669l0.2236,-0.33501c-4.58388,-6.81195 -10.28577,-12.8422 -17.21749,-17.97908c-12.85722,-9.49206 -27.83867,-14.62894 -42.70832,-15.07562zM768.09615,817.21263c41.69127,-10.35778 76.88343,-36.04403 99.71514,-70.40086c21.97956,-34.5455 30.6847,-76.20579 24.70906,-116.39888c-0.34878,-2.27493 -0.78587,-4.4815 -1.22296,-6.68807c-14.04644,-70.13995 -70.78427,-123.91675 -141.82583,-133.96166l-35.19409,-1.31659c-27.71466,2.50786 -54.94151,11.84869 -78.94749,28.45182c-4.88553,3.35763 -9.56575,6.98048 -14.02079,10.7118l-15.7141,15.27438c-24.83838,27.56849 -39.86169,62.52605 -42.74745,99.11615l-0.36006,21.06216c0.50763,12.33161 2.4458,24.68694 5.76595,36.82081l14.90554,38.22909c0.25387,0.5104 0.59605,0.95245 0.84992,1.46285c12.00711,20.2548 28.22199,38.10077 47.56955,51.96657c20.04296,14.03443 43.1899,23.68676 67.57096,28.00088c7.01364,1.21594 13.99858,2.02994 21.13145,2.30529l11.53268,0.12138c11.66072,-0.26051 23.23536,-1.72683 34.72392,-4.39897c0.17661,-0.13671 0.33335,-0.11666 0.5784,-0.16496c0.24505,-0.0483 0.4901,-0.0966 0.98019,-0.19321zM884.98697,565.98378l-2.01243,-16.08066l-18.33551,-10.27376c1.45342,1.89841 3.01865,3.68515 4.47208,5.58356zM881.74471,539.071l-4.24847,-34.05974l-35.21759,-4.24351l13.41623,23.78598zM832.55188,499.65104l-20.57155,-2.45677c10.28577,5.36022 20.12434,11.83716 29.18029,19.20746l1.22982,0.67003zM779.44599,483.79372l-17.10569,-13.6239l-21.24236,5.80691l7.82613,2.23343c9.50316,1.00504 18.89452,2.79178 28.06227,5.24855zM709.79341,476.42341l-19.67713,-5.58356l-18.11191,13.95891l10.73298,-1.00504c1.67703,-0.55836 3.24225,-0.89337 4.91928,-1.34006zM643.9421,495.74254l-21.57776,2.12175l-11.6274,20.77086l11.18019,-5.91858c0.78261,-0.55836 1.56523,-1.11671 2.34784,-1.67507zM612.30217,498.86934l-35.7766,3.57348l-4.36027,36.62818l25.04362,-13.28888zM570.93547,549.34476l-2.90685,23.89765l6.93172,-8.37535c1.22982,-2.12175 2.45964,-4.13184 3.80126,-6.14192l10.84478,-19.31913zM555.61861,601.83026l-13.86343,16.63902l6.0373,21.99924l5.14289,-16.52735zM535.15887,626.28627l-22.80758,27.35946l22.36038,28.81119l8.49694,-27.24779zM540.97257,690.38558l17.44109,22.44593l-0.55901,-5.13688c-0.44721,-1.22838 -0.89442,-2.56844 -1.22982,-3.90849l-9.27956,-33.61305zM570.15286,741.19601l2.01243,18.20242l20.34794,12.0605l-1.56523,-2.90345c-4.13667,-4.80186 -7.93793,-9.93874 -11.40379,-15.18729zM884.31616,759.06341l3.13045,-23.89765l-5.14289,6.47693l-15.87587,27.58281zM900.52743,705.4612l11.9628,-15.07562l-5.7019,-21.32921l-2.34784,8.152c-0.44721,3.23847 -1.00622,6.36526 -1.56523,9.60373zM919.53375,681.45188l21.35416,-26.91278l-21.80137,-28.69952l-7.37892,25.90774zM912.26663,617.12922l-14.86965,-19.65414l0.33541,2.68011c0.67081,2.12175 1.34162,4.35518 2.01243,6.58861l7.49073,28.14116zM915.28528,606.07377l9.39136,-32.71968l-32.53435,-18.31409l3.01865,24.34434zM927.24808,564.75539l14.86965,-51.92714l-55.90094,-6.70028l4.69568,38.19158zM944.68918,503.55953l21.68957,-75.93647c1.11802,-4.13184 1.78883,-8.37535 2.12424,-12.50718c-5.7019,0.44669 -11.29199,1.5634 -16.99389,3.1268l-73.67744,20.2125l7.15532,57.95739zM869.55831,440.80028l-52.99409,14.51727l19.90074,35.28812l39.80147,4.80186zM808.73808,457.4393l-36.11201,9.93874l23.25479,18.42576l30.85732,3.68515zM804.71322,450.404l-26.83245,-47.46029l-43.93814,33.94807l30.96912,24.34434zM727.0109,442.252l-28.06227,21.7759l27.50326,7.81699l28.17408,-7.70532zM720.19099,436.89178l-43.93814,-34.72977l-26.83245,47.79531l39.35426,11.16713zM644.83652,457.77431l-17.5529,31.26796l28.84489,-2.79178l23.8138,-18.42576zM636.56318,455.42921l-52.54689,-14.96395l-6.48451,53.49054l39.68967,-3.90849zM575.29575,438.00849l-76.47249,-21.7759c-4.24847,-1.11671 -8.16154,-1.67507 -12.18641,-1.89841c0.44721,5.58356 1.56523,11.2788 3.24225,16.75069l19.22992,69.57121l59.3668,-5.80691zM511.45687,508.91975l14.98145,54.38391l36.11201,-19.09579l4.91928,-40.87169zM528.78616,571.56734l10.06217,36.51651l18.67091,-22.33426l3.80126,-31.37963zM521.18363,575.69918l-49.19283,26.01941l34.88219,44.89185l25.49083,-30.59793zM464.72368,605.62708l-67.75194,35.84648c-3.46586,1.89841 -6.81992,4.24351 -9.95037,6.70028c4.24847,3.79682 9.05595,7.03529 14.19884,9.82707l64.28608,38.19158l36.00021,-43.21678zM472.99702,700.54767l47.1804,28.02949l11.51559,-36.73985l-24.70822,-31.82631zM527.66814,733.04401l35.4412,20.9942l-2.90685,-25.57272l-22.13677,-28.47618zM924.56484,736.61749l-9.50316,-36.06982l-16.77028,21.10587l-4.24847,32.04966zM932.94998,731.81562l46.73319,-26.35442l-33.54057,-44.11015l-23.9256,30.15124zM987.7329,700.99435l69.65257,-39.19662c3.68946,-2.12175 7.04352,-4.46685 10.17397,-7.14696c-4.36027,-3.68515 -9.16775,-6.81195 -14.42244,-9.38039l-65.1805,-36.51651l-36.00021,45.33854zM980.46578,604.62204l-47.73941,-26.80111l-10.62118,37.07486l24.48461,32.273zM985.94407,597.58675l49.30463,-62.2009c2.23604,-3.1268 4.24847,-6.25359 6.0373,-9.60373c-5.36649,-1.67507 -10.95658,-2.68011 -16.65848,-3.1268l-73.67744,-8.82203l-15.76407,55.27728zM856.58929,343.08791c-4.24847,2.3451 -8.27334,5.02521 -12.0746,8.26367l-60.37302,46.67859l28.39768,50.1404l56.01274,-15.29896l-9.95037,-80.73833c-0.55901,-3.1268 -1.22982,-6.14192 -2.01243,-9.04537zM726.4519,315.17009c-3.57766,4.24351 -6.81992,9.04537 -9.39136,14.18225l-36.67102,65.3277l46.62139,36.85152l46.62139,-36.06982l-39.91327,-70.79959c-2.12424,-3.46181 -4.58388,-6.58861 -7.26712,-9.49206zM597.20892,341.1895c-1.67703,5.36022 -2.68325,10.83211 -3.13045,16.52735l-8.94415,73.92639l56.01274,15.96899l28.39768,-50.69876l-62.38545,-49.3587c-3.24225,-2.45677 -6.59631,-4.57852 -9.95037,-6.36526zM411.84139,520.86858c2.79505,6.03025 6.37271,11.83716 10.62118,17.08571l44.27355,57.06402l52.09968,-27.69448l-15.98767,-57.62238l-75.35447,7.48198c-5.47829,0.67003 -10.73298,1.89841 -15.65226,3.68515zM404.01526,524.21872c-28.17408,13.73557 -45.83877,44.3335 -41.81391,77.05318c1.90063,15.52231 8.49694,29.81623 18.78272,41.09503c3.57766,-3.01512 7.49073,-5.69524 11.7392,-8.04033l66.74573,-35.39979l-43.37913,-55.83564c-4.91928,-5.80691 -8.94415,-12.17217 -12.0746,-18.87245zM1091.59685,615.56582c4.69568,-19.54247 1.67703,-39.86665 -8.49694,-56.84068c-7.93793,-13.40055 -19.90074,-23.78598 -33.87597,-29.9279c-2.01243,4.02017 -4.47208,7.92866 -7.26712,11.72548l-48.63382,61.30753l63.95068,35.84648c5.9255,3.01512 11.40379,6.81195 16.43488,11.05546c8.60875,-9.26872 14.64605,-20.54751 17.8883,-33.16637zM1053.80782,462.57617c6.48451,18.53743 6.48451,39.19662 -0.78261,57.95739c15.20506,7.03529 28.39768,18.53743 37.34183,33.16637c1.34162,2.23343 2.57144,4.46685 3.68946,6.81195c-0.55901,-15.96899 -4.80748,-34.28308 -12.18641,-52.26216c-7.26712,-17.97908 -17.21749,-33.94807 -28.06227,-45.67355zM951.73269,348.67147c5.25469,5.13688 9.95037,10.94379 13.75163,17.53239c7.49073,12.50718 11.40379,26.46609 11.851,40.76002c16.99389,0.55836 33.76417,6.14192 47.6276,16.52735c2.12424,1.45173 4.02487,3.1268 5.9255,4.80186c-6.26091,-15.07562 -17.32929,-31.26796 -31.75174,-46.00857c-15.20506,-15.41064 -31.86354,-27.24779 -47.404,-33.61305zM817.12322,286.69391c5.8137,2.45677 11.51559,5.69524 16.77028,9.49206c12.52181,9.04537 21.91317,21.10587 27.61507,34.95311c16.43488,-6.70028 34.88219,-8.152 52.65869,-3.57348c2.45964,0.55836 4.69568,1.34006 7.04352,2.12175c-11.7392,-11.50214 -28.28588,-22.22258 -46.95679,-30.15124c-20.01254,-8.37535 -40.24868,-12.8422 -57.13076,-12.8422zM670.66275,280.44032c20.34794,0.44669 40.36048,8.37535 55.56554,22.66927c12.29821,-11.72548 27.95047,-19.76582 45.27976,-22.22258c1.67703,-0.22334 3.35406,-0.44669 5.03108,-0.55836c-14.86965,-5.36022 -33.09336,-8.26367 -52.21148,-8.26367c-19.67713,-0.67003 -38.57165,2.56844 -53.6649,8.37535zM525.76751,332.36747c7.49073,-3.68515 15.65226,-6.14192 24.03741,-7.48198c14.53425,-2.12175 29.06849,-0.55836 42.48472,4.69019c6.93172,-15.29896 18.44731,-28.3645 33.09336,-37.29821c2.12424,-1.22838 4.24847,-2.3451 6.48451,-3.46181c-17.32929,-0.44669 -38.34805,4.02017 -59.1432,12.8422c-18.67091,8.37535 -35.21759,19.31913 -46.95679,30.7096zM418.3259,432.64827c15.09325,-16.75069 36.78282,-26.91278 59.81401,-27.47113c0.67081,-16.75069 6.26091,-33.27804 16.54668,-47.01361c1.78883,-2.45677 3.68946,-4.69019 5.7019,-6.92362c-16.09947,6.14192 -33.76417,17.8674 -49.52824,33.61305c-14.75785,15.07562 -26.38524,32.16133 -32.53435,47.79531zM358.06468,563.30367c7.49073,-20.54751 22.80758,-37.63322 42.82012,-47.12528c-5.14289,-15.18729 -5.9255,-31.82631 -1.78883,-47.79531c0.89442,-3.68515 2.12424,-7.14696 3.46586,-10.60877c-12.18641,11.72548 -23.5902,28.92286 -31.97534,48.80035c-8.38514,19.65414 -12.74541,39.86665 -12.52181,56.72901z" vector-effect="non-scaling-stroke"/></g><defs><path id="path-17455747702441907" d="M0,0h1440v829h-1440zM408.82274,512.82825c5.59009,-2.01008 11.40379,-3.46181 17.5529,-4.24351l74.34825,-7.25863l-18.78272,-67.78447c-2.01243,-6.36526 -3.24225,-12.8422 -3.68946,-19.4308c-32.86975,0.89337 -62.83266,23.56264 -71.106,56.84068c-3.57766,13.95891 -2.79505,28.47618 1.67703,41.87673zM501.5065,363.07707c-9.16775,12.39551 -14.19884,27.24779 -14.86965,42.21174c4.80748,0.33501 9.61496,1.11671 14.42244,2.3451l75.35447,21.44089l8.72055,-71.9163c0.55901,-6.81195 1.90063,-13.40055 4.02487,-19.65414c-8.60875,-3.23847 -17.6647,-4.91354 -26.94425,-4.91354c-3.80126,0 -7.26712,0.44669 -11.06839,0.89337c-20.01254,3.01512 -37.45363,13.6239 -49.64004,29.59289zM630.07867,299.2011c-13.52803,8.04033 -23.9256,19.98916 -30.07471,34.05974c4.24847,2.23343 8.27334,4.69019 12.18641,7.59365l61.49104,48.57701l35.7766,-63.87597c3.13045,-6.03025 6.81992,-11.50214 11.18019,-16.52735c-14.19884,-13.17721 -32.98156,-20.43584 -51.87607,-20.43584c-13.19262,0 -26.83245,3.35014 -38.68345,10.60877zM784.36527,288.03397c-3.91307,0 -7.71433,0.44669 -11.51559,0.89337c-15.42866,2.45677 -29.6275,9.60373 -40.69589,20.2125c3.01865,3.57348 5.9255,7.48198 8.38514,11.61381l39.46607,69.90622l59.4786,-46.00857c4.47208,-3.79682 9.27956,-7.14696 14.31064,-9.82707c-5.14289,-12.61885 -13.75163,-23.56264 -24.93182,-31.82631c-10.17397,-7.59365 -21.57776,-12.28384 -33.65237,-14.07058l-0.33541,0.44669c-0.33541,-0.22334 -0.67081,-0.44669 -1.00622,-0.67003c-3.24225,-0.33501 -6.37271,-0.55836 -9.50316,-0.67003zM912.04303,336.4993c-6.37271,-2.12175 -12.74541,-3.01512 -18.67091,-3.01512c-9.83857,0 -19.67713,1.89841 -28.95669,5.69524c1.22982,3.79682 2.12424,7.70532 2.68325,11.72548l9.83857,79.73329l72.55942,-19.87749c6.26091,-2.01008 12.74541,-3.23847 19.34173,-3.68515c-0.33541,-12.73053 -3.91307,-25.12604 -10.50938,-36.18149c-10.17397,-17.42072 -26.72065,-29.70456 -46.28598,-34.39475zM977.22352,415.11588c-0.33541,4.91354 -1.11802,9.82707 -2.34784,14.74061l-21.35416,74.93143l71.88861,8.59869c6.70811,0.55836 13.30442,1.89841 19.56533,4.02017c8.72055,-22.78094 5.9255,-48.35366 -7.37892,-68.45449c-0.2236,-0.11167 -0.44721,-0.33501 -0.67081,-0.44669l0.2236,-0.33501c-4.58388,-6.81195 -10.28577,-12.8422 -17.21749,-17.97908c-12.85722,-9.49206 -27.83867,-14.62894 -42.70832,-15.07562zM768.09615,817.21263c41.69127,-10.35778 76.88343,-36.04403 99.71514,-70.40086c21.97956,-34.5455 30.6847,-76.20579 24.70906,-116.39888c-0.34878,-2.27493 -0.78587,-4.4815 -1.22296,-6.68807c-14.04644,-70.13995 -70.78427,-123.91675 -141.82583,-133.96166l-35.19409,-1.31659c-27.71466,2.50786 -54.94151,11.84869 -78.94749,28.45182c-4.88553,3.35763 -9.56575,6.98048 -14.02079,10.7118l-15.7141,15.27438c-24.83838,27.56849 -39.86169,62.52605 -42.74745,99.11615l-0.36006,21.06216c0.50763,12.33161 2.4458,24.68694 5.76595,36.82081l14.90554,38.22909c0.25387,0.5104 0.59605,0.95245 0.84992,1.46285c12.00711,20.2548 28.22199,38.10077 47.56955,51.96657c20.04296,14.03443 43.1899,23.68676 67.57096,28.00088c7.01364,1.21594 13.99858,2.02994 21.13145,2.30529l11.53268,0.12138c11.66072,-0.26051 23.23536,-1.72683 34.72392,-4.39897c0.17661,-0.13671 0.33335,-0.11666 0.5784,-0.16496c0.24505,-0.0483 0.4901,-0.0966 0.98019,-0.19321zM884.98697,565.98378l-2.01243,-16.08066l-18.33551,-10.27376c1.45342,1.89841 3.01865,3.68515 4.47208,5.58356zM881.74471,539.071l-4.24847,-34.05974l-35.21759,-4.24351l13.41623,23.78598zM832.55188,499.65104l-20.57155,-2.45677c10.28577,5.36022 20.12434,11.83716 29.18029,19.20746l1.22982,0.67003zM779.44599,483.79372l-17.10569,-13.6239l-21.24236,5.80691l7.82613,2.23343c9.50316,1.00504 18.89452,2.79178 28.06227,5.24855zM709.79341,476.42341l-19.67713,-5.58356l-18.11191,13.95891l10.73298,-1.00504c1.67703,-0.55836 3.24225,-0.89337 4.91928,-1.34006zM643.9421,495.74254l-21.57776,2.12175l-11.6274,20.77086l11.18019,-5.91858c0.78261,-0.55836 1.56523,-1.11671 2.34784,-1.67507zM612.30217,498.86934l-35.7766,3.57348l-4.36027,36.62818l25.04362,-13.28888zM570.93547,549.34476l-2.90685,23.89765l6.93172,-8.37535c1.22982,-2.12175 2.45964,-4.13184 3.80126,-6.14192l10.84478,-19.31913zM555.61861,601.83026l-13.86343,16.63902l6.0373,21.99924l5.14289,-16.52735zM535.15887,626.28627l-22.80758,27.35946l22.36038,28.81119l8.49694,-27.24779zM540.97257,690.38558l17.44109,22.44593l-0.55901,-5.13688c-0.44721,-1.22838 -0.89442,-2.56844 -1.22982,-3.90849l-9.27956,-33.61305zM570.15286,741.19601l2.01243,18.20242l20.34794,12.0605l-1.56523,-2.90345c-4.13667,-4.80186 -7.93793,-9.93874 -11.40379,-15.18729zM884.31616,759.06341l3.13045,-23.89765l-5.14289,6.47693l-15.87587,27.58281zM900.52743,705.4612l11.9628,-15.07562l-5.7019,-21.32921l-2.34784,8.152c-0.44721,3.23847 -1.00622,6.36526 -1.56523,9.60373zM919.53375,681.45188l21.35416,-26.91278l-21.80137,-28.69952l-7.37892,25.90774zM912.26663,617.12922l-14.86965,-19.65414l0.33541,2.68011c0.67081,2.12175 1.34162,4.35518 2.01243,6.58861l7.49073,28.14116zM915.28528,606.07377l9.39136,-32.71968l-32.53435,-18.31409l3.01865,24.34434zM927.24808,564.75539l14.86965,-51.92714l-55.90094,-6.70028l4.69568,38.19158zM944.68918,503.55953l21.68957,-75.93647c1.11802,-4.13184 1.78883,-8.37535 2.12424,-12.50718c-5.7019,0.44669 -11.29199,1.5634 -16.99389,3.1268l-73.67744,20.2125l7.15532,57.95739zM869.55831,440.80028l-52.99409,14.51727l19.90074,35.28812l39.80147,4.80186zM808.73808,457.4393l-36.11201,9.93874l23.25479,18.42576l30.85732,3.68515zM804.71322,450.404l-26.83245,-47.46029l-43.93814,33.94807l30.96912,24.34434zM727.0109,442.252l-28.06227,21.7759l27.50326,7.81699l28.17408,-7.70532zM720.19099,436.89178l-43.93814,-34.72977l-26.83245,47.79531l39.35426,11.16713zM644.83652,457.77431l-17.5529,31.26796l28.84489,-2.79178l23.8138,-18.42576zM636.56318,455.42921l-52.54689,-14.96395l-6.48451,53.49054l39.68967,-3.90849zM575.29575,438.00849l-76.47249,-21.7759c-4.24847,-1.11671 -8.16154,-1.67507 -12.18641,-1.89841c0.44721,5.58356 1.56523,11.2788 3.24225,16.75069l19.22992,69.57121l59.3668,-5.80691zM511.45687,508.91975l14.98145,54.38391l36.11201,-19.09579l4.91928,-40.87169zM528.78616,571.56734l10.06217,36.51651l18.67091,-22.33426l3.80126,-31.37963zM521.18363,575.69918l-49.19283,26.01941l34.88219,44.89185l25.49083,-30.59793zM464.72368,605.62708l-67.75194,35.84648c-3.46586,1.89841 -6.81992,4.24351 -9.95037,6.70028c4.24847,3.79682 9.05595,7.03529 14.19884,9.82707l64.28608,38.19158l36.00021,-43.21678zM472.99702,700.54767l47.1804,28.02949l11.51559,-36.73985l-24.70822,-31.82631zM527.66814,733.04401l35.4412,20.9942l-2.90685,-25.57272l-22.13677,-28.47618zM924.56484,736.61749l-9.50316,-36.06982l-16.77028,21.10587l-4.24847,32.04966zM932.94998,731.81562l46.73319,-26.35442l-33.54057,-44.11015l-23.9256,30.15124zM987.7329,700.99435l69.65257,-39.19662c3.68946,-2.12175 7.04352,-4.46685 10.17397,-7.14696c-4.36027,-3.68515 -9.16775,-6.81195 -14.42244,-9.38039l-65.1805,-36.51651l-36.00021,45.33854zM980.46578,604.62204l-47.73941,-26.80111l-10.62118,37.07486l24.48461,32.273zM985.94407,597.58675l49.30463,-62.2009c2.23604,-3.1268 4.24847,-6.25359 6.0373,-9.60373c-5.36649,-1.67507 -10.95658,-2.68011 -16.65848,-3.1268l-73.67744,-8.82203l-15.76407,55.27728zM856.58929,343.08791c-4.24847,2.3451 -8.27334,5.02521 -12.0746,8.26367l-60.37302,46.67859l28.39768,50.1404l56.01274,-15.29896l-9.95037,-80.73833c-0.55901,-3.1268 -1.22982,-6.14192 -2.01243,-9.04537zM726.4519,315.17009c-3.57766,4.24351 -6.81992,9.04537 -9.39136,14.18225l-36.67102,65.3277l46.62139,36.85152l46.62139,-36.06982l-39.91327,-70.79959c-2.12424,-3.46181 -4.58388,-6.58861 -7.26712,-9.49206zM597.20892,341.1895c-1.67703,5.36022 -2.68325,10.83211 -3.13045,16.52735l-8.94415,73.92639l56.01274,15.96899l28.39768,-50.69876l-62.38545,-49.3587c-3.24225,-2.45677 -6.59631,-4.57852 -9.95037,-6.36526zM411.84139,520.86858c2.79505,6.03025 6.37271,11.83716 10.62118,17.08571l44.27355,57.06402l52.09968,-27.69448l-15.98767,-57.62238l-75.35447,7.48198c-5.47829,0.67003 -10.73298,1.89841 -15.65226,3.68515zM404.01526,524.21872c-28.17408,13.73557 -45.83877,44.3335 -41.81391,77.05318c1.90063,15.52231 8.49694,29.81623 18.78272,41.09503c3.57766,-3.01512 7.49073,-5.69524 11.7392,-8.04033l66.74573,-35.39979l-43.37913,-55.83564c-4.91928,-5.80691 -8.94415,-12.17217 -12.0746,-18.87245zM1091.59685,615.56582c4.69568,-19.54247 1.67703,-39.86665 -8.49694,-56.84068c-7.93793,-13.40055 -19.90074,-23.78598 -33.87597,-29.9279c-2.01243,4.02017 -4.47208,7.92866 -7.26712,11.72548l-48.63382,61.30753l63.95068,35.84648c5.9255,3.01512 11.40379,6.81195 16.43488,11.05546c8.60875,-9.26872 14.64605,-20.54751 17.8883,-33.16637zM1053.80782,462.57617c6.48451,18.53743 6.48451,39.19662 -0.78261,57.95739c15.20506,7.03529 28.39768,18.53743 37.34183,33.16637c1.34162,2.23343 2.57144,4.46685 3.68946,6.81195c-0.55901,-15.96899 -4.80748,-34.28308 -12.18641,-52.26216c-7.26712,-17.97908 -17.21749,-33.94807 -28.06227,-45.67355zM951.73269,348.67147c5.25469,5.13688 9.95037,10.94379 13.75163,17.53239c7.49073,12.50718 11.40379,26.46609 11.851,40.76002c16.99389,0.55836 33.76417,6.14192 47.6276,16.52735c2.12424,1.45173 4.02487,3.1268 5.9255,4.80186c-6.26091,-15.07562 -17.32929,-31.26796 -31.75174,-46.00857c-15.20506,-15.41064 -31.86354,-27.24779 -47.404,-33.61305zM817.12322,286.69391c5.8137,2.45677 11.51559,5.69524 16.77028,9.49206c12.52181,9.04537 21.91317,21.10587 27.61507,34.95311c16.43488,-6.70028 34.88219,-8.152 52.65869,-3.57348c2.45964,0.55836 4.69568,1.34006 7.04352,2.12175c-11.7392,-11.50214 -28.28588,-22.22258 -46.95679,-30.15124c-20.01254,-8.37535 -40.24868,-12.8422 -57.13076,-12.8422zM670.66275,280.44032c20.34794,0.44669 40.36048,8.37535 55.56554,22.66927c12.29821,-11.72548 27.95047,-19.76582 45.27976,-22.22258c1.67703,-0.22334 3.35406,-0.44669 5.03108,-0.55836c-14.86965,-5.36022 -33.09336,-8.26367 -52.21148,-8.26367c-19.67713,-0.67003 -38.57165,2.56844 -53.6649,8.37535zM525.76751,332.36747c7.49073,-3.68515 15.65226,-6.14192 24.03741,-7.48198c14.53425,-2.12175 29.06849,-0.55836 42.48472,4.69019c6.93172,-15.29896 18.44731,-28.3645 33.09336,-37.29821c2.12424,-1.22838 4.24847,-2.3451 6.48451,-3.46181c-17.32929,-0.44669 -38.34805,4.02017 -59.1432,12.8422c-18.67091,8.37535 -35.21759,19.31913 -46.95679,30.7096zM418.3259,432.64827c15.09325,-16.75069 36.78282,-26.91278 59.81401,-27.47113c0.67081,-16.75069 6.26091,-33.27804 16.54668,-47.01361c1.78883,-2.45677 3.68946,-4.69019 5.7019,-6.92362c-16.09947,6.14192 -33.76417,17.8674 -49.52824,33.61305c-14.75785,15.07562 -26.38524,32.16133 -32.53435,47.79531zM358.06468,563.30367c7.49073,-20.54751 22.80758,-37.63322 42.82012,-47.12528c-5.14289,-15.18729 -5.9255,-31.82631 -1.78883,-47.79531c0.89442,-3.68515 2.12424,-7.14696 3.46586,-10.60877c-12.18641,11.72548 -23.5902,28.92286 -31.97534,48.80035c-8.38514,19.65414 -12.74541,39.86665 -12.52181,56.72901z" vector-effect="non-scaling-stroke"/></defs></g></svg>