<svg version="1.2" xmlns="http://www.w3.org/2000/svg" xmlns:xlink="http://www.w3.org/1999/xlink" overflow="visible" preserveAspectRatio="none" viewBox="0 0 15.999997292182282 14.999987117654216" width="15.999997292182282" height="14.999987117654216"><g transform="translate(0, 0)"><g transform="translate(-0.000004647445551051211, -0.000002882345784677398) rotate(0)"><path style="stroke-width: 0; stroke-linecap: butt; stroke-linejoin: miter; fill: rgb(255, 255, 255);" d="M0.20021,4.8701v10.12989h3.43718v-10.12989zM3.85722,1.74869c0.00999,-0.47116 -0.17985,-0.92268 -0.52957,-1.25642c-0.3697,-0.33374 -0.86929,-0.51042 -1.37887,-0.49079c-0.50958,-0.01963 -1.00917,0.15705 -1.39885,0.49079c-0.35971,0.32392 -0.55954,0.77545 -0.54955,1.25642c-0.00999,0.47116 0.17985,0.92268 0.51957,1.2466c0.3697,0.34355 0.8593,0.52024 1.36888,0.50061v0c0.51957,0.01963 1.02916,-0.15705 1.40885,-0.50061c0.34971,-0.32392 0.54955,-0.77545 0.52957,-1.2466v0zM15.98728,9.19886c0.08993,-1.22697 -0.29975,-2.43432 -1.07912,-3.39626c-0.73939,-0.77545 -1.77854,-1.19753 -2.85766,-1.15826c-0.39967,0 -0.79935,0.04908 -1.18903,0.15705c-0.31974,0.09816 -0.6095,0.24539 -0.86929,0.44171c-0.20983,0.15705 -0.40966,0.33374 -0.58952,0.53005c-0.15987,0.17668 -0.29975,0.373 -0.42965,0.56932v0v-1.47237h-3.44718v0.49079c0,0.32392 0,1.33495 0,3.02326c0,1.68832 0,3.89687 0,6.61584h3.46716v-5.65389c-0.02998,-0.29447 0,-0.57913 0.06994,-0.86379c0.13989,-0.34355 0.3697,-0.63803 0.65946,-0.87361c0.30975,-0.24539 0.69943,-0.36318 1.0991,-0.35337c0.51957,-0.03926 1.01917,0.19632 1.31892,0.60858c0.30975,0.51042 0.44963,1.08955 0.41966,1.6785v5.41831h3.42719v-5.76187z" vector-effect="non-scaling-stroke"/></g><defs><path id="path-17453841956771015" d="M0.20021,4.8701v10.12989h3.43718v-10.12989zM3.85722,1.74869c0.00999,-0.47116 -0.17985,-0.92268 -0.52957,-1.25642c-0.3697,-0.33374 -0.86929,-0.51042 -1.37887,-0.49079c-0.50958,-0.01963 -1.00917,0.15705 -1.39885,0.49079c-0.35971,0.32392 -0.55954,0.77545 -0.54955,1.25642c-0.00999,0.47116 0.17985,0.92268 0.51957,1.2466c0.3697,0.34355 0.8593,0.52024 1.36888,0.50061v0c0.51957,0.01963 1.02916,-0.15705 1.40885,-0.50061c0.34971,-0.32392 0.54955,-0.77545 0.52957,-1.2466v0zM15.98728,9.19886c0.08993,-1.22697 -0.29975,-2.43432 -1.07912,-3.39626c-0.73939,-0.77545 -1.77854,-1.19753 -2.85766,-1.15826c-0.39967,0 -0.79935,0.04908 -1.18903,0.15705c-0.31974,0.09816 -0.6095,0.24539 -0.86929,0.44171c-0.20983,0.15705 -0.40966,0.33374 -0.58952,0.53005c-0.15987,0.17668 -0.29975,0.373 -0.42965,0.56932v0v-1.47237h-3.44718v0.49079c0,0.32392 0,1.33495 0,3.02326c0,1.68832 0,3.89687 0,6.61584h3.46716v-5.65389c-0.02998,-0.29447 0,-0.57913 0.06994,-0.86379c0.13989,-0.34355 0.3697,-0.63803 0.65946,-0.87361c0.30975,-0.24539 0.69943,-0.36318 1.0991,-0.35337c0.51957,-0.03926 1.01917,0.19632 1.31892,0.60858c0.30975,0.51042 0.44963,1.08955 0.41966,1.6785v5.41831h3.42719v-5.76187z" vector-effect="non-scaling-stroke"/></defs></g></svg>