<svg version="1.2" xmlns="http://www.w3.org/2000/svg" xmlns:xlink="http://www.w3.org/1999/xlink" overflow="visible" preserveAspectRatio="none" viewBox="0 0 20.000004933962142 13" width="20.000004933962142" height="13"><g transform="translate(0, 0)"><g transform="translate(0.000009999999999399378, -0.000009999999999933673) rotate(0)"><path style="stroke-width: 0; stroke-linecap: butt; stroke-linejoin: miter; fill: rgb(154, 207, 33);" d="M10.14861,13c-2.72856,0 -5.45305,0 -8.18161,0c-1.26654,0 -1.96701,-0.65871 -1.96701,-1.84741c0,-3.09289 0,-6.18579 0,-9.28247c0,-1.2152 0.68825,-1.85498 1.98737,-1.85498h8.035c0.77377,0 1.55161,0 2.32538,0.00379c0.77784,0 1.55161,0.00379 2.32946,0.00379c1.2869,0 2.34167,-0.00757 3.315,-0.02271h0.04072c0.56607,0 1.07106,0.18171 1.42537,0.51485c0.35838,0.33692 0.54571,0.79878 0.54164,1.33634c-0.02036,2.08591 -0.01629,4.20588 -0.01222,6.25772c0,1.01835 0,2.04048 0,3.05882c0,1.17734 -0.69639,1.82848 -1.95072,1.82848c-2.63082,0 -5.25757,0.00379 -7.88839,0.00379zM1.19731,1.69598l-0.00814,0.55271c-0.00407,0.08328 -0.00814,0.14764 -0.00814,0.212c0,2.89225 0,5.78451 0,8.67676c0,0.59435 0.18733,0.76849 0.83079,0.76849h15.96411c0.65567,0 0.83486,-0.17036 0.83486,-0.79121c0,-2.8809 0,-5.76179 0,-8.64269c0,-0.07193 -0.00407,-0.14007 -0.01222,-0.22335l-0.01222,-0.54514l-0.3706,0.25743l-0.13439,0.09464c-0.06923,0.04921 -0.12625,0.08707 -0.18326,0.12871l-7.57481,5.59144c-0.22806,0.16657 -0.39096,0.24228 -0.52942,0.24228c-0.13846,0 -0.29729,-0.07193 -0.52128,-0.2385l-7.90061,-5.82994l-0.37467,-0.24228zM2.91182,1.52563l1.18916,0.87449c1.8489,1.36284 3.69374,2.72568 5.53857,4.09231c0.08552,0.06436 0.2077,0.14007 0.36245,0.14007c0.15475,0 0.281,-0.0795 0.36245,-0.14007c0.66789,-0.50349 1.33984,-0.99563 2.0118,-1.49156l4.70778,-3.47525l0.46019,-0.38235h-15.08446z" vector-effect="non-scaling-stroke"/></g><defs><path id="path-1745384195598578" d="M10.14861,13c-2.72856,0 -5.45305,0 -8.18161,0c-1.26654,0 -1.96701,-0.65871 -1.96701,-1.84741c0,-3.09289 0,-6.18579 0,-9.28247c0,-1.2152 0.68825,-1.85498 1.98737,-1.85498h8.035c0.77377,0 1.55161,0 2.32538,0.00379c0.77784,0 1.55161,0.00379 2.32946,0.00379c1.2869,0 2.34167,-0.00757 3.315,-0.02271h0.04072c0.56607,0 1.07106,0.18171 1.42537,0.51485c0.35838,0.33692 0.54571,0.79878 0.54164,1.33634c-0.02036,2.08591 -0.01629,4.20588 -0.01222,6.25772c0,1.01835 0,2.04048 0,3.05882c0,1.17734 -0.69639,1.82848 -1.95072,1.82848c-2.63082,0 -5.25757,0.00379 -7.88839,0.00379zM1.19731,1.69598l-0.00814,0.55271c-0.00407,0.08328 -0.00814,0.14764 -0.00814,0.212c0,2.89225 0,5.78451 0,8.67676c0,0.59435 0.18733,0.76849 0.83079,0.76849h15.96411c0.65567,0 0.83486,-0.17036 0.83486,-0.79121c0,-2.8809 0,-5.76179 0,-8.64269c0,-0.07193 -0.00407,-0.14007 -0.01222,-0.22335l-0.01222,-0.54514l-0.3706,0.25743l-0.13439,0.09464c-0.06923,0.04921 -0.12625,0.08707 -0.18326,0.12871l-7.57481,5.59144c-0.22806,0.16657 -0.39096,0.24228 -0.52942,0.24228c-0.13846,0 -0.29729,-0.07193 -0.52128,-0.2385l-7.90061,-5.82994l-0.37467,-0.24228zM2.91182,1.52563l1.18916,0.87449c1.8489,1.36284 3.69374,2.72568 5.53857,4.09231c0.08552,0.06436 0.2077,0.14007 0.36245,0.14007c0.15475,0 0.281,-0.0795 0.36245,-0.14007c0.66789,-0.50349 1.33984,-0.99563 2.0118,-1.49156l4.70778,-3.47525l0.46019,-0.38235h-15.08446z" vector-effect="non-scaling-stroke"/></defs></g></svg>