<?xml version="1.0" encoding="UTF-8"?>
<svg xmlns="http://www.w3.org/2000/svg" id="Layer_1" data-name="Layer 1" width="101.54" height="101.54" viewBox="0 0 101.54 101.54">
  <defs>
    <style>
      .cls-1 {
        isolation: isolate;
        opacity: .2;
      }

      .cls-2 {
        fill: #547582;
      }

      .cls-2, .cls-3, .cls-4 {
        stroke-width: 0px;
      }

      .cls-3 {
        fill: #9ace1d;
      }

      .cls-4 {
        fill: #fff;
      }
    </style>
  </defs>
  <g class="cls-1">
    <circle class="cls-4" cx="50.77" cy="50.77" r="50.27"></circle>
    <path class="cls-2" d="m50.77,101.54C22.78,101.54,0,78.76,0,50.77S22.78,0,50.77,0s50.77,22.78,50.77,50.77-22.78,50.77-50.77,50.77Zm0-100.54C23.33,1,1,23.33,1,50.77s22.33,49.77,49.77,49.77,49.77-22.33,49.77-49.77S78.21,1,50.77,1Z"></path>
  </g>
  <g>
    <path class="cls-3" d="m32.19,21.63c-6.21,0-11.25,5.05-11.25,11.25s5.03,11.25,11.25,11.25,11.25-5.05,11.25-11.25-5.05-11.25-11.25-11.25Zm0,20.63c-5.14,0-9.38-4.2-9.38-9.38s4.21-9.38,9.38-9.38,9.38,4.18,9.38,9.38-4.24,9.38-9.38,9.38Z"></path>
    <path class="cls-3" d="m69.94,21.63c-6.07,0-11,5.16-11,11.5s4.92,11.5,11,11.5,11-5.16,11-11.5-4.94-11.5-11-11.5Zm0,21.08c-5.03,0-9.17-4.29-9.17-9.58s4.11-9.58,9.17-9.58,9.17,4.28,9.17,9.58-4.14,9.58-9.17,9.58Z"></path>
    <path class="cls-3" d="m32.19,24.91c-.46,0-.94.3-.94.94v.9c-1.84.41-3.23,2.02-3.23,3.97,0,1.38.7,2.17,1.54,2.58.84.41,1.73.47,2.54.55s1.54.19,1.91.38c.23.13.48.26.48.89,0,1.2-.98,2.19-2.26,2.2-1.08-.02-1.91-.68-2.27-1.85-.41-1.18-2.13-.63-1.79.56.6,1.86,1.86,2.73,3.08,3.05v.82c0,1.27,1.88,1.22,1.88,0v-.82c1.84-.41,3.23-2.03,3.23-3.97,0-1.36-.7-2.17-1.54-2.58-.84-.41-1.73-.47-2.54-.55s-1.54-.2-1.91-.39c-.28-.14-.48-.32-.48-.89,0-1.22.98-2.18,2.26-2.19,1.15.05,1.9.64,2.27,1.84.4,1.16,2.11.67,1.79-.56-.47-1.46-1.45-2.63-3.09-3.05v-.89c.01-.62-.47-.94-.93-.94h0Z"></path>
    <path class="cls-3" d="m69.69,24.91c-.46,0-.94.3-.94.94v.9c-1.84.41-3.23,2.02-3.23,3.97,0,1.38.7,2.17,1.54,2.58.84.41,1.73.47,2.54.55s1.54.19,1.91.38c.23.13.48.26.48.89,0,1.2-.98,2.19-2.26,2.2-1.08-.02-1.91-.68-2.27-1.85-.41-1.18-2.13-.63-1.79.56.6,1.86,1.86,2.73,3.08,3.05v.82c0,1.27,1.88,1.22,1.88,0v-.82c1.84-.41,3.23-2.03,3.23-3.97,0-1.36-.7-2.17-1.54-2.58-.84-.41-1.73-.47-2.54-.55s-1.54-.2-1.91-.39c-.28-.14-.48-.32-.48-.89,0-1.22.98-2.18,2.26-2.19,1.15.05,1.9.64,2.27,1.84.4,1.16,2.11.67,1.79-.56-.47-1.46-1.45-2.63-3.09-3.05v-.89c.01-.62-.47-.94-.93-.94h0Z"></path>
    <path class="cls-2" d="m52.62,29.33l.73.74h-7.1c-1.25,0-1.25,1.88,0,1.88h9.38c.83,0,1.25-1.01.67-1.59l-2.34-2.34c-.89-.89-2.2.45-1.32,1.32h-.02Z"></path>
    <path class="cls-2" d="m46.25,33.82c-.84,0-1.27,1.01-.67,1.61l2.32,2.31c.93.91,2.25-.41,1.32-1.34l-.71-.7h7.11c1.25,0,1.25-1.88,0-1.88h-9.38.01Z"></path>
    <path class="cls-2" d="m80.62,61.28c-2.64-4.54-5.27-9.06-7.89-13.59-.63-1.1-2.16-1.57-3.46-.82h0l-4.3,2.46c-1.21.69-1.71,2.2-1.02,3.4l.12.19c-1.96.69-3.98.53-5.46.28-2.43-.43-5.21-.52-7.71-.23-1.89.2-4.89.81-6.22,2.48l-6.01-1.2.08-.15c.71-1.22.32-2.8-.95-3.52l-4.29-2.46c-1.24-.71-2.84-.28-3.54.94l-8.68,14.94c-.73,1.25-.28,2.81.95,3.52l4.29,2.46c1.24.71,2.74.25,3.39-.71l2.41,1.8c-.77,1.43-.25,3.2,1.15,4.01.41.23.84.36,1.29.39-.2,1.2.35,2.45,1.46,3.08.89.52,1.93.52,2.8.11.29.57.66.94,1.18,1.24.89.52,1.95.52,2.81.11.26.5.66.95,1.18,1.24,1.43.82,3.28.33,4.1-1.1l.46-.77c1.03.6,2.06,1.18,3.09,1.78,1.44.83,3.27.33,4.1-1.09.2-.35.33-.71.38-1.1,1.41.63,3.06.11,3.83-1.23.23-.41.38-.84.4-1.29,1.21.21,2.45-.33,3.09-1.44.2-.35.34-.73.39-1.11,1.41.63,3.06.11,3.83-1.23.66-1.08.36-2.27.2-2.61l3.77-3.75c.7,1.22,2.29,1.51,3.48.83l4.3-2.46c1.17-.68,1.68-2.18.98-3.38h0l.02-.02Zm-52.18,6.83c-.19.33-.61.46-.97.26,0,0-2.86-1.64-4.29-2.46-.33-.19-.47-.61-.26-.96.16-.29,5.79-9.95,8.67-14.94.2-.35.63-.46.97-.26,1.43.82,4,2.3,4.29,2.46.35.2.47.62.26.97-2.88,4.97-8.51,14.64-8.67,14.93h0Zm7.93,4.23l-.41.71c-.32.55-1.01.71-1.54.41s-.73-.98-.41-1.54l.41-.71c.29-.52.96-.74,1.54-.4.53.3.73.97.41,1.52h0Zm2.33,4.18c-.32.55-1,.71-1.54.41-.53-.3-.74-.97-.42-1.52.86-1.49,1.59-2.74,2.47-4.27.29-.52.96-.74,1.55-.41.53.3.73.97.41,1.52-.84,1.45-1.73,3-2.47,4.27Zm5.64-1.5c-.55.95-1.1,1.9-1.65,2.84-.32.55-1.01.71-1.54.41s-.74-.98-.41-1.52l1.65-2.84c.29-.52.98-.73,1.55-.41.52.3.73.97.4,1.52Zm3.18,2.75l-.83,1.43c-.32.55-1.02.71-1.54.41s-.73-.98-.41-1.54l.82-1.42c.29-.5.96-.74,1.54-.4.54.3.74.97.42,1.51h0Zm18.74-6.06c-.3.53-.98.73-1.55.41-3.66-2.1-9.32-5.33-10.91-6.26-1.08-.62-2.02,1.01-.94,1.63l8.77,5.03c.55.32.71,1,.41,1.52-.3.53-.98.73-1.55.41-2.5-1.44-5-2.87-7.51-4.31-1.09-.62-2.02,1.01-.94,1.63,2.03,1.16,4.05,2.32,6.08,3.49.55.32.7,1,.41,1.52-.3.53-.98.73-1.55.41-1.66-.96-3.34-1.91-5-2.87-1.08-.62-2.02,1.01-.94,1.63.95.55,1.91,1.09,2.86,1.64.55.32.71,1.01.41,1.52-.3.52-1,.73-1.55.41-1.09-.63-2.18-1.25-3.27-1.88.15-1.16-.38-2.36-1.48-3-.53-.3-1.1-.43-1.68-.4-.07-.96-.6-1.85-1.49-2.37-.53-.3-1.1-.43-1.68-.4-.07-.96-.61-1.85-1.5-2.37-1.34-.77-3.04-.41-3.94.84-.23-.3-.52-.55-.88-.76-1.16-.67-2.57-.48-3.49.34l-2.53-1.89,6.79-11.68,5.77,1.15c-.48.74-.95,1.55-1.36,2.38-.42.84-.77,1.7-1,2.5-.19.71-.36,1.57-.07,2.34.35.91,1.16,1.43,2.14,1.39.87-.02,1.75-.4,2.55-.87,1.48-.87,3.05-2.27,4.25-3.77l15.87,9.11c.61.32.77.98.47,1.51h0l.03.02Zm.59-3.11l-16.66-9.56c-.42-.25-.95-.13-1.23.27-1.08,1.54-2.78,3.09-4.18,3.91-.7.41-1.32.61-1.64.62-.21,0-.33,0-.39-.27-.02-.08-.02-.53.15-1.1.18-.62.48-1.38.87-2.16.76-1.55,1.93-3.29,2.48-3.84.83-.83,2.58-1.41,4.86-1.66,2.29-.26,4.96-.18,7.17.22,2.45.43,4.34.22,5.62-.12.38-.11.74-.21,1.11-.38h0c1.97,3.38,3.88,6.69,5.82,10.09-1.25,1.25-3,2.99-4,3.97h.02Zm11.82-5.57c-1.43.82-4.03,2.32-4.3,2.46-.36.21-.76.11-.9-.13-.15-.26-5.23-9.08-7.9-13.59-.14-.23-.04-.62.34-.84,1.43-.82,4.3-2.46,4.3-2.46.41-.23.77-.09.9.13h0c.16.28,5.26,9.06,7.89,13.59.14.23.02.63-.33.84Z"></path>
  </g>
</svg>
