<?xml version="1.0" encoding="UTF-8"?>
<svg xmlns="http://www.w3.org/2000/svg" id="Layer_1" data-name="Layer 1" width="101.54" height="101.54" viewBox="0 0 101.54 101.54">
  <defs>
    <style>
      .cls-1 {
        isolation: isolate;
        opacity: .2;
      }

      .cls-2 {
        fill: #547582;
      }

      .cls-2, .cls-3, .cls-4 {
        stroke-width: 0px;
      }

      .cls-3 {
        fill: #9ace1d;
      }

      .cls-4 {
        fill: #fff;
      }
    </style>
  </defs>
  <g class="cls-1">
    <circle class="cls-4" cx="50.77" cy="50.77" r="50.27"></circle>
    <path class="cls-2" d="m50.77,101.54C22.78,101.54,0,78.76,0,50.77S22.78,0,50.77,0s50.77,22.78,50.77,50.77-22.78,50.77-50.77,50.77Zm0-100.54C23.33,1,1,23.33,1,50.77s22.33,49.77,49.77,49.77,49.77-22.33,49.77-49.77S78.21,1,50.77,1Z"></path>
  </g>
  <g>
    <path class="cls-2" d="m50.77,47.77c6.37,0,11.57-5.2,11.57-11.59s-5.19-11.59-11.57-11.59c-2.88,0-5.64,1.07-7.77,3-.36.33-.39.88-.06,1.24s.88.39,1.24.06c1.8-1.64,4.14-2.54,6.58-2.54,5.4,0,9.8,4.41,9.8,9.82s-4.4,9.82-9.8,9.82-9.8-4.41-9.8-9.82c0-1.64.41-3.26,1.18-4.69.23-.42.07-.96-.35-1.2-.42-.23-.96-.07-1.19.35-.91,1.69-1.39,3.6-1.39,5.52-.01,6.41,5.17,11.61,11.56,11.61h0Z"></path>
    <path class="cls-3" d="m50.43,40.33c-1.38-.08-1.75-.91-1.82-1.11-.11-.38-.44-.66-.85-.66-.49,0-.88.4-.88.88,0,.07.01.14.02.21h0c.01.06.02.09.04.13.16.45.82,1.84,2.74,2.21v1.17c0,.48.4.88.88.88s.88-.4.88-.88v-1.15c.84-.15,1.4-.52,1.75-.84.65-.62,1.05-1.56,1.05-2.51,0-.89-.35-3.01-3.58-3.36-.64-.07-1.1-.27-1.36-.61-.23-.29-.26-.62-.26-.74,0-.15.05-1.51,1.51-1.51.96,0,1.36.61,1.43.75.13.33.44.55.82.55.49,0,.88-.4.88-.88,0-.14-.04-.28-.09-.4h0c-.25-.54-.95-1.38-2.15-1.68v-1.18c0-.49-.4-.88-.88-.88s-.88.4-.88.88v1.18c-1.73.41-2.39,2.03-2.39,3.18,0,1.27.83,2.84,3.18,3.11,2.02.22,2.02,1.27,2.02,1.62s-.13.88-.49,1.22c-.36.32-.88.47-1.57.42h0Z"></path>
    <path class="cls-3" d="m50.77,52.2c8.82,0,15.99-7.18,15.99-16.02s-7.18-16.02-15.99-16.02-16,7.18-16,16.02,7.18,16.02,16,16.02Zm0-30.28c7.85,0,14.23,6.4,14.23,14.26s-6.39,14.26-14.23,14.26-14.23-6.4-14.23-14.26,6.39-14.26,14.23-14.26Z"></path>
    <path class="cls-2" d="m35.84,60.94c-.16-.18-.4-.28-.64-.28s-.48.11-.64.28l-5.96,6.36c-.25.26-.3.63-.16.95.14.33.46.53.81.53h1.73v3.2c0,.48.4.88.88.88s.88-.4.88-.88v-4.08c0-.48-.4-.88-.88-.88h-.57l3.94-4.2,3.94,4.2h-.57c-.48,0-.88.4-.88.88v10.5h-4.97v-2.89c0-.48-.4-.88-.88-.88s-.88.4-.88.88v3.77c0,.48.4.88.88.88h6.74c.48,0,.88-.4.88-.88v-10.5h1.73c.35,0,.67-.21.81-.53.14-.33.07-.69-.16-.95l-6-6.36h-.03Z"></path>
    <path class="cls-2" d="m51.4,54.89c-.16-.18-.4-.28-.64-.28s-.48.11-.64.28l-5.96,6.36c-.25.26-.3.63-.16.95.14.33.46.53.81.53h1.73v16.56c0,.48.4.88.88.88h6.74c.49,0,.88-.4.88-.88v-16.56h1.73c.35,0,.67-.21.81-.53.14-.33.07-.69-.16-.95l-5.99-6.36h-.03Zm2.73,6.08c-.49,0-.88.4-.88.88v16.56h-4.97v-16.56c0-.48-.4-.88-.88-.88h-.57l3.94-4.2,3.94,4.2h-.58Z"></path>
    <path class="cls-2" d="m66.96,49.28c-.16-.18-.4-.28-.64-.28s-.48.11-.64.28l-5.96,6.36c-.25.26-.3.63-.16.95.14.33.46.53.81.53h1.73v5.38c0,.48.4.88.88.88s.88-.4.88-.88v-6.26c0-.48-.4-.88-.88-.88h-.57l3.94-4.2,3.94,4.2h-.57c-.49,0-.88.4-.88.88v22.16h-4.97v-12.39c0-.48-.4-.88-.88-.88s-.88.4-.88.88v13.27c0,.48.4.88.88.88h6.74c.49,0,.88-.4.88-.88v-22.16h1.73c.35,0,.67-.21.81-.53.14-.33.07-.69-.16-.95l-6-6.36h-.03Z"></path>
    <path class="cls-3" d="m31.47,36.5c0-.48-.4-.88-.88-.88h-5.16c-.49,0-.88.4-.88.88s.4.88.88.88h5.16c.48,0,.88-.4.88-.88Z"></path>
    <path class="cls-3" d="m31.73,43.41l-1.84.71c-.46.18-.68.69-.5,1.14.14.35.47.56.82.56.11,0,.21-.02.32-.06l1.84-.71c.46-.18.68-.69.5-1.14-.18-.46-.68-.68-1.13-.5h-.01Z"></path>
    <path class="cls-3" d="m29.89,28.87l1.84.71c.11.05.21.06.32.06.35,0,.68-.21.82-.56.18-.46-.05-.96-.5-1.14l-1.84-.71c-.46-.18-.96.05-1.13.5-.16.45.06.96.5,1.14h-.01Z"></path>
    <path class="cls-3" d="m75.68,35.62h-5.16c-.49,0-.88.4-.88.88s.4.88.88.88h5.16c.49,0,.88-.4.88-.88s-.4-.88-.88-.88Z"></path>
    <path class="cls-3" d="m68.74,45.05l1.84.71c.11.05.21.06.32.06.35,0,.68-.21.82-.56.18-.46-.05-.96-.5-1.14l-1.84-.71c-.46-.18-.96.05-1.13.5-.18.45.05.96.5,1.14h-.01Z"></path>
    <path class="cls-3" d="m69.06,29.64c.11,0,.21-.02.32-.06l1.84-.71c.46-.18.68-.69.5-1.14-.18-.46-.69-.68-1.13-.5l-1.84.71c-.46.18-.68.69-.5,1.14.14.35.47.56.82.56h-.01Z"></path>
  </g>
</svg>
