<?xml version="1.0" encoding="UTF-8"?>
<svg xmlns="http://www.w3.org/2000/svg" id="Layer_1" data-name="Layer 1" width="101.54" height="101.54" viewBox="0 0 101.54 101.54">
  <defs>
    <style>
      .cls-1 {
        isolation: isolate;
        opacity: .2;
      }

      .cls-2 {
        fill: #547582;
      }

      .cls-2, .cls-3, .cls-4 {
        stroke-width: 0px;
      }

      .cls-3 {
        fill: #9ace1d;
      }

      .cls-4 {
        fill: #fff;
      }
    </style>
  </defs>
  <g class="cls-1">
    <circle class="cls-4" cx="50.77" cy="50.77" r="50.27"></circle>
    <path class="cls-2" d="m50.77,101.54C22.78,101.54,0,78.76,0,50.77S22.78,0,50.77,0s50.77,22.78,50.77,50.77-22.78,50.77-50.77,50.77Zm0-100.54C23.33,1,1,23.33,1,50.77s22.33,49.77,49.77,49.77,49.77-22.33,49.77-49.77S78.21,1,50.77,1Z"></path>
  </g>
  <path class="cls-2" d="m80.55,60.31h0c-.55-.63-1.52-1.02-2.65-.83.11-1.52-.1-3.27-.62-5.3-1.16-4.49-3.6-9.01-6.48-12.07.35-.4.55-.92.55-1.49,0-.83-.45-1.57-1.12-1.98,2.42-3.85,3.13-6.62,2.04-8.07-.61-.81-1.67-1.06-2.91-.67-.93.29-1.53.77-1.96,1.13l-.04.04c-.37.3-.53.37-.58.38-.02-.02-.1-.07-.2-.23-.87-1.24-1.75-1.83-2.71-1.83s-1.84.6-2.71,1.83c-.11.14-.17.2-.2.23-.06-.01-.21-.08-.58-.38l-.04-.04c-.43-.36-1.03-.85-1.96-1.13-1.24-.38-2.3-.14-2.91.67-1.09,1.45-.38,4.24,2.04,8.07-.67.4-1.12,1.13-1.12,1.98,0,.57.2,1.08.55,1.49-2.88,3.06-5.32,7.58-6.48,12.07-.43,1.65-.64,3.11-.64,4.4-2.02-.79-3.89-1.31-6.05-.8-2.64.63-5.43,2.81-9.05,7.01-.94-.43-2.11-.26-2.89.51l-3.44,3.44c-.16.15-.24.37-.24.6s.08.43.24.6l10.62,10.6c.16.15.37.24.6.24s.43-.08.6-.24l3.44-3.43c.73-.73.92-1.76.6-2.67,2.17-.89,4.59-.96,7.69-.79.7.05,1.44.1,2.22.17,1.85.15,3.77.3,5.62.26,3.9-.08,6.25-1.18,9.38-2.83,3.19-1.69,10-5.71,11.28-7.39.92-1.21.97-2.61.13-3.55h-.02Zm-23.75-28.74h0c.23-.3.82-.15,1.07-.07.62.19,1.01.51,1.4.83l.04.04c.55.45,1.15.85,1.87.75.5-.07.95-.38,1.34-.92.51-.73.99-1.13,1.34-1.13s.82.4,1.34,1.13c.38.54.84.85,1.34.92.72.1,1.32-.31,1.87-.75l.04-.04c.38-.31.78-.64,1.4-.83.25-.07.85-.23,1.07.07.39.52.29,2.54-2.48,6.75h-9.15c-2.76-4.23-2.86-6.23-2.47-6.75h-.02Zm12.87,9.05c0,.36-.29.64-.64.64h-10.34c-.36,0-.64-.29-.64-.64s.29-.64.64-.64h10.34c.36,0,.64.3.64.64Zm-17.6,13.98c1.12-4.33,3.62-8.86,6.41-11.68.07.01.14.01.21.01h10.34c.07,0,.14,0,.21-.01,2.79,2.82,5.29,7.36,6.41,11.68.57,2.24.74,4.12.47,5.61-2.29,1.27-7.17,3.63-10.91,5.06.12-.71-.01-1.46-.41-2.12-.6-1-1.65-1.57-2.8-1.54-4.69,0-7.81-1.21-10.51-2.33-.07-1.31.12-2.88.58-4.68h0Zm-9.62,21.32l-2.84,2.85-9.45-9.42,2.85-2.85c.17-.17.39-.26.63-.26s.47.1.63.26l8.18,8.15c.36.35.36.92,0,1.26h0Zm36.64-13.07h0c-.9,1.17-6.6,4.74-10.73,6.93-2.92,1.55-5.11,2.56-8.64,2.64-1.77.04-3.64-.11-5.45-.26-.79-.06-1.54-.12-2.26-.17-2.77-.17-5.93-.23-8.81,1.07l-7.21-7.19c3.31-3.86,5.91-5.9,8.14-6.45,2.09-.5,3.97.27,6.36,1.26,2.79,1.15,6.28,2.6,11.52,2.6h.04c.55-.02,1.04.25,1.32.73s.29,1.04,0,1.5c-.51.87-2.42,1.32-5.08,1.2-2.52-.11-5.04-.7-6.03-1.23-.41-.21-.92-.06-1.12.36-.21.4-.06.92.36,1.12,1.31.68,4.57,1.44,7.58,1.44,1.47,0,2.88-.18,3.97-.64,4.01-1.12,11.52-4.71,14.27-6.31.92-.52,1.66-.39,1.97-.05.31.36.23.89-.2,1.45h0Z"></path>
  <path class="cls-3" d="m52.91,38.18c-2.89-.62-5.43-.12-7.36,1.43-.8.64-1.48,1.45-2.03,2.42v-3.75c4.46-.42,7.96-4.18,7.96-8.73,0-4.83-3.94-8.77-8.8-8.77s-8.78,3.93-8.78,8.77c0,4.56,3.5,8.31,7.96,8.73v3.75c-.55-.95-1.23-1.77-2.03-2.42-1.92-1.55-4.48-2.05-7.36-1.43-.38.08-.66.42-.66.81,0,3.11,1.16,5.9,3.25,7.9,1.81,1.73,4.2,2.74,6.8,2.93v2.48c0,.46.37.83.84.83s.84-.37.84-.83v-2.48c2.6-.18,4.99-1.2,6.8-2.93,2.09-1.99,3.25-4.8,3.25-7.9-.01-.39-.29-.73-.67-.81h0Zm-19.41,1.5c2.11-.31,3.88.1,5.28,1.23h0c1.79,1.45,2.89,4.06,3.06,7.24-4.67-.37-8.03-3.77-8.33-8.46h-.01Zm9.18-3.04c-3.93,0-7.13-3.19-7.13-7.11s3.2-7.1,7.13-7.1,7.13,3.19,7.13,7.11-3.2,7.1-7.13,7.1Zm.86,11.5c.17-3.18,1.27-5.8,3.06-7.24h0c1.09-.88,2.41-1.32,3.95-1.32.43,0,.87.04,1.32.11-.3,4.68-3.66,8.08-8.33,8.45h0Z"></path>
  <path class="cls-3" d="m42.92,35c-.47,0-.84-.37-.84-.83v-.65c-.97-.19-1.84-.67-2.27-1.45-.23-.4-.07-.9.33-1.13s.91-.07,1.13.33c.35.62,1.92.89,2.78.46.21-.11.36-.29.38-.51.01-.11.01-.3-.16-.45-.14-.13-.43-.32-1.03-.49-.17-.05-.36-.1-.56-.14-.68-.15-1.44-.35-2.02-.79-.55-.42-.87-1-.92-1.62-.05-.61.18-1.2.63-1.67.41-.42,1-.7,1.68-.83v-.63c0-.46.37-.83.84-.83s.84.37.84.83v.67c.98.19,1.74.68,2.12,1.38.21.4.07.9-.33,1.13-.41.21-.91.07-1.13-.33-.14-.26-.58-.49-1.11-.56-.68-.1-1.4.06-1.69.37-.12.12-.18.26-.17.39.01.18.16.33.27.42.29.23.87.36,1.37.48.21.05.43.1.63.15.73.2,1.3.5,1.71.87.54.49.79,1.19.68,1.92-.11.75-.6,1.42-1.3,1.76-.31.15-.67.26-1.05.32v.62c0,.44-.37.82-.84.82h.03Z"></path>
  <path class="cls-3" d="m66.37,55.43c.04-.21.02-.62-.33-.94-.32-.3-.87-.56-1.6-.76-.25-.07-.53-.13-.81-.2-.92-.21-1.97-.46-2.72-1.05-.69-.54-1.1-1.26-1.16-2.04-.06-.76.23-1.5.79-2.1.57-.6,1.47-.99,2.48-1.13v-1.19c0-.46.37-.83.84-.83s.84.37.84.83v1.2c1.42.2,2.53.87,3.04,1.82.21.4.07.9-.33,1.13-.41.21-.91.07-1.13-.33-.26-.49-.94-.85-1.84-.96-1.09-.14-2.2.11-2.69.63-.24.24-.35.54-.33.81.02.31.2.6.51.85.47.36,1.29.56,2.08.74.3.07.6.14.88.23.98.27,1.74.67,2.27,1.14.67.62.98,1.49.85,2.4-.13.95-.75,1.8-1.65,2.24-.49.24-1.06.39-1.68.46v1.18c0,.46-.37.83-.84.83s-.84-.37-.84-.83v-1.23c-1.37-.2-2.66-.85-3.25-1.92-.23-.4-.07-.9.33-1.13.41-.23.91-.07,1.13.33.62,1.13,3.1,1.44,4.39.81.43-.23.7-.58.76-1h0Z"></path>
</svg>
