<svg version="1.2" xmlns="http://www.w3.org/2000/svg" xmlns:xlink="http://www.w3.org/1999/xlink" overflow="visible" preserveAspectRatio="none" viewBox="0 0 972 972" width="972" height="972"><g transform="translate(1, 1)"><g transform="rotate(0) translate(-122.99999999999999,-734) translate(234, 318.99999999999994) rotate(0)"><g transform="translate(0, 0)"><path style="stroke: rgb(161, 161, 161); stroke-width: 1; stroke-linecap: butt; stroke-linejoin: miter; fill: rgba(218, 218, 218, 0); stroke-dasharray: 6;" d="M484.9999999999999 0 C752.678786879591 0 969.9999999999998 217.32121312041016 969.9999999999998 484.9999999999998 C969.9999999999998 752.6787868795907 752.678786879591 969.9999999999995 484.9999999999999 969.9999999999995 C217.3212131204104 969.9999999999995 0 752.6787868795907 0 484.9999999999998 C0 217.32121312041016 217.3212131204104 0 484.9999999999999 0 Z" vector-effect="non-scaling-stroke"/></g></g><defs><path id="path-17459186744481826" d="M484.9999999999999 0 C752.678786879591 0 969.9999999999998 217.32121312041016 969.9999999999998 484.9999999999998 C969.9999999999998 752.6787868795907 752.678786879591 969.9999999999995 484.9999999999999 969.9999999999995 C217.3212131204104 969.9999999999995 0 752.6787868795907 0 484.9999999999998 C0 217.32121312041016 217.3212131204104 0 484.9999999999999 0 Z" vector-effect="non-scaling-stroke"/></defs></g></svg>