<svg version="1.2" xmlns="http://www.w3.org/2000/svg" xmlns:xlink="http://www.w3.org/1999/xlink" overflow="visible" preserveAspectRatio="none" viewBox="0 0 13.725785401766188 31.16014884946435" width="13.725785401766188" height="31.16014884946435"><g transform="translate(0, 0)"><defs><path id="path-1745470673496468" d="M46.33918128655 29.1210868337416 C46.175438596491524 28.945305625489638 45.94152046783655 28.83983690053846 45.69590643274882 28.83983690053846 C45.4502923976611 28.83983690053846 45.216374269006124 28.945305625489638 45.052631578947654 29.1210868337416 C45.052631578947654 29.1210868337416 39.087719298245865 35.4843665724626 39.087719298245865 35.4843665724626 C38.84210526315814 35.742179011232146 38.78362573099439 36.11717892216966 38.92397660818738 36.4335850970232 C39.06432748538036 36.76171001909352 39.38011695906457 36.96092872177908 39.73099415204703 36.96092872177908 C39.73099415204703 36.96092872177908 41.46198830409382 36.96092872177908 41.46198830409382 36.96092872177908 C41.46198830409382 36.96092872177908 41.46198830409382 42.3398336942891 41.46198830409382 42.3398336942891 C41.46198830409382 42.82030233017779 41.85964912280728 43.2187397355489 42.33918128654997 43.2187397355489 C42.81871345029268 43.2187397355489 43.216374269006124 42.82030233017779 43.216374269006124 42.3398336942891 C43.216374269006124 42.3398336942891 43.216374269006124 36.08202268051927 43.216374269006124 36.08202268051927 C43.216374269006124 35.601554044630575 42.81871345029268 35.20311663925947 42.33918128654997 35.20311663925947 C42.33918128654997 35.20311663925947 41.76608187134529 35.20311663925947 41.76608187134529 35.20311663925947 C41.76608187134529 35.20311663925947 45.70760233918158 31.007805135645988 45.70760233918158 31.007805135645988 C45.70760233918158 31.007805135645988 49.649122807017854 35.20311663925947 49.649122807017854 35.20311663925947 C49.649122807017854 35.20311663925947 49.07602339181318 35.20311663925947 49.07602339181318 35.20311663925947 C48.584795321637735 35.20311663925947 48.19883040935702 35.601554044630575 48.19883040935702 36.08202268051927 C48.19883040935702 36.08202268051927 48.19883040935702 58.2421736674832 48.19883040935702 58.2421736674832 C48.19883040935702 58.2421736674832 43.22807017543887 58.2421736674832 43.22807017543887 58.2421736674832 C43.22807017543887 58.2421736674832 43.22807017543887 45.855457859328325 43.22807017543887 45.855457859328325 C43.22807017543887 45.37498922343963 42.830409356725426 44.976551818068515 42.35087719298272 44.976551818068515 C41.871345029240025 44.976551818068515 41.47368421052658 45.37498922343963 41.47368421052658 45.855457859328325 C41.47368421052658 45.855457859328325 41.47368421052658 59.121079708743004 41.47368421052658 59.121079708743004 C41.47368421052658 59.6015483446317 41.871345029240025 59.999985750002814 42.35087719298272 59.999985750002814 C42.35087719298272 59.999985750002814 49.08771929824593 59.999985750002814 49.08771929824593 59.999985750002814 C49.57894736842137 59.999985750002814 49.96491228070207 59.6015483446317 49.96491228070207 59.121079708743004 C49.96491228070207 59.121079708743004 49.96491228070207 36.96092872177907 49.96491228070207 36.96092872177907 C49.96491228070207 36.96092872177907 51.69590643274886 36.96092872177907 51.69590643274886 36.96092872177907 C52.04678362573133 36.96092872177907 52.36257309941554 36.749991271876716 52.50292397660852 36.43358509702319 C52.64327485380151 36.10546017495286 52.57309941520502 35.742179011232146 52.339181286550044 35.4843665724626 C52.339181286550044 35.4843665724626 46.33918128655 29.1210868337416 46.33918128655 29.1210868337416 Z" vector-effect="non-scaling-stroke"/></defs><g transform="translate(-38.84915081509201, -28.83983690053846)"><path style="stroke-width: 0; stroke-linecap: butt; stroke-linejoin: miter; fill: rgb(84, 117, 130);" d="M46.33918128655 29.1210868337416 C46.175438596491524 28.945305625489638 45.94152046783655 28.83983690053846 45.69590643274882 28.83983690053846 C45.4502923976611 28.83983690053846 45.216374269006124 28.945305625489638 45.052631578947654 29.1210868337416 C45.052631578947654 29.1210868337416 39.087719298245865 35.4843665724626 39.087719298245865 35.4843665724626 C38.84210526315814 35.742179011232146 38.78362573099439 36.11717892216966 38.92397660818738 36.4335850970232 C39.06432748538036 36.76171001909352 39.38011695906457 36.96092872177908 39.73099415204703 36.96092872177908 C39.73099415204703 36.96092872177908 41.46198830409382 36.96092872177908 41.46198830409382 36.96092872177908 C41.46198830409382 36.96092872177908 41.46198830409382 42.3398336942891 41.46198830409382 42.3398336942891 C41.46198830409382 42.82030233017779 41.85964912280728 43.2187397355489 42.33918128654997 43.2187397355489 C42.81871345029268 43.2187397355489 43.216374269006124 42.82030233017779 43.216374269006124 42.3398336942891 C43.216374269006124 42.3398336942891 43.216374269006124 36.08202268051927 43.216374269006124 36.08202268051927 C43.216374269006124 35.601554044630575 42.81871345029268 35.20311663925947 42.33918128654997 35.20311663925947 C42.33918128654997 35.20311663925947 41.76608187134529 35.20311663925947 41.76608187134529 35.20311663925947 C41.76608187134529 35.20311663925947 45.70760233918158 31.007805135645988 45.70760233918158 31.007805135645988 C45.70760233918158 31.007805135645988 49.649122807017854 35.20311663925947 49.649122807017854 35.20311663925947 C49.649122807017854 35.20311663925947 49.07602339181318 35.20311663925947 49.07602339181318 35.20311663925947 C48.584795321637735 35.20311663925947 48.19883040935702 35.601554044630575 48.19883040935702 36.08202268051927 C48.19883040935702 36.08202268051927 48.19883040935702 58.2421736674832 48.19883040935702 58.2421736674832 C48.19883040935702 58.2421736674832 43.22807017543887 58.2421736674832 43.22807017543887 58.2421736674832 C43.22807017543887 58.2421736674832 43.22807017543887 45.855457859328325 43.22807017543887 45.855457859328325 C43.22807017543887 45.37498922343963 42.830409356725426 44.976551818068515 42.35087719298272 44.976551818068515 C41.871345029240025 44.976551818068515 41.47368421052658 45.37498922343963 41.47368421052658 45.855457859328325 C41.47368421052658 45.855457859328325 41.47368421052658 59.121079708743004 41.47368421052658 59.121079708743004 C41.47368421052658 59.6015483446317 41.871345029240025 59.999985750002814 42.35087719298272 59.999985750002814 C42.35087719298272 59.999985750002814 49.08771929824593 59.999985750002814 49.08771929824593 59.999985750002814 C49.57894736842137 59.999985750002814 49.96491228070207 59.6015483446317 49.96491228070207 59.121079708743004 C49.96491228070207 59.121079708743004 49.96491228070207 36.96092872177907 49.96491228070207 36.96092872177907 C49.96491228070207 36.96092872177907 51.69590643274886 36.96092872177907 51.69590643274886 36.96092872177907 C52.04678362573133 36.96092872177907 52.36257309941554 36.749991271876716 52.50292397660852 36.43358509702319 C52.64327485380151 36.10546017495286 52.57309941520502 35.742179011232146 52.339181286550044 35.4843665724626 C52.339181286550044 35.4843665724626 46.33918128655 29.1210868337416 46.33918128655 29.1210868337416 Z" vector-effect="non-scaling-stroke"/></g></g></svg>